<svg width="40" height="40" viewBox="0 0 40 40" fill="none" xmlns="http://www.w3.org/2000/svg">
<path d="M13.3187 12.4329L9.36688 12.4384L9.35602 5.77907C9.35578 5.59274 9.50656 5.44149 9.69289 5.44126L12.97 5.43665C13.1563 5.43641 13.3076 5.58719 13.3078 5.77352L13.3187 12.4329Z" fill="#FFB125"/>
<path d="M13.3079 5.77352C13.3076 5.58719 13.1564 5.43641 12.9701 5.43665L11.0162 5.43938C11.1894 5.45329 11.3262 5.59665 11.3266 5.77352L11.3374 12.4329L9.36694 12.4356V12.4384L13.3187 12.4328L13.3079 5.77352Z" fill="#FF901D"/>
<path d="M19.8534 5.31592L9.26782 15.2879L9.28899 30.4478C9.28954 30.8477 9.61423 31.1715 10.0141 31.1709L29.7649 31.1433C30.1649 31.1428 30.4886 30.8181 30.4881 30.4183L30.4669 15.2584L19.8534 5.31592Z" fill="#E1EFFB"/>
<path d="M30.4669 15.2583L19.8535 5.31592L18.108 6.96029L26.9661 15.2583L26.9873 30.4182C26.9878 30.8181 26.6641 31.1427 26.2642 31.1433H29.7651C30.165 31.1427 30.4888 30.818 30.4882 30.4182L30.4669 15.2583Z" fill="#CCDFED"/>
<path d="M34.201 18.5988C33.8437 18.5993 33.4855 18.469 33.2041 18.2054L19.8537 5.6992L6.53828 18.2427C5.95304 18.794 5.03171 18.7665 4.48054 18.1813C3.92921 17.5962 3.95671 16.6748 4.54195 16.1236L18.8527 2.6424C19.4122 2.11529 20.2851 2.11412 20.8461 2.63959L35.1944 16.0808C35.7812 16.6304 35.8112 17.5516 35.2616 18.1383C34.9755 18.4437 34.5887 18.5983 34.201 18.5988Z" fill="#FF4C4C"/>
<path d="M35.2616 16.3875C34.9755 16.6928 34.5888 16.8474 34.201 16.848C33.8437 16.8485 33.4855 16.7182 33.2041 16.4546L19.8537 3.9483L6.53828 16.4918C5.95305 17.0431 5.03172 17.0156 4.48055 16.4304C4.44367 16.3913 4.40984 16.3505 4.3782 16.3085C3.95875 16.8646 3.98688 17.6573 4.48055 18.1813C5.03164 18.7664 5.95305 18.794 6.53828 18.2427L19.8537 5.69924L33.2041 18.2055C33.4855 18.4691 33.8437 18.5993 34.201 18.5989C34.5888 18.5983 34.9755 18.4437 35.2616 18.1384C35.7528 17.6141 35.7796 16.8233 35.3613 16.2686C35.3304 16.3096 35.2973 16.3493 35.2616 16.3875Z" fill="#F33939"/>
<path d="M22.5918 17.8136L17.15 17.8212C16.8947 17.8216 16.688 18.0288 16.6884 18.2841L16.7063 31.1615L23.0727 31.1526L23.0548 18.2752C23.0545 18.0199 22.8471 17.8133 22.5918 17.8136Z" fill="#2D5871"/>
<path d="M23.0548 18.2753C23.0544 18.02 22.8471 17.8133 22.5918 17.8137L19.5173 17.818C19.7049 17.8766 19.8411 18.0516 19.8414 18.2586L19.8594 31.1572L23.0727 31.1526L23.0548 18.2753Z" fill="#1D4859"/>
<path d="M36.4773 24.6526L28.4565 30.0205L26.0661 29.8863L25.9725 28.9455C25.8332 27.5449 24.7548 26.4209 23.3612 26.2237L16.9566 25.4862C15.4792 25.2772 14.0567 24.7821 12.7687 24.0287C11.0103 23 9.00984 22.4579 6.97265 22.4579H2.35507V32.9982L14.5592 37.6197C15.0205 37.7499 15.5048 37.7889 15.9782 37.7141C15.981 37.7136 15.9839 37.7132 15.9867 37.7127L28.2734 35.9416C29.22 35.7905 30.1098 35.3919 30.8526 34.786L38.7937 27.6439C39.5063 27.0111 39.6384 25.9476 39.1023 25.1595C38.5157 24.2975 37.3429 24.0709 36.4773 24.6526Z" fill="#FED9A8"/>
<path d="M39.2071 25.3348L31.358 31.9419C30.6152 32.5477 29.3803 32.9463 28.4337 33.0975L15.9868 33.9873C15.984 33.9877 15.9811 33.9882 15.9783 33.9886C15.5049 34.0634 15.0205 34.0244 14.5593 33.8942L2.35507 29.2727V32.9984L14.5592 37.6199C14.7898 37.6849 15.0262 37.7273 15.2641 37.7439C15.3236 37.7481 15.3832 37.7506 15.4428 37.7516C15.6216 37.7543 15.8007 37.7423 15.9782 37.7142C15.981 37.7138 15.9839 37.7133 15.9867 37.7129L28.2734 35.9418C28.5692 35.8945 28.8595 35.8231 29.1415 35.7288C29.1979 35.7099 29.2539 35.6902 29.3096 35.6695C29.5881 35.566 29.8578 35.4399 30.1159 35.2922C30.1676 35.2627 30.2187 35.2323 30.2694 35.2011C30.472 35.0762 30.6669 34.9377 30.8527 34.7862L38.7937 27.6441C39.4549 27.0569 39.6154 26.0994 39.2071 25.3348Z" fill="#F4C892"/>
<path d="M3.91139 36.5785H2.08436C1.2485 36.5785 0.570923 35.9009 0.570923 35.0651V21.5447C0.570923 20.7088 1.2485 20.0312 2.08436 20.0312H3.91139C4.74725 20.0312 5.42483 20.7088 5.42483 21.5447V35.0651C5.42483 35.9009 4.74725 36.5785 3.91139 36.5785Z" fill="#2D5871"/>
<path d="M3.91141 20.0312H2.08438C1.98164 20.0312 1.88141 20.0417 1.78445 20.0613C2.47656 20.2005 2.99789 20.8116 2.99789 21.5447V35.0651C2.99789 35.7982 2.47656 36.4093 1.78445 36.5485C1.88141 36.568 1.98172 36.5785 2.08438 36.5785H3.91141C4.74727 36.5785 5.42485 35.9009 5.42485 35.0651V21.5447C5.42485 20.7088 4.74727 20.0312 3.91141 20.0312Z" fill="#1D4859"/>
<path d="M39.5744 24.8385C38.8135 23.7204 37.2813 23.4244 36.1598 24.1782L31.0551 27.5945L31.0402 16.9609L32.8137 18.6222C33.1908 18.9754 33.6825 19.1698 34.1987 19.1698C34.1997 19.1698 34.2008 19.1698 34.2018 19.1698C34.7591 19.169 35.2973 18.9354 35.6782 18.5287C36.0483 18.1337 36.2424 17.6182 36.2248 17.0771C36.2071 16.536 35.9798 16.0342 35.5847 15.6641L32.2226 12.5146C31.9924 12.299 31.6311 12.3108 31.4155 12.5409C31.2 12.7711 31.2118 13.1323 31.4419 13.348L34.804 16.4975C34.9765 16.6591 35.0757 16.8781 35.0834 17.1143C35.0911 17.3505 35.0064 17.5755 34.8448 17.748C34.676 17.9281 34.4471 18.0275 34.2001 18.0278C34.1996 18.0278 34.1992 18.0278 34.1987 18.0278C33.9735 18.0278 33.7589 17.943 33.5943 17.7887L30.8579 15.2254L30.8577 15.2252L20.2441 5.2825C20.0241 5.07648 19.6817 5.07679 19.4623 5.28359L8.87687 15.2553L8.87672 15.2555L6.1468 17.8271C5.97484 17.9891 5.75 18.074 5.51375 18.0674C5.2775 18.0604 5.0582 17.9617 4.89617 17.7896C4.73414 17.6177 4.64875 17.3928 4.65586 17.1566C4.66289 16.9204 4.76156 16.7011 4.93352 16.5391L19.2442 3.05804C19.5834 2.73843 20.1156 2.73765 20.4557 3.0564L28.8281 10.8995C29.0582 11.1151 29.4195 11.1034 29.6352 10.8732C29.8507 10.643 29.8389 10.2818 29.6088 10.0662L21.2365 2.22304C20.4573 1.49304 19.2384 1.49468 18.4613 2.22687L13.8801 6.5425L13.8788 5.77273C13.8785 5.53008 13.7837 5.30211 13.6119 5.13086C13.4404 4.95984 13.2127 4.8657 12.9705 4.8657C12.9701 4.8657 12.9697 4.8657 12.9692 4.8657L9.69211 4.87031C9.44945 4.87062 9.22156 4.96547 9.05023 5.13726C8.87898 5.30906 8.78477 5.53726 8.78516 5.78L8.79422 11.3337L4.15055 15.7081C3.75648 16.0793 3.53063 16.5817 3.51445 17.1228C3.49828 17.6639 3.69383 18.1789 4.065 18.5728C4.43609 18.9669 4.93852 19.1928 5.47969 19.209C5.50039 19.2096 5.52109 19.2099 5.5418 19.2099C6.06016 19.2099 6.55102 19.0154 6.92984 18.6584L8.6993 16.9915L8.70633 22.0142C8.13383 21.9309 7.55461 21.8871 6.97273 21.8871H5.99578V21.5448C5.99578 20.3955 5.0607 19.4604 3.91141 19.4604H2.08437C0.935078 19.4603 0 20.3953 0 21.5447V30.4914C0 30.8067 0.255625 31.0623 0.570938 31.0623C0.88625 31.0623 1.14188 30.8067 1.14188 30.4914V21.5447C1.14188 21.025 1.56469 20.6022 2.08437 20.6022H3.91133C4.43102 20.6022 4.85383 21.025 4.85383 21.5447V22.458V34.1608V35.0651C4.85383 35.5848 4.43102 36.0076 3.91133 36.0076H2.08437C1.56469 36.0076 1.14188 35.5848 1.14188 35.0651V34.066C1.14188 33.7507 0.88625 33.4951 0.570938 33.4951C0.255625 33.4951 0 33.7507 0 34.066V35.0651C0 36.2144 0.935078 37.1495 2.08437 37.1495H3.91133C5.06063 37.1495 5.9957 36.2145 5.9957 35.0651V34.9875L14.357 38.1537C14.3724 38.1596 14.3881 38.1648 14.4041 38.1692C14.7676 38.2719 15.1309 38.3234 15.4897 38.3234C15.6838 38.3234 15.8765 38.3083 16.0673 38.2781L28.3548 36.5069C28.3577 36.5065 28.3605 36.506 28.3634 36.5055C29.4081 36.3387 30.3937 35.8971 31.2134 35.2285C31.2205 35.2227 31.2276 35.2167 31.2344 35.2105L39.1727 28.0709C40.0972 27.2502 40.2698 25.8605 39.5744 24.8385ZM12.7373 6.00797L12.7399 7.61656L9.9343 10.2595L9.92734 6.01179L12.7373 6.00797ZM9.84852 22.2357L9.83969 15.9171L19.8548 6.4825L29.8968 15.8897L29.9142 28.3579L28.2977 29.4398L26.5859 29.3437L26.5407 28.8891C26.3814 27.2877 25.1992 25.9995 23.636 25.692L23.6257 18.2745C23.6249 17.7052 23.1615 17.2427 22.5923 17.2427C22.5919 17.2427 22.5915 17.2427 22.5909 17.2427L17.1492 17.2503C16.8732 17.2507 16.6138 17.3585 16.419 17.554C16.2241 17.7494 16.117 18.0091 16.1173 18.285L16.1264 24.7523C15.0485 24.5059 14.0193 24.0989 13.057 23.536C12.937 23.4658 12.8157 23.398 12.6934 23.332C12.6458 23.3063 12.5973 23.2822 12.5493 23.2571C12.4749 23.2183 12.4007 23.1792 12.3255 23.142C12.2657 23.1123 12.2052 23.0841 12.1448 23.0555C12.0809 23.0251 12.017 22.9944 11.9525 22.9651C11.8869 22.9353 11.8207 22.9069 11.7546 22.8784C11.6942 22.8523 11.6338 22.826 11.573 22.8009C11.5051 22.7729 11.4367 22.7459 11.3683 22.7191C11.3076 22.6954 11.2468 22.6718 11.1858 22.649C11.118 22.6237 11.05 22.5992 10.9818 22.5752C10.9178 22.5527 10.8538 22.5306 10.7894 22.5091C10.7241 22.4873 10.6586 22.466 10.5928 22.4453C10.5227 22.4232 10.4523 22.4021 10.3819 22.3812C10.3213 22.3634 10.2609 22.3456 10.2 22.3287C10.1205 22.3066 10.0407 22.2859 9.96078 22.2655C9.92336 22.2559 9.88617 22.245 9.84852 22.2357ZM17.2595 18.392L22.484 18.3847L22.494 25.5491L17.7186 24.9994L17.2687 24.9476L17.2595 18.392ZM38.412 27.2195L30.4814 34.3522C29.8205 34.888 29.0278 35.2425 28.1876 35.3773L15.9053 37.1478C15.9027 37.1482 15.9002 37.1486 15.8977 37.149L15.8891 37.1503C15.517 37.2092 15.1295 37.1844 14.7373 37.0767L5.99578 33.7664V23.0289H6.97273C7.80438 23.0289 8.63039 23.1249 9.43477 23.3114C9.46469 23.3184 9.49453 23.3255 9.52437 23.3327C9.6232 23.3565 9.7218 23.381 9.81992 23.4076C9.82852 23.4099 9.83703 23.4124 9.84562 23.4148C9.94398 23.4416 10.042 23.47 10.1396 23.4996C10.1571 23.5049 10.1747 23.5102 10.1921 23.5155C10.296 23.5477 10.3995 23.5812 10.5023 23.6163C10.513 23.62 10.5235 23.6237 10.5341 23.6274C10.7484 23.7014 10.9606 23.7821 11.1702 23.8694C11.1816 23.8742 11.193 23.879 11.2044 23.8838C11.3088 23.9277 11.4127 23.9731 11.5158 24.0203C11.5185 24.0216 11.5213 24.0229 11.5241 24.0242C11.6237 24.07 11.7227 24.1175 11.8211 24.1663C11.8327 24.172 11.8443 24.1777 11.8559 24.1834C11.952 24.2315 12.0473 24.2812 12.142 24.3322C12.1599 24.3418 12.1777 24.3516 12.1956 24.3613C12.2913 24.4134 12.3863 24.4666 12.4805 24.5216C13.8391 25.3164 15.3182 25.8312 16.8766 26.0517C16.8816 26.0524 16.8864 26.053 16.8913 26.0536L23.2883 26.7901C23.3237 26.7952 23.3588 26.801 23.3937 26.8076C24.3355 26.9844 25.0788 27.6803 25.3274 28.5865C25.3643 28.7207 25.3902 28.8596 25.4045 29.002L25.4298 29.2575L13.4408 28.2071C13.1269 28.1797 12.8497 28.412 12.8222 28.726C12.7946 29.0402 13.027 29.3171 13.3411 29.3446L26.0163 30.4552C26.0193 30.4554 26.0223 30.4553 26.0252 30.4555C26.0282 30.4558 26.0311 30.4562 26.0341 30.4565L28.4245 30.5906C28.4352 30.5912 28.4459 30.5915 28.4565 30.5915C28.4678 30.5915 28.479 30.5897 28.4902 30.589C28.503 30.5882 28.5157 30.5877 28.5284 30.5862C28.5454 30.584 28.562 30.5803 28.5788 30.5766C28.5907 30.574 28.6027 30.572 28.6145 30.5686C28.6327 30.5634 28.6503 30.5562 28.668 30.5491C28.6776 30.5453 28.6874 30.5424 28.6968 30.538C28.7234 30.5257 28.7494 30.5115 28.7741 30.4949L30.8031 29.137L30.8034 29.1368L36.7957 25.1265C37.3986 24.7212 38.2216 24.8802 38.6302 25.4809C39.0038 26.0298 38.9111 26.7762 38.412 27.2195Z" fill="black"/>
</svg>
