<svg width="40" height="40" viewBox="0 0 40 40" fill="none" xmlns="http://www.w3.org/2000/svg">
<path d="M27.5 14.9999V19.3749C27.5 19.7187 27.2188 19.9999 26.875 19.9999H26.25V29.0624L28.75 30.6249L35 29.4562V14.9999H27.5Z" fill="#CF9E76"/>
<path d="M13.125 19.9999C12.7812 19.9999 12.5 19.7187 12.5 19.3749V14.9999H5V29.3749L12.5 30.6249L13.75 29.3749V19.9999H13.125Z" fill="#CF9E76"/>
<path d="M18.8375 4.06869L2.8875 13.5187C2.65 13.6624 2.5 13.9249 2.5 14.2062V12.2187C2.5 11.5499 2.85 10.9374 3.425 10.5999L18.8375 1.56869C19.1875 1.35619 19.5938 1.24994 20 1.24994C20.4062 1.24994 20.8125 1.35619 21.1625 1.56869L36.575 10.5999C37.15 10.9374 37.5 11.5499 37.5 12.2187V14.2062C37.5 13.9249 37.35 13.6624 37.1125 13.5187L21.1625 4.06869C20.8125 3.86244 20.4062 3.74994 20 3.74994C19.5938 3.74994 19.1875 3.86244 18.8375 4.06869Z" fill="#FCD770"/>
<path d="M37.1125 13.5187L21.1625 4.06869C20.8125 3.86244 20.4062 3.74994 20 3.74994C19.5938 3.74994 19.1875 3.86244 18.8375 4.06869L2.8875 13.5187C2.65 13.6624 2.5 13.9249 2.5 14.2062C2.5 14.6437 2.85625 14.9999 3.29375 14.9999H36.7062C37.1437 14.9999 37.5 14.6437 37.5 14.2062C37.5 13.9249 37.35 13.6624 37.1125 13.5187Z" fill="#FFEAA7"/>
<path d="M20 9.99994C20.6904 9.99994 21.25 9.44029 21.25 8.74994C21.25 8.05958 20.6904 7.49994 20 7.49994C19.3096 7.49994 18.75 8.05958 18.75 8.74994C18.75 9.44029 19.3096 9.99994 20 9.99994Z" fill="#69D6F4"/>
<path d="M27.5 14.9999V19.3749C27.5 19.7187 27.2188 19.9999 26.875 19.9999H26.25C25.5625 19.9999 25 19.4374 25 18.7499V12.4999C25 11.8124 25.5625 11.2499 26.25 11.2499H26.875C27.2188 11.2499 27.5 11.5312 27.5 11.8749V14.9999Z" fill="#AAB2BD"/>
<path d="M15 12.4999V18.7499C15 19.4374 14.4375 19.9999 13.75 19.9999H13.125C12.7812 19.9999 12.5 19.7187 12.5 19.3749V14.9999V11.8749C12.5 11.5312 12.7812 11.2499 13.125 11.2499H13.75C14.4375 11.2499 15 11.8124 15 12.4999Z" fill="#AAB2BD"/>
<path d="M25 12.4999V18.7499H21.875H18.125H15V12.4999H25Z" fill="#CCD1D9"/>
<path d="M21.25 21.2499V27.9249C21.1875 27.9562 21.1313 27.9937 21.075 28.0312L20.2312 28.5937L18.75 27.9999V21.2499H21.25Z" fill="#969FAA"/>
<path d="M21.875 18.7499L21.25 21.2499H18.75L18.125 18.7499H21.875Z" fill="#969FAA"/>
<path d="M38.75 28.7499V37.4999L28.75 36.2499V30.6249L30 30.3874L32.5 29.9249L35 29.4562L38.75 28.7499Z" fill="#FF826E"/>
<path d="M12.5 30.6249V36.2499L1.25 37.4999V28.7499L5 29.3749L7.5 29.7937L10 30.2062L12.5 30.6249Z" fill="#75B1F2"/>
<path d="M24.375 37.0187V36.7499C24.375 36.4187 24.3375 36.0874 24.2688 35.7624L23.3188 31.4874C23.2063 30.9812 22.7562 30.6249 22.2438 30.6249C22.0062 30.6249 21.775 30.6999 21.5812 30.8437L20.0062 32.0249C19.6 32.3312 19.1 32.4999 18.5875 32.4999C17.5625 32.4999 16.6562 31.8437 16.3375 30.8812L16.25 30.6249C17.4937 30.2124 18.675 29.6312 19.7687 28.9062L20.2312 28.5937L21.075 28.0312C21.1313 27.9937 21.1875 27.9562 21.25 27.9249C21.7312 27.6499 22.2813 27.4999 22.8375 27.4999C23.4313 27.4999 24.0188 27.6687 24.525 27.9812L26.25 29.0624L28.75 30.6249V36.2499L27.6562 36.6874C26.5813 37.1187 25.4437 37.3812 24.2937 37.4687C24.3437 37.3249 24.375 37.1749 24.375 37.0187Z" fill="#F0D0B4"/>
<path d="M24.375 36.7499V37.0187C24.375 37.1749 24.3437 37.3249 24.2937 37.4687C24.1312 37.8874 23.75 38.1999 23.2812 38.2624L19.7625 38.6999C19.5063 38.7312 19.2438 38.7499 18.9813 38.7499C18.0063 38.7499 17.0437 38.5249 16.175 38.0874L12.5 36.2499V30.6249L13.75 29.3749L14.7187 28.4062C15.3 27.8249 16.0875 27.4999 16.9062 27.4999C17.3 27.4999 17.6875 27.5749 18.05 27.7187L18.75 27.9999L20.2312 28.5937L19.7687 28.9062C18.675 29.6312 17.4938 30.2124 16.25 30.6249L16.3375 30.8812C16.6562 31.8437 17.5625 32.4999 18.5875 32.4999C19.1 32.4999 19.6 32.3312 20.0062 32.0249L21.5812 30.8437C21.775 30.6999 22.0063 30.6249 22.2437 30.6249C22.7563 30.6249 23.2063 30.9812 23.3188 31.4874L24.2688 35.7624C24.3375 36.0874 24.375 36.4187 24.375 36.7499Z" fill="#F0D0B4"/>
<path d="M39.375 27.9968L35.625 28.7V15.625H36.7038C37.4869 15.625 38.125 14.9875 38.125 14.2037V12.2162C38.125 11.3325 37.6512 10.5062 36.8894 10.0593L21.48 1.02685C20.5825 0.501223 19.4169 0.501223 18.52 1.02685L3.11063 10.06C2.34875 10.5068 1.875 11.3331 1.875 12.2162V14.2037C1.875 14.9875 2.51313 15.625 3.29625 15.625H4.375V28.6368L0.625 28.0118V38.1981L12.385 36.8912L15.8931 38.6456C16.8481 39.1225 17.9163 39.375 18.9837 39.375C19.2694 39.375 19.5575 39.3568 19.8406 39.3218L23.3575 38.8818C23.9175 38.8118 24.3912 38.4944 24.685 38.0512C25.7831 37.9362 26.8587 37.68 27.8862 37.2687L28.8325 36.89L39.375 38.2081V27.9968ZM34.375 28.9343L33.125 29.1687V15.625H34.375V28.9343ZM26.875 28.7156V20.625C27.5644 20.625 28.125 20.0643 28.125 19.375V15.625H29.375V29.8718L28.8744 29.9656L26.875 28.7156ZM10.625 29.6787V15.625H11.875V19.375C11.875 20.0643 12.4356 20.625 13.125 20.625V29.1162L12.2856 29.9556L10.625 29.6787ZM9.375 15.625V29.4706L8.125 29.2625V15.625H9.375ZM13.125 19.375V11.875H13.75C14.095 11.875 14.375 12.1556 14.375 12.5V18.75C14.375 19.0943 14.095 19.375 13.75 19.375H13.125ZM14.375 20.51C14.9044 20.3212 15.3212 19.9043 15.51 19.375H17.6375L18.125 21.3275V27.09C16.8381 26.6444 15.3731 26.9512 14.375 27.8793V20.51ZM15.625 13.125H24.375V18.125H15.625V13.125ZM20.7619 20.625H19.2381L18.925 19.375H21.0744L20.7619 20.625ZM19.375 21.875H20.625V27.5818L20.1612 27.8912L19.375 27.5768V21.875ZM21.875 21.3275L22.3631 19.375H24.4906C24.6794 19.9043 25.0963 20.3212 25.6256 20.51V27.935L24.8556 27.4537C23.97 26.9 22.875 26.7606 21.8756 27.015L21.875 21.3275ZM25.625 18.75V12.5C25.625 12.1556 25.905 11.875 26.25 11.875H26.875V19.375H26.25C25.905 19.375 25.625 19.0943 25.625 18.75ZM30.625 15.625H31.875V29.4031L30.625 29.6375V15.625ZM3.7425 11.1381L19.1525 2.1056C19.6663 1.80435 20.3344 1.80435 20.8481 2.1056L36.2575 11.1387C36.6381 11.3618 36.875 11.7743 36.875 12.2162V12.6531L21.4812 3.5306C20.5837 2.99935 19.4156 2.99935 18.5187 3.5306L3.125 12.6531V12.2162C3.125 11.7743 3.36187 11.3618 3.7425 11.1381ZM3.125 14.2037C3.125 14.1437 3.1575 14.0868 3.20938 14.0562L19.1556 4.60622C19.6669 4.30372 20.3325 4.30372 20.8438 4.60622L36.7906 14.0562C36.8425 14.0875 36.875 14.1437 36.875 14.2037C36.875 14.2981 36.7981 14.375 36.7038 14.375H28.125V11.875C28.125 11.1856 27.5644 10.625 26.875 10.625H26.25C25.4363 10.625 24.7487 11.1493 24.49 11.875H15.51C15.2513 11.1493 14.5638 10.625 13.75 10.625H13.125C12.4356 10.625 11.875 11.1856 11.875 11.875V14.375H3.29625C3.20188 14.375 3.125 14.2981 3.125 14.2037ZM5.625 15.625H6.875V29.0537L5.625 28.8456V15.625ZM1.875 29.4881L11.875 31.1543V35.6906L1.875 36.8018V29.4881ZM23.75 37.0212C23.75 37.3356 23.5144 37.6025 23.2025 37.6412L19.6856 38.0812C18.5869 38.2181 17.4438 38.0231 16.4525 37.5275L13.125 35.8637V30.8837L15.1619 28.8475C15.8506 28.1581 16.9156 27.94 17.8206 28.3012L18.8831 28.7262C17.9906 29.2643 17.0419 29.7025 16.0525 30.0318L15.46 30.2293L15.7419 31.0756C16.15 32.3018 17.2925 33.125 18.5844 33.125C19.2288 33.125 19.8675 32.9118 20.3819 32.5256L21.9563 31.345C22.2169 31.15 22.635 31.3031 22.7063 31.6225L23.6562 35.895C23.7188 36.1756 23.75 36.4643 23.75 36.7519V37.0212ZM27.4225 36.1081C26.6413 36.4206 25.8294 36.6381 25 36.76V36.7519C25 36.3731 24.9587 35.9931 24.8762 35.6237L23.9263 31.3506C23.7494 30.5556 23.0569 30 22.2419 30C21.8706 30 21.5031 30.1225 21.2069 30.345L19.6319 31.5256C19.3325 31.7512 18.96 31.875 18.5844 31.875C17.9481 31.875 17.3744 31.5325 17.0675 30.9962C18.1381 30.5875 19.1613 30.06 20.1156 29.4237L21.42 28.5537C22.2406 28.0075 23.3563 27.99 24.1919 28.5131L28.125 30.9718V35.8269L27.4225 36.1081ZM38.125 36.7918L29.375 35.6981V31.1437L38.125 29.5031V36.7918Z" fill="black"/>
<path d="M20 10.6249C21.0338 10.6249 21.875 9.78369 21.875 8.74994C21.875 7.71619 21.0338 6.87494 20 6.87494C18.9662 6.87494 18.125 7.71619 18.125 8.74994C18.125 9.78369 18.9662 10.6249 20 10.6249ZM20 8.12494C20.345 8.12494 20.625 8.40556 20.625 8.74994C20.625 9.09431 20.345 9.37494 20 9.37494C19.655 9.37494 19.375 9.09431 19.375 8.74994C19.375 8.40556 19.655 8.12494 20 8.12494Z" fill="black"/>
</svg>
