<svg width="40" height="40" viewBox="0 0 40 40" fill="none" xmlns="http://www.w3.org/2000/svg">
<path d="M26.25 26.25C29.7018 26.25 32.5 23.4518 32.5 20C32.5 16.5482 29.7018 13.75 26.25 13.75C22.7982 13.75 20 16.5482 20 20C20 23.4518 22.7982 26.25 26.25 26.25Z" fill="#E6E9ED"/>
<path d="M32.5 38.75C35.9518 38.75 38.75 35.9518 38.75 32.5C38.75 29.0482 35.9518 26.25 32.5 26.25C29.0482 26.25 26.25 29.0482 26.25 32.5C26.25 35.9518 29.0482 38.75 32.5 38.75Z" fill="#E6E9ED"/>
<path d="M32.5 13.75C35.9518 13.75 38.75 10.9518 38.75 7.5C38.75 4.04822 35.9518 1.25 32.5 1.25C29.0482 1.25 26.25 4.04822 26.25 7.5C26.25 10.9518 29.0482 13.75 32.5 13.75Z" fill="#E6E9ED"/>
<path d="M32.5 8.75C34.5562 8.75 36.275 10.1688 36.7437 12.0812C35.6312 13.1188 34.1375 13.75 32.5 13.75C30.8625 13.75 29.3687 13.1188 28.2562 12.0812C28.725 10.1688 30.4437 8.75 32.5 8.75Z" fill="#B4DD7F"/>
<path d="M32.5 33.75C34.5562 33.75 36.275 35.1688 36.7437 37.0813C35.6312 38.1188 34.1375 38.75 32.5 38.75C30.8625 38.75 29.3687 38.1188 28.2562 37.0813C28.725 35.1688 30.4437 33.75 32.5 33.75Z" fill="#B4DD7F"/>
<path d="M26.25 21.25C28.3062 21.25 30.025 22.6688 30.4937 24.5813C29.3812 25.6188 27.8875 26.25 26.25 26.25C24.6125 26.25 23.1187 25.6188 22.0062 24.5813C22.475 22.6688 24.1937 21.25 26.25 21.25Z" fill="#FCD770"/>
<path d="M32.5 33.75C33.8807 33.75 35 32.6307 35 31.25C35 29.8693 33.8807 28.75 32.5 28.75C31.1193 28.75 30 29.8693 30 31.25C30 32.6307 31.1193 33.75 32.5 33.75Z" fill="#F0D0B4"/>
<path d="M26.25 21.25C27.6307 21.25 28.75 20.1307 28.75 18.75C28.75 17.3693 27.6307 16.25 26.25 16.25C24.8693 16.25 23.75 17.3693 23.75 18.75C23.75 20.1307 24.8693 21.25 26.25 21.25Z" fill="#F0D0B4"/>
<path d="M32.5 8.75C33.8807 8.75 35 7.63071 35 6.25C35 4.86929 33.8807 3.75 32.5 3.75C31.1193 3.75 30 4.86929 30 6.25C30 7.63071 31.1193 8.75 32.5 8.75Z" fill="#F0D0B4"/>
<path d="M16.25 3.75H2.5C1.8125 3.75 1.25 4.3125 1.25 5V10C1.25 10.6875 1.8125 11.25 2.5 11.25H16.25C16.9375 11.25 17.5 10.6875 17.5 10V7.5V5C17.5 4.3125 16.9375 3.75 16.25 3.75Z" fill="#E6E9ED"/>
<path d="M15 34.1313V38.75H5V34.1313C5 32.6563 5.4375 31.225 6.25 30H13.75C14.2563 30.7625 14.6187 31.6125 14.8187 32.5C14.9375 33.0312 15 33.575 15 34.1313Z" fill="#4FC1E9"/>
<path d="M13.75 17.5L15.3062 17.8875C15.8625 18.025 16.25 18.525 16.25 19.1V20V25.5625C16.25 26.4125 15.9625 27.2375 15.4313 27.9L13.75 30H6.25L4.56875 27.9C4.0375 27.2375 3.75 26.4125 3.75 25.5625V22.7625C3.75 22.175 3.6125 21.6062 3.35625 21.0812L2.60625 19.5875C2.5375 19.45 2.5 19.2938 2.5 19.1375C2.5 18.575 2.95 18.125 3.5125 18.125C4.26875 18.125 4.95 18.4313 5.45 18.925C5.94375 19.425 6.25 20.1063 6.25 20.8625V11.25V10C6.25 9.3125 6.8125 8.75 7.5 8.75C7.84375 8.75 8.15625 8.8875 8.38125 9.11875C8.6125 9.34375 8.75 9.65625 8.75 10V11.25V16.25L11.25 16.875L13.75 17.5Z" fill="#F0D0B4"/>
<path d="M32.5 25.625C28.92 25.625 25.9737 28.3762 25.6569 31.875H15.3025C15.1175 31.2381 14.8519 30.625 14.5125 30.0475L15.9163 28.2931C16.5344 27.52 16.875 26.5494 16.875 25.56V20.625H19.4069C19.7238 24.1238 22.67 26.875 26.25 26.875C30.0406 26.875 33.125 23.7906 33.125 20C33.125 16.2094 30.0406 13.125 26.25 13.125C22.67 13.125 19.7238 15.8763 19.4069 19.375H16.875V19.1012C16.875 18.2394 16.2906 17.4913 15.455 17.2825L14.375 17.0125L11.875 16.3869L10.625 16.0744L9.375 15.7619V11.875H16.25C17.2838 11.875 18.125 11.0337 18.125 10V8.125H25.6569C25.9737 11.6237 28.92 14.375 32.5 14.375C36.2906 14.375 39.375 11.2906 39.375 7.5C39.375 3.70937 36.2906 0.625 32.5 0.625C28.92 0.625 25.9737 3.37625 25.6569 6.875H18.125V5C18.125 3.96625 17.2838 3.125 16.25 3.125H2.5C1.46625 3.125 0.625 3.96625 0.625 5V10C0.625 11.0337 1.46625 11.875 2.5 11.875H5.625V18.2687C5.04563 17.7956 4.31625 17.5 3.51125 17.5C2.60875 17.5 1.875 18.2344 1.875 19.1362C1.875 19.3888 1.935 19.6425 2.0475 19.8681L2.795 21.3631C3.01063 21.7944 3.125 22.2781 3.125 22.76V25.5594C3.125 26.5494 3.46563 27.52 4.08375 28.2925L5.4875 30.0469C4.76062 31.285 4.375 32.6856 4.375 34.1281V39.375H15.625V34.1281C15.625 33.7906 15.5994 33.4562 15.5581 33.125H25.6569C25.9737 36.6237 28.92 39.375 32.5 39.375C36.2906 39.375 39.375 36.2906 39.375 32.5C39.375 28.7094 36.2906 25.625 32.5 25.625ZM22.73 24.3806C23.2531 22.8925 24.6456 21.875 26.25 21.875C27.8544 21.875 29.2469 22.8925 29.77 24.3806C28.805 25.1575 27.5819 25.625 26.25 25.625C24.9181 25.625 23.695 25.1575 22.73 24.3806ZM24.375 18.75C24.375 17.7162 25.2162 16.875 26.25 16.875C27.2838 16.875 28.125 17.7162 28.125 18.75C28.125 19.7838 27.2838 20.625 26.25 20.625C25.2162 20.625 24.375 19.7838 24.375 18.75ZM26.25 14.375C29.3512 14.375 31.875 16.8981 31.875 20C31.875 21.2781 31.4412 22.4544 30.7206 23.4C30.2069 22.3619 29.3556 21.5437 28.32 21.0731C28.9619 20.5006 29.375 19.6763 29.375 18.75C29.375 17.0269 27.9731 15.625 26.25 15.625C24.5269 15.625 23.125 17.0269 23.125 18.75C23.125 19.6763 23.5381 20.5006 24.18 21.0731C23.1444 21.5437 22.2931 22.3619 21.7794 23.4C21.0588 22.4544 20.625 21.2781 20.625 20C20.625 16.8981 23.1488 14.375 26.25 14.375ZM28.98 11.8806C29.5031 10.3925 30.8956 9.375 32.5 9.375C34.1044 9.375 35.4969 10.3925 36.02 11.8806C35.055 12.6575 33.8319 13.125 32.5 13.125C31.1681 13.125 29.945 12.6575 28.98 11.8806ZM30.625 6.25C30.625 5.21625 31.4662 4.375 32.5 4.375C33.5337 4.375 34.375 5.21625 34.375 6.25C34.375 7.28375 33.5337 8.125 32.5 8.125C31.4662 8.125 30.625 7.28375 30.625 6.25ZM32.5 1.875C35.6012 1.875 38.125 4.39813 38.125 7.5C38.125 8.77812 37.6912 9.95438 36.9706 10.9C36.4569 9.86188 35.6056 9.04375 34.57 8.57312C35.2119 8.00063 35.625 7.17625 35.625 6.25C35.625 4.52688 34.2231 3.125 32.5 3.125C30.7769 3.125 29.375 4.52688 29.375 6.25C29.375 7.17625 29.7881 8.00063 30.43 8.57312C29.3944 9.04375 28.5431 9.86188 28.0294 10.9C27.3088 9.95438 26.875 8.77812 26.875 7.5C26.875 4.39813 29.3988 1.875 32.5 1.875ZM2.5 10.625C2.15562 10.625 1.875 10.345 1.875 10V5C1.875 4.655 2.15562 4.375 2.5 4.375H16.25C16.5944 4.375 16.875 4.655 16.875 5V10C16.875 10.345 16.5944 10.625 16.25 10.625H9.375V10C9.375 8.96625 8.53375 8.125 7.5 8.125C6.46625 8.125 5.625 8.96625 5.625 10V10.625H2.5ZM4.375 25.56V22.7606C4.375 22.085 4.21563 21.4087 3.91313 20.8044L3.16563 19.3094C3.13875 19.2563 3.125 19.1963 3.125 19.1362C3.125 18.9231 3.29813 18.75 3.51125 18.75C4.67688 18.75 5.625 19.6987 5.625 20.8638V21.875V23.75H6.875V21.875V20.8638V10C6.875 9.655 7.15562 9.375 7.5 9.375C7.84438 9.375 8.125 9.655 8.125 10V15.4494V23.75H9.375V17.0506L10.625 17.3631V23.75H11.875V17.6756L13.125 17.9881V23.75H14.375V18.3L15.1513 18.4944C15.43 18.5644 15.625 18.8137 15.625 19.1012V25.56C15.625 26.2669 15.3819 26.96 14.94 27.5119L13.4494 29.375H6.55062L5.06 27.5119C4.61812 26.96 4.375 26.2663 4.375 25.56ZM14.375 38.125H5.625V34.1281C5.625 32.8881 5.95875 31.6831 6.59375 30.625H13.4062C14.0413 31.6831 14.375 32.8881 14.375 34.1281V38.125ZM28.98 36.8806C29.5031 35.3925 30.8956 34.375 32.5 34.375C34.1044 34.375 35.4969 35.3925 36.02 36.8806C35.055 37.6575 33.8319 38.125 32.5 38.125C31.1681 38.125 29.945 37.6575 28.98 36.8806ZM30.625 31.25C30.625 30.2162 31.4662 29.375 32.5 29.375C33.5337 29.375 34.375 30.2162 34.375 31.25C34.375 32.2838 33.5337 33.125 32.5 33.125C31.4662 33.125 30.625 32.2838 30.625 31.25ZM36.9706 35.9C36.4569 34.8619 35.6056 34.0438 34.57 33.5731C35.2119 33.0006 35.625 32.1763 35.625 31.25C35.625 29.5269 34.2231 28.125 32.5 28.125C30.7769 28.125 29.375 29.5269 29.375 31.25C29.375 32.1763 29.7881 33.0006 30.43 33.5731C29.3944 34.0438 28.5431 34.8619 28.0294 35.9C27.3088 34.9544 26.875 33.7781 26.875 32.5C26.875 29.3981 29.3988 26.875 32.5 26.875C35.6012 26.875 38.125 29.3981 38.125 32.5C38.125 33.7781 37.6912 34.9544 36.9706 35.9Z" fill="black"/>
</svg>
