<svg width="40" height="40" viewBox="0 0 40 40" fill="none" xmlns="http://www.w3.org/2000/svg">
<mask id="mask0_4_189" style="mask-type:luminance" maskUnits="userSpaceOnUse" x="0" y="0" width="40" height="40">
<path d="M0 3.8147e-06H40V40H0V3.8147e-06Z" fill="white"/>
</mask>
<g mask="url(#mask0_4_189)">
<path d="M33.7844 19.6173C33.0383 21.4184 32.9914 23.6452 33.7375 25.4463L34.3795 26.704H6.66693C6.66693 26.704 1.5074 23.805 6.66693 18.6455L34.1401 18.0792L33.7844 19.6173Z" fill="#F1F2F2"/>
<path d="M34.3796 26.7042H6.66708C6.66708 26.7042 1.5077 23.805 6.66708 18.6456L34.1405 18.0792L33.7843 19.6175C33.6194 20.0167 33.4882 20.4363 33.3929 20.8675H8.24598C7.27177 20.8675 6.47958 21.6597 6.47958 22.6331C6.47958 23.6073 7.27177 24.3995 8.24598 24.3995H33.4022C33.4866 24.7597 33.5983 25.1105 33.7374 25.4464L34.3796 26.7042Z" fill="#DEE1E1"/>
<path d="M33.9599 27.8806L8.62868 27.8407C5.59391 27.8407 2.98766 25.9048 2.98766 22.87C2.98766 22.1998 2.87102 21.3208 3.09071 20.7269C3.86571 18.6318 5.88141 17.1383 8.24594 17.1383H34.2334C34.9179 17.1383 35.4728 17.6933 35.4728 18.3778C35.4728 19.0623 34.9179 19.6173 34.2334 19.6173H14.5654L12.6446 20.0681L10.9741 19.6173H8.24594C6.58024 19.6173 5.22993 20.9676 5.22993 22.6333C5.22993 24.299 6.58024 25.6493 8.24594 25.6493H34.2334C34.9179 25.6493 35.4728 26.2043 35.4728 26.8888C35.4728 26.9382 35.4699 26.9869 35.4643 27.0348C35.3921 27.6505 34.5951 27.8806 33.9599 27.8806Z" fill="#B7E546"/>
<path d="M35.4639 27.0347C35.4303 27.3183 35.3014 27.573 35.11 27.7652C34.885 27.9894 34.5757 28.1284 34.2335 28.1284L21.3946 28.8979L8.24597 28.1284C5.21081 28.1284 2.75066 25.6683 2.75066 22.6331C2.75066 21.8417 2.91784 21.0894 3.21941 20.4097V21.5394C3.21941 24.5746 5.67956 27.0347 8.71472 27.0347H35.4639Z" fill="#ABD641"/>
<path d="M14.5653 23.2306V19.6173H11.9899L11.0755 19.7091L11.1303 23.0744C11.1303 23.1844 11.2411 23.26 11.3435 23.2199L11.9898 23.0619L12.7128 22.7788C12.7494 22.7645 12.7901 22.7645 12.8268 22.7788L14.3521 23.3761C14.4546 23.4163 14.5653 23.3406 14.5653 23.2306Z" fill="#EF5227"/>
<path d="M11.9899 19.6175V23.062L11.1876 23.3761C11.0852 23.4159 10.9743 23.3409 10.9743 23.2308V19.6175H11.9899Z" fill="#D83724"/>
<path d="M30.2224 13.9831V15.7449L30.1442 16.5262C30.1442 16.8284 29.8989 17.0731 29.5974 17.0731L8.77626 16.9949C8.47392 16.9949 8.22939 16.7503 8.22939 16.4481L8.07314 13.9831L18.7617 13.4724L30.2224 13.9831Z" fill="#FDCD08"/>
<path d="M35.5901 15.4538C35.101 16.6594 34.6088 17.8488 34.1198 19.0544C33.8274 19.775 34.3527 20.5647 35.1242 20.5647L36.0286 20.6428H38.2285C39.0001 20.6428 39.5253 19.8531 39.2329 19.1325L38.213 16.6183L37.5715 15.4538H35.5901Z" fill="#FDCD08"/>
<path d="M36.3776 17.0627C37.0204 17.1212 37.6946 16.9524 38.213 16.6184L37.6646 15.2477L36.7582 15.5185L36.7583 15.5183L35.5768 15.3607C35.4275 15.7287 35.2106 16.2511 35.0614 16.6191L35.0615 16.6192C34.7217 17.4569 34.3817 18.2947 34.0419 19.1324C33.7497 19.8535 34.2747 20.6425 35.0458 20.6425H36.2958C35.5247 20.6425 34.9997 19.8535 35.2919 19.1324C35.5459 18.5067 35.7997 17.8813 36.0535 17.2556C36.106 17.126 36.2381 17.0499 36.3776 17.0627Z" fill="#FAAB18"/>
<path d="M38.4408 14.0812C38.4408 13.2827 37.9316 12.6045 37.2232 12.3589C37.0395 12.2953 36.7725 12.4086 36.5675 12.4086C35.5715 12.4086 34.9584 13.0759 34.9584 14.0812C34.9584 15.0866 35.7036 15.6898 36.6996 15.6898C36.9047 15.6898 37.0395 15.8669 37.2231 15.8034C37.9316 15.5579 38.4408 14.8796 38.4408 14.0812Z" fill="#FDCD08"/>
<path d="M37.2231 15.8035C37.0395 15.8675 36.8419 15.9019 36.6372 15.9019C35.6411 15.9019 34.8341 15.0862 34.8341 14.0807C34.8341 13.0761 35.6411 12.2604 36.6372 12.2604C36.8419 12.2604 37.0395 12.2949 37.2231 12.3589C36.5145 12.6043 36.006 13.2831 36.006 14.0807C36.006 14.8793 36.5145 15.5581 37.2231 15.8035Z" fill="#FAAB18"/>
<path d="M36.7816 8.06932L31.6286 9.85323L30.2224 9.70901L20.2201 13.8027C19.5253 14.0431 18.7699 14.0431 18.0751 13.8027L8.07313 9.86862L6.66696 9.85331L1.51352 8.06932C0.925322 7.86573 0.925322 7.0337 1.51352 6.8301L18.2706 1.02917C18.8388 0.832448 19.4565 0.832448 20.0246 1.02917L36.7816 6.8301C37.3699 7.0337 37.3699 7.86573 36.7816 8.06932Z" fill="#868491"/>
<path d="M31.6286 9.32456V9.85355L20.22 13.8027C19.5255 14.0433 18.77 14.0433 18.0747 13.8027L6.66689 9.85355V9.32456C6.66689 8.20972 7.46298 7.25815 8.56064 7.06058C12.0481 6.43558 15.6099 6.11917 19.1474 6.11917C22.6849 6.11917 26.2474 6.43558 29.7349 7.06058C30.2661 7.15659 30.7481 7.43628 31.0934 7.84956C31.4372 8.25972 31.6286 8.78472 31.6286 9.32456Z" fill="#77777F"/>
<path d="M30.2224 9.32456V13.9832H8.30751L8.22939 9.48081C8.22939 9.048 8.53954 8.67776 8.96532 8.60112C9.18861 8.5612 9.25572 8.3662 9.47931 8.32886C12.6797 7.79355 15.9139 7.52542 19.1474 7.52542C22.6075 7.52542 26.0677 7.83237 29.4864 8.44487C29.6989 8.48315 29.8833 8.59487 30.0138 8.75112C30.145 8.90737 30.2224 9.10815 30.2224 9.32456Z" fill="#868491"/>
<path d="M30.2224 15.7449V16.6043C30.2224 16.9066 29.977 17.1512 29.6755 17.1512H8.62001C8.31798 17.1512 8.07314 16.9063 8.07314 16.6043V13.9831L8.77626 13.4724L9.47939 13.9831V15.3543C9.47939 15.57 9.65431 15.7449 9.87001 15.7449H30.2224Z" fill="#FAAB18"/>
<path d="M9.4794 8.32926V13.9831H8.07315V9.3245C8.07315 8.89169 8.38331 8.52145 8.80909 8.44481C9.03253 8.40505 9.25596 8.36598 9.4794 8.32926Z" fill="#77777F"/>
<path d="M35.8487 36.4181C35.1027 34.6169 35.1027 32.5932 35.8487 30.792L36.0865 29.7359H4.14015C4.14015 29.7359 0.544053 33.6454 4.37382 37.4752L36.2944 37.7147L35.8487 36.4181Z" fill="#F1F2F2"/>
<path d="M36.2944 37.7144L4.37409 37.4753C0.543625 33.6456 4.1405 29.7362 4.1405 29.7362L36.24 29.7955L35.8491 30.7918C35.7046 31.1402 35.5882 31.4964 35.4999 31.8573H6.18034C5.20612 31.8573 4.41394 32.6495 4.41394 33.6229C4.41394 34.5972 5.20612 35.3894 6.18034 35.3894H35.5092C35.5967 35.7378 35.71 36.0823 35.8491 36.4183L36.2944 37.7144Z" fill="#DEE1E1"/>
<path d="M35.7563 38.8447L6.87334 38.7915C3.83858 38.7915 1.16858 37.0789 1.16858 34.0442C1.16858 33.0811 0.933031 31.7548 1.36834 30.9677C2.30467 29.2746 4.1085 28.1282 6.18014 28.1282H36.2991C36.9837 28.1282 37.5386 28.6832 37.5386 29.3677C37.5386 30.0522 36.9837 30.6072 36.2991 30.6072H28.8365L26.8866 31.0389L25.2454 30.6072H6.18014C4.51443 30.6072 3.16412 31.9575 3.16412 33.6232C3.16412 35.2889 4.51443 36.6393 6.18014 36.6393H36.2991C36.9837 36.6393 37.5386 37.1942 37.5386 37.8787C37.5386 37.9551 37.5317 38.03 37.5184 38.1026C37.413 38.6804 36.3644 38.8447 35.7563 38.8447Z" fill="#EF5227"/>
<path d="M37.5186 38.1027C37.4725 38.3557 37.3499 38.5807 37.1756 38.755C36.9514 38.9792 36.6413 39.1183 36.2991 39.1183H6.18034C3.14518 39.1183 0.685028 36.6581 0.685028 33.6229C0.685028 32.537 0.999872 31.5245 1.5444 30.6714V32.6073C1.5444 35.6425 4.00456 38.1027 7.03971 38.1027H37.5186Z" fill="#D83724"/>
<path d="M28.8366 34.2487V30.6061H26.4173L25.3441 30.6714L25.4016 34.0925C25.4016 34.2025 25.5123 34.2781 25.6148 34.2379L26.4171 34.0189L26.984 33.7969C27.0206 33.7825 27.0612 33.7825 27.098 33.7969L28.6234 34.3942C28.7259 34.4343 28.8366 34.3587 28.8366 34.2487Z" fill="#FDCD08"/>
<path d="M26.4172 30.6058V34.0191L25.4586 34.3941C25.3563 34.434 25.2454 34.3589 25.2454 34.2488V30.6058H26.4172Z" fill="#FAAB18"/>
<path d="M8.14667 28.0349C5.1119 28.0349 2.65175 25.5748 2.65175 22.54C2.65175 19.5052 5.1119 17.045 8.14667 17.045H34.681" stroke="black" stroke-width="1.17187" stroke-miterlimit="10" stroke-linecap="round" stroke-linejoin="round"/>
<path d="M15.7031 25.556H34.1341C34.8187 25.556 35.3736 26.111 35.3736 26.7955C35.3736 27.4801 34.8187 28.0349 34.1341 28.0349" stroke="black" stroke-width="1.17187" stroke-miterlimit="10" stroke-linecap="round" stroke-linejoin="round"/>
<path d="M34.1341 19.5239H8.14667C6.48097 19.5239 5.13066 20.8743 5.13066 22.54C5.13066 24.2057 6.48097 25.556 8.14667 25.556H12.9687" stroke="black" stroke-width="1.17187" stroke-miterlimit="10" stroke-linecap="round" stroke-linejoin="round"/>
<path d="M33.6382 19.7269C32.8921 21.5282 32.8921 23.5518 33.6382 25.3531" stroke="black" stroke-width="1.17187" stroke-miterlimit="10" stroke-linecap="round" stroke-linejoin="round"/>
<path d="M35.7495 30.6987C35.0035 32.4999 35.0035 34.5236 35.7495 36.3248" stroke="black" stroke-width="1.17187" stroke-miterlimit="10" stroke-linecap="round" stroke-linejoin="round"/>
<path d="M10.8749 19.5653V23.3663L12.6705 22.6631L14.4661 23.3663V19.5653" stroke="black" stroke-width="1.17187" stroke-miterlimit="10" stroke-linecap="round" stroke-linejoin="round"/>
<path d="M31.9531 36.5459H36.1998C36.8844 36.5459 37.4394 37.1009 37.4394 37.7854C37.4394 38.47 36.8844 39.0248 36.1998 39.0248H6.08086C3.04609 39.0248 0.585938 36.5647 0.585938 33.53C0.585938 30.4952 3.04609 28.035 6.08086 28.035H36.1998C36.8844 28.035 37.4394 28.5899 37.4394 29.2745C37.4394 29.959 36.8844 30.5139 36.1998 30.5139H6.08086C4.41516 30.5139 3.06484 31.8642 3.06484 33.53C3.06484 35.1956 4.41516 36.5459 6.08086 36.5459H29.2187" stroke="black" stroke-width="1.17187" stroke-miterlimit="10" stroke-linecap="round" stroke-linejoin="round"/>
<path d="M25.1461 30.5833V34.3843L26.9417 33.6812L28.7373 34.3843V30.5833" stroke="black" stroke-width="1.17187" stroke-miterlimit="10" stroke-linecap="round" stroke-linejoin="round"/>
<path d="M14.049 2.53994L18.1505 1.1201C18.709 0.926739 19.3163 0.926739 19.8749 1.1201L36.3481 6.82275C36.9263 7.02299 36.9263 7.84088 36.3481 8.04104L29.9263 10.2642" stroke="black" stroke-width="1.17187" stroke-miterlimit="10" stroke-linecap="round" stroke-linejoin="round"/>
<path d="M8.05832 10.2501L1.67723 8.04108C1.09894 7.84084 1.09894 7.02295 1.67723 6.8228L11.4175 3.45092" stroke="black" stroke-width="1.17187" stroke-miterlimit="10" stroke-linecap="round" stroke-linejoin="round"/>
<path d="M36.7818 7.54004V12.1226" stroke="black" stroke-width="1.17187" stroke-miterlimit="10" stroke-linecap="round" stroke-linejoin="round"/>
<path d="M35.6725 15.3225L34.2301 18.878C33.9426 19.5864 34.459 20.3629 35.2175 20.3629H38.346C39.1045 20.3629 39.6209 19.5864 39.3334 18.878L37.8929 15.3272" stroke="black" stroke-width="1.17187" stroke-miterlimit="10" stroke-linecap="round" stroke-linejoin="round"/>
<path d="M38.5547 13.9123C38.5547 12.9239 37.7609 12.1226 36.7818 12.1226C35.8026 12.1226 35.0088 12.9239 35.0088 13.9123C35.0088 14.9005 35.8026 15.7018 36.7818 15.7018C37.7609 15.7018 38.5547 14.9005 38.5547 13.9123Z" stroke="black" stroke-width="1.17187" stroke-miterlimit="10" stroke-linecap="round" stroke-linejoin="round"/>
<path d="M8.12573 16.9692V9.27511C8.12573 8.84972 8.4305 8.48543 8.84917 8.41035C15.5712 7.20496 22.4541 7.20496 29.176 8.41035H29.1761C29.5948 8.48543 29.8996 8.84972 29.8996 9.27511V16.9692" stroke="black" stroke-width="1.17187" stroke-miterlimit="10" stroke-linecap="round" stroke-linejoin="round"/>
<path d="M25.7031 13.8546H29.8995" stroke="black" stroke-width="1.17187" stroke-miterlimit="10" stroke-linecap="round" stroke-linejoin="round"/>
<path d="M8.12573 13.8546H22.9688" stroke="black" stroke-width="1.17187" stroke-miterlimit="10" stroke-linecap="round" stroke-linejoin="round"/>
</g>
</svg>
