<svg width="40" height="40" viewBox="0 0 40 40" fill="none" xmlns="http://www.w3.org/2000/svg">
<g clip-path="url(#clip0_4_307)">
<path fill-rule="evenodd" clip-rule="evenodd" d="M24.5696 27.0176L30.1623 28.0929L35.7723 27.0176C36.2026 27.0176 36.5536 26.6666 36.5536 26.2363V23.7834C36.5536 23.3531 36.2026 23.0022 35.7723 23.0022L29.9973 21.6574L24.5696 23.0022C24.1393 23.0022 23.7883 23.3531 23.7883 23.7834V26.2363C23.7883 26.6666 24.1393 27.0176 24.5696 27.0176Z" fill="#A9B0BB"/>
<path fill-rule="evenodd" clip-rule="evenodd" d="M24.5696 31.8142H35.7723C36.2026 31.8142 36.5536 31.4633 36.5536 31.033V27.7988C36.5536 27.3685 36.2026 27.0176 35.7723 27.0176H24.5696C24.1393 27.0176 23.7883 27.3685 23.7883 27.7988V31.033C23.7883 31.4632 24.1393 31.8142 24.5696 31.8142Z" fill="#7E6451"/>
<path fill-rule="evenodd" clip-rule="evenodd" d="M25.7955 27.0176H27.6771V28.7776C27.6771 28.9927 27.5016 29.1682 27.2865 29.1682H26.1862C25.971 29.1682 25.7955 28.9927 25.7955 28.7776V27.0176ZM32.6647 27.0176H34.5462V28.7776C34.5462 28.9927 34.3708 29.1682 34.1556 29.1682H33.0553C32.8401 29.1682 32.6647 28.9927 32.6647 28.7776V27.0176Z" fill="#937661"/>
<path fill-rule="evenodd" clip-rule="evenodd" d="M24.8451 11.1138H35.4967C35.5988 11.1138 35.682 11.1971 35.682 11.2991V19.5828C35.682 19.6849 35.5987 19.7682 35.4967 19.7682H24.8451C24.7431 19.7682 24.6598 19.6849 24.6598 19.5828V11.2992C24.6598 11.1971 24.7431 11.1138 24.8451 11.1138Z" fill="#7E6451"/>
<path fill-rule="evenodd" clip-rule="evenodd" d="M24.8451 11.1138H35.4967C35.5988 11.1138 35.682 11.1971 35.682 11.2991V12.7299L30.7074 14.7746C30.3504 14.9214 29.9914 14.9214 29.6343 14.7746L24.6598 12.7299V11.2991C24.6598 11.1971 24.7431 11.1138 24.8451 11.1138Z" fill="#937661"/>
<path fill-rule="evenodd" clip-rule="evenodd" d="M29.3303 13.7827H31.0113C31.2264 13.7827 31.4019 13.9581 31.4019 14.1733V15.087C31.4019 15.764 30.8478 16.318 30.1708 16.318C29.4937 16.318 28.9397 15.7641 28.9397 15.087V14.1733C28.9398 13.9581 29.1152 13.7827 29.3303 13.7827Z" fill="#D5A889"/>
<path fill-rule="evenodd" clip-rule="evenodd" d="M24.5696 23.0023H35.7723C36.2026 23.0023 36.5536 22.6513 36.5536 22.221V19.7681C36.5536 19.3378 36.2026 18.9869 35.7723 18.9869H24.5696C24.1393 18.9869 23.7883 19.3378 23.7883 19.7681V22.221C23.7883 22.6513 24.1393 23.0023 24.5696 23.0023Z" fill="#937661"/>
<path fill-rule="evenodd" clip-rule="evenodd" d="M25.7955 18.9869H27.6771V20.7469C27.6771 20.962 27.5016 21.1375 27.2865 21.1375H26.1862C25.971 21.1375 25.7955 20.962 25.7955 20.7469V18.9869ZM32.6647 18.9869H34.5462V20.7469C34.5462 20.962 34.3708 21.1375 34.1556 21.1375H33.0553C32.8401 21.1375 32.6647 20.962 32.6647 20.7469V18.9869Z" fill="#7E6451"/>
<path fill-rule="evenodd" clip-rule="evenodd" d="M30.1708 4.18469C30.979 4.18469 31.6382 3.52555 31.6382 2.71734C31.6382 1.90914 30.979 1.25 30.1708 1.25C29.3626 1.25 28.7035 1.90914 28.7035 2.71734C28.7035 3.52555 29.3627 4.18469 30.1708 4.18469Z" fill="#A9B0BB"/>
<path fill-rule="evenodd" clip-rule="evenodd" d="M21.7479 34.7291H38.5938V31.0329H36.1628H24.9601H21.7479V34.7291Z" fill="#A9B0BB"/>
<path fill-rule="evenodd" clip-rule="evenodd" d="M34.7542 34.4947C35.9293 34.4947 36.8819 35.4473 36.8819 36.6223C36.8819 37.7974 35.9294 38.75 34.7542 38.75C33.5791 38.75 32.6266 37.7974 32.6266 36.6223C32.6266 35.4473 33.5791 34.4947 34.7542 34.4947ZM25.5875 34.4947C26.7626 34.4947 27.7152 35.4473 27.7152 36.6223C27.7152 37.7974 26.7626 38.75 25.5875 38.75C24.4124 38.75 23.4598 37.7974 23.4598 36.6223C23.4598 35.4473 24.4124 34.4947 25.5875 34.4947Z" fill="#CAD0D7"/>
<path fill-rule="evenodd" clip-rule="evenodd" d="M12.0281 11.0899L15.9709 12.1463C16.9249 12.4019 17.4944 13.3884 17.2388 14.3423L15.1166 22.2622C15.073 22.4248 15.0799 22.5762 15.138 22.7342L17.1827 28.2915C17.2306 28.4223 17.2602 28.5552 17.2728 28.6877L18.587 36.9193C18.7241 37.7824 18.1354 38.5932 17.2723 38.7302C16.4092 38.8672 15.5984 38.2786 15.4613 37.4155L14.1584 29.2539L12.3125 24.237C12.1342 23.7525 11.6585 23.464 11.1465 23.5299C10.6345 23.5958 10.2473 23.9953 10.1974 24.5092L9.72392 29.393C9.69782 29.6624 9.60556 29.9095 9.46501 30.1198C7.72556 32.7738 5.92087 35.4074 4.15298 38.045C3.6672 38.7729 2.68321 38.9692 1.95524 38.4834C1.22735 37.9976 1.03103 37.0136 1.51688 36.2856L6.6086 28.6892L7.22743 22.3066C7.34071 21.1382 7.79712 20.029 8.08196 18.8902L9.83227 12.3577C10.0878 11.4038 11.0742 10.8343 12.0281 11.0899Z" fill="#66D4F1"/>
<path fill-rule="evenodd" clip-rule="evenodd" d="M16.7993 15.9821L15.7348 19.9549L15.0178 19.7014C14.4558 19.5024 14.1466 19.1168 13.7799 18.6763L12.03 15.3531L15.0024 14.7608L16.7993 15.9821Z" fill="#4FC0E8"/>
<path d="M16.0526 10.005C17.7864 10.005 19.1919 8.59946 19.1919 6.86568C19.1919 5.13189 17.7864 3.72638 16.0526 3.72638C14.3188 3.72638 12.9133 5.13189 12.9133 6.86568C12.9133 8.59946 14.3188 10.005 16.0526 10.005Z" fill="#EFC7A4"/>
<path fill-rule="evenodd" clip-rule="evenodd" d="M18.4237 1.25H13.6815C13.4664 1.25 13.2909 1.42547 13.2909 1.64062V5.3525H18.8143V1.64062C18.8143 1.42547 18.6389 1.25 18.4237 1.25Z" fill="#F76C82"/>
<path fill-rule="evenodd" clip-rule="evenodd" d="M10.8938 13.988L13.3819 12.9654L16.6229 16.5561L21.3215 18.2559C22.0347 18.4626 22.4454 19.2084 22.2387 19.9216C22.032 20.6349 21.2862 21.0455 20.5729 20.8388L15.2785 18.9649C14.8962 18.8296 14.6597 18.5122 14.3804 18.1765L10.8938 13.988Z" fill="#66D4F1"/>
<path fill-rule="evenodd" clip-rule="evenodd" d="M13.8381 1.79674H18.2679V4.38517H13.8381V1.79674ZM16.0531 9.45752C14.6234 9.45752 13.4603 8.29509 13.4603 6.86541C13.4603 6.36689 13.5992 5.89267 13.8624 5.47877H18.2437C18.5069 5.89275 18.6451 6.36697 18.6451 6.86541C18.6452 8.29509 17.482 9.45752 16.0531 9.45752ZM16.0531 10.5516C18.0853 10.5516 19.7388 8.89728 19.7388 6.86549C19.7388 6.25783 19.5936 5.67408 19.3165 5.14908C19.3456 5.08252 19.3617 5.009 19.3617 4.93181V1.24978C19.3617 0.947595 19.1165 0.703142 18.8147 0.703142H13.2916C12.989 0.703142 12.7445 0.947595 12.7445 1.24978V4.93181C12.7445 5.009 12.76 5.08252 12.7898 5.14908C12.5119 5.674 12.3663 6.25705 12.3663 6.86549C12.3662 8.89728 14.0205 10.5516 16.0531 10.5516ZM22.139 33.9476V31.5794H38.2032V33.9476H22.139ZM36.3349 36.6217C36.3349 37.4936 35.6265 38.2031 34.7546 38.2031C33.8829 38.2031 33.1735 37.4936 33.1735 36.6217C33.1735 35.7504 33.883 35.0413 34.7546 35.0413C35.6266 35.0412 36.3349 35.7503 36.3349 36.6217ZM27.1688 36.6217C27.1688 37.4936 26.4592 38.2031 25.5873 38.2031C24.7164 38.2031 24.0069 37.4936 24.0069 36.6217C24.0069 35.7504 24.7164 35.0413 25.5873 35.0413C26.4592 35.0412 27.1688 35.7503 27.1688 36.6217ZM24.3352 30.2512V27.7981C24.3352 27.6694 24.4407 27.5638 24.5697 27.5638H25.2491V29.1678C25.2491 29.4699 25.4939 29.7148 25.7961 29.7148H27.6776C27.9798 29.7148 28.2242 29.4699 28.2242 29.1678V27.5638H32.1181V29.1678C32.1181 29.4699 32.3633 29.7148 32.6647 29.7148H34.5469C34.8483 29.7148 35.0935 29.4699 35.0935 29.1678V27.5638H35.7725C35.9016 27.5638 36.007 27.6694 36.007 27.7981V30.2512C36.007 30.3802 35.9016 30.4857 35.7725 30.4857H24.5697C24.4406 30.4856 24.3352 30.3802 24.3352 30.2512ZM24.3352 22.2209V19.7678C24.3352 19.6391 24.4407 19.5332 24.5697 19.5332H25.2491V21.1375C25.2491 21.4389 25.4939 21.6842 25.7961 21.6842H27.6776C27.9798 21.6842 28.2242 21.4389 28.2242 21.1375V19.5332H32.1181V21.1375C32.1181 21.4389 32.3633 21.6842 32.6647 21.6842H34.5469C34.8483 21.6842 35.0935 21.4389 35.0935 21.1375V19.5332H35.7725C35.9016 19.5332 36.007 19.6391 36.007 19.7678V22.2209C36.007 22.3499 35.9016 22.455 35.7725 22.455H24.5697C24.4406 22.4551 24.3352 22.3499 24.3352 22.2209ZM29.4866 15.0865V14.3295H30.8552V15.0865C30.8552 15.4637 30.5482 15.771 30.171 15.771C29.7939 15.771 29.4866 15.4637 29.4866 15.0865ZM26.3427 19.5332V20.5905H27.1305V19.5332H26.3427ZM25.2071 18.4395H35.135V13.5458L31.9492 14.8553V15.0865C31.9492 16.0669 31.1515 16.8646 30.1711 16.8646C29.1907 16.8646 28.3929 16.0669 28.3929 15.0865V14.8553L25.2071 13.5458V18.4395ZM33.2117 19.5332V20.5905H33.9999V19.5332H33.2117ZM26.3427 27.5638V28.6208H27.1305V27.5638H26.3427ZM24.5697 26.4702C24.4407 26.4702 24.3352 26.3654 24.3352 26.2356V23.7825C24.3352 23.6538 24.4407 23.5491 24.5697 23.5491H35.7725C35.9016 23.5491 36.007 23.6538 36.007 23.7825V26.2356C36.007 26.3654 35.9016 26.4702 35.7725 26.4702H24.5697ZM33.2117 27.5638V28.6208H33.9999V27.5638H33.2117ZM35.135 11.6599V12.3632L31.9389 13.677C31.8897 13.4256 31.668 13.2359 31.4022 13.2359H28.9399C28.6741 13.2359 28.4531 13.4256 28.4038 13.677L25.2071 12.3632V11.6599H35.135ZM31.3967 10.5663H28.9462V8.87634C28.9462 8.83408 28.9826 8.79697 29.0249 8.79697H31.317C31.3592 8.79697 31.3967 8.83408 31.3967 8.87634V10.5663ZM22.7639 20.0732C22.6529 20.4574 22.429 20.7787 22.139 21.0128V30.4856H23.2639C23.2499 30.4092 23.2415 30.3309 23.2415 30.2511V27.798C23.2415 27.5061 23.3374 27.2366 23.4985 27.0168C23.3374 26.7974 23.2415 26.5279 23.2415 26.2356V23.7825C23.2415 23.491 23.3374 23.2219 23.4985 23.002C23.3374 22.7826 23.2415 22.5131 23.2415 22.2209V19.7678C23.2415 19.1957 23.6054 18.7094 24.1131 18.5223V11.2989C24.1131 10.8953 24.4414 10.5663 24.8454 10.5663H27.8522V8.87634C27.8522 8.2297 28.3782 7.70291 29.0249 7.70291H31.3171C31.9641 7.70291 32.4909 8.2297 32.4909 8.87634V10.5663H35.4969C35.901 10.5663 36.2288 10.8953 36.2288 11.2989V18.5223C36.7369 18.7094 37.1008 19.1957 37.1008 19.7678V22.2209C37.1008 22.5131 37.0049 22.7826 36.8446 23.002C37.0049 23.2219 37.1008 23.491 37.1008 23.7825V26.2356C37.1008 26.5279 37.0049 26.7974 36.8446 27.0168C37.0049 27.2367 37.1008 27.5061 37.1008 27.798V30.2511C37.1008 30.3309 37.0924 30.4092 37.0792 30.4856H38.2033V12.7631C38.2033 8.33408 34.5999 4.73103 30.1712 4.73103C25.7421 4.73103 22.1391 8.33408 22.1391 12.7631V18.0763C22.3266 18.2289 22.4842 18.4171 22.6049 18.634C22.8485 19.077 22.9048 19.588 22.7639 20.0732ZM20.7391 20.317L15.4608 18.4491C15.2545 18.3756 15.0866 18.1715 14.8733 17.9138L12.593 15.174C12.4 14.942 12.0556 14.9108 11.8231 15.1038C11.5905 15.2967 11.5592 15.642 11.7522 15.8739L13.9601 18.5256L14.0295 18.6101C14.299 18.9366 14.6038 19.306 15.096 19.4803L15.2787 19.5442L14.524 22.3598C14.4949 22.4686 14.5008 22.584 14.5398 22.6895L16.6694 28.4795C16.6999 28.563 16.7201 28.6505 16.7285 28.7395C16.7292 28.7505 16.7311 28.7623 16.7326 28.7733L18.0468 37.0042C18.0902 37.2781 18.0248 37.5513 17.8623 37.7755C17.6998 37.999 17.4601 38.1464 17.1866 38.1894C16.9131 38.2324 16.6395 38.167 16.416 38.0045C16.1918 37.842 16.0451 37.602 16.0013 37.3284L14.6984 29.167C14.6928 29.1328 14.6844 29.0983 14.6719 29.0645L12.8257 24.0476C12.5599 23.3249 11.8405 22.8888 11.0766 22.9874C10.3134 23.0859 9.72744 23.6895 9.65314 24.456L9.17963 29.3395C9.16306 29.5123 9.10611 29.6725 9.0076 29.8192C7.84994 31.5867 6.64197 33.3749 5.474 35.1045C4.89135 35.9677 4.28806 36.8606 3.69838 37.7403C3.54439 37.9718 3.31017 38.1281 3.03814 38.1825C2.76611 38.2366 2.48963 38.1818 2.25916 38.0278C2.02869 37.8741 1.87174 37.6395 1.81689 37.3679C1.76322 37.0959 1.81799 36.8194 1.97096 36.5896L7.06322 28.9928C7.11322 28.9178 7.14447 28.8311 7.15291 28.7413L7.77158 22.3591C7.84221 21.6342 8.05611 20.9279 8.2826 20.1803C8.3958 19.8053 8.51306 19.4178 8.61158 19.0271L10.3607 12.4992C10.4467 12.1787 10.653 11.9099 10.9419 11.7438C11.2309 11.5765 11.5661 11.532 11.8867 11.6177L15.8294 12.6738C16.4929 12.8521 16.8881 13.5367 16.7106 14.2006L16.3724 15.4622L15.0114 13.9538C14.8092 13.7296 14.463 13.7116 14.2387 13.9138C14.0145 14.116 13.9964 14.4623 14.199 14.6865L16.3084 17.0231L21.1356 18.7692L21.1694 18.7803C21.3738 18.8395 21.5436 18.9755 21.6458 19.1622C21.7491 19.3489 21.773 19.564 21.7138 19.7685C21.5931 20.1872 21.1578 20.4303 20.7391 20.317ZM29.2506 2.71689C29.2506 2.20924 29.6638 1.79674 30.1711 1.79674C30.6788 1.79674 31.0913 2.20924 31.0913 2.71689C31.0913 3.22494 30.6788 3.63744 30.1711 3.63744C29.6638 3.63736 29.2506 3.22494 29.2506 2.71689ZM31.8703 3.79658C32.0695 3.48408 32.1853 3.11392 32.1853 2.71689C32.1853 1.60595 31.2821 0.703064 30.1712 0.703064C29.061 0.703064 28.157 1.60595 28.157 2.71689C28.157 3.11392 28.2728 3.48408 28.4717 3.79658C24.2492 4.5951 21.0454 8.31166 21.0454 12.7631V17.5742L17.3023 16.2195L17.7673 14.4832C18.1014 13.2374 17.3592 11.9514 16.1127 11.6177L12.1703 10.5615C11.5674 10.3998 10.9377 10.4832 10.3955 10.796C9.85322 11.1092 9.4658 11.6129 9.304 12.2154L7.55377 18.7484C7.55299 18.7513 7.55228 18.7539 7.55158 18.7568C7.46002 19.1233 7.34611 19.4998 7.2358 19.863C7.00385 20.6288 6.76416 21.4203 6.68361 22.2529L6.07814 28.4992L1.06275 35.982C0.746268 36.4556 0.633768 37.0235 0.744784 37.582C0.856502 38.1407 1.17822 38.622 1.65244 38.9374C2.00642 39.1742 2.41416 39.2969 2.83033 39.2969C2.97111 39.2969 3.11189 39.2837 3.25236 39.2553C3.81041 39.1436 4.29236 38.8219 4.60775 38.3492C5.19556 37.4717 5.79846 36.5798 6.3808 35.7163C7.55096 33.9844 8.76041 32.193 9.92025 30.4233C10.114 30.1325 10.2345 29.7947 10.2688 29.4454L10.7423 24.5616C10.7673 24.3024 10.9581 24.1053 11.2165 24.0719C11.476 24.0381 11.7095 24.181 11.7995 24.4256L13.6274 29.392L14.9221 37.5006C15.0111 38.0624 15.3133 38.5561 15.7735 38.8899C16.2338 39.224 16.797 39.3593 17.3587 39.2703C17.9204 39.181 18.4134 38.8778 18.7479 38.4178C19.082 37.9576 19.2166 37.3951 19.1277 36.8327L17.8156 28.6164C17.798 28.4422 17.7572 28.2687 17.6962 28.1021L15.6261 22.475L16.3135 19.9109L20.3906 21.3537L20.4211 21.364C20.5961 21.4147 20.7725 21.439 20.9468 21.439C20.9795 21.439 21.0123 21.4364 21.0453 21.4342V34.4942C21.0453 34.796 21.2898 35.0413 21.592 35.0413H23.4319C23.1062 35.4842 22.9131 36.0313 22.9131 36.6217C22.9131 38.0966 24.1131 39.2968 25.5872 39.2968C27.0624 39.2968 28.2624 38.0966 28.2624 36.6217C28.2624 36.0313 28.0694 35.4842 27.7437 35.0413H32.5992C32.2735 35.4842 32.0797 36.0313 32.0797 36.6217C32.0797 38.0966 33.2796 39.2968 34.7545 39.2968C36.2297 39.2968 37.4289 38.0966 37.4289 36.6217C37.4289 36.0313 37.236 35.4842 36.9099 35.0413H38.7498C39.0524 35.0413 39.2968 34.796 39.2968 34.4942V12.7631C39.2969 8.31166 36.0931 4.59502 31.8703 3.79658Z" fill="black"/>
</g>
<defs>
<clipPath id="clip0_4_307">
<rect width="40" height="40" fill="white"/>
</clipPath>
</defs>
</svg>
