<svg width="34" height="34" viewBox="0 0 34 34" fill="none" xmlns="http://www.w3.org/2000/svg">
<path d="M30.125 9.5H3.87497C3.52951 9.5 3.24997 9.77954 3.24997 10.125V18.875H3.9249C4.22989 16.7586 6.05061 15.125 8.24997 15.125H9.49997C11.6993 15.125 13.5201 16.7586 13.825 18.875H15.125C16.0594 18.875 16.8388 19.5458 16.9792 20.4698L18.7085 32H30.125C30.4704 32 30.75 31.7205 30.75 31.375V10.125C30.75 9.77954 30.4704 9.5 30.125 9.5Z" fill="#4DB6AC"/>
<path d="M33.8372 7.41138L31.3372 0.536377C31.2474 0.289185 31.0131 0.125 30.75 0.125H3.25C2.98694 0.125 2.75257 0.289185 2.66285 0.536377L0.162846 7.41138C0.0926553 7.60303 0.121342 7.81665 0.237919 7.98328C0.355107 8.15051 0.546147 8.25 0.750004 8.25H33.25C33.4539 8.25 33.6449 8.15051 33.7621 7.98328C33.8787 7.81665 33.9074 7.60303 33.8372 7.41138Z" fill="#00838F"/>
<path d="M25.75 15.2953H17C16.6545 15.2953 16.375 15.5748 16.375 15.9203V19.3516C16.6897 19.6332 16.911 20.0206 16.9792 20.4698L18.7085 32H25.75C26.0954 32 26.375 31.7205 26.375 31.375V15.9203C26.375 15.5748 26.0954 15.2953 25.75 15.2953Z" fill="#B71C1C"/>
<path d="M33.25 30.125H18.4273L18.8542 32.9717C18.9003 33.2804 18.8604 33.5882 18.7584 33.875H33.25C33.5954 33.875 33.875 33.5955 33.875 33.25V30.75C33.875 30.4045 33.5954 30.125 33.25 30.125Z" fill="#637E77"/>
<path d="M3.84918 13.25C2.48505 13.25 1.37497 12.1288 1.37497 10.75V7.625H7.61429L7.62497 10.75C7.62497 12.1288 6.51489 13.25 5.15076 13.25H3.84918Z" fill="#B71C1C"/>
<path d="M16.3492 13.25C14.985 13.25 13.875 12.1288 13.875 10.75V7.625H20.1143L20.125 10.75C20.125 12.1288 19.0149 13.25 17.6508 13.25H16.3492Z" fill="#B71C1C"/>
<path d="M28.8492 13.25C27.485 13.25 26.375 12.1288 26.375 10.75V7.625H32.6143L32.625 10.75C32.625 12.1288 31.5149 13.25 30.1508 13.25H28.8492Z" fill="#B71C1C"/>
<path d="M10.0992 13.25C8.73505 13.25 7.62497 12.1288 7.62497 10.75V7.625H13.8643L13.875 10.75C13.875 12.1288 12.7649 13.25 11.4008 13.25H10.0992Z" fill="#FBC02D"/>
<path d="M22.5992 13.25C21.235 13.25 20.125 12.1288 20.125 10.75V7.625H26.3643L26.375 10.75C26.375 12.1288 25.2649 13.25 23.9008 13.25H22.5992Z" fill="#FBC02D"/>
<path d="M0.75 33.25L2.625 20.75H15.125L17 33.25H0.75Z" fill="#FBC02D"/>
<path d="M33.25 30.125H30.75V13.8118C32.1746 13.5214 33.25 12.259 33.25 10.75V8.25C33.4539 8.25 33.6449 8.15051 33.7621 7.98328C33.8787 7.81665 33.9073 7.60303 33.8372 7.41138L31.3372 0.536377C31.2474 0.289185 31.0131 0.125 30.75 0.125H3.25C2.98694 0.125 2.75256 0.289185 2.66284 0.536377L0.162842 7.41138C0.0926516 7.60303 0.121338 7.81665 0.237915 7.98328C0.355103 8.15051 0.546143 8.25 0.75 8.25V10.75C0.75 12.259 1.82544 13.5214 3.25 13.8118V18.875C3.25 19.2187 3.53126 19.5 3.875 19.5C4.21874 19.5 4.5 19.2187 4.5 18.875V13.875H5.125C6.15215 13.875 7.05611 13.3702 7.62546 12.6025C8.19312 13.3713 9.09755 13.875 10.125 13.875H11.375C12.4044 13.875 13.3087 13.368 13.8762 12.5963C14.4434 13.3674 15.3462 13.875 16.375 13.875H17.625C18.6526 13.875 19.5573 13.37 20.1267 12.6015C20.6956 13.3695 21.598 13.875 22.625 13.875H23.875C24.9008 13.875 25.8049 13.3714 26.375 12.6057V12.5937C26.9422 13.366 27.8452 13.875 28.875 13.875H29.5V30.125H26.375V15.75C26.375 15.4063 26.0937 15.125 25.75 15.125H17C16.6563 15.125 16.375 15.4063 16.375 15.75V20.5938C16.375 20.9375 16.6563 21.2188 17 21.2188C17.3437 21.2188 17.625 20.9375 17.625 20.5938V16.375H25.125V30.125H18.5253C18.1798 30.125 17.9003 30.4045 17.9003 30.75C17.9003 31.0955 18.1798 31.375 18.5253 31.375H32.625V32.625H18.875C18.5295 32.625 18.25 32.9045 18.25 33.25C18.25 33.5955 18.5295 33.875 18.875 33.875H33.25C33.5955 33.875 33.875 33.5955 33.875 33.25V30.75C33.875 30.4045 33.5955 30.125 33.25 30.125ZM3.68762 1.375H30.3124L32.3577 7H1.64233L3.68762 1.375ZM7 10.75C7 11.7839 6.15894 12.625 5.125 12.625H3.875C2.84106 12.625 2 11.7839 2 10.75V8.25H7V10.75ZM13.25 10.75C13.25 11.7839 12.4089 12.625 11.375 12.625H10.125C9.09107 12.625 8.25 11.7839 8.25 10.75V8.25H13.25V10.75ZM19.5 10.75C19.5 11.7839 18.6589 12.625 17.625 12.625H16.375C15.3411 12.625 14.5 11.7839 14.5 10.75V8.25H19.5V10.75ZM25.75 10.75C25.75 11.7839 24.9089 12.625 23.875 12.625H22.625C21.5911 12.625 20.75 11.7839 20.75 10.75V8.25H25.75V10.75ZM27 10.75V8.25H32V10.75C32 11.7839 31.1589 12.625 30.125 12.625H28.875C27.8411 12.625 27 11.7839 27 10.75ZM23.25 22.625C22.9045 22.625 22.625 22.3455 22.625 22V19.5C22.625 19.1545 22.9045 18.875 23.25 18.875C23.5955 18.875 23.875 19.1545 23.875 19.5V22C23.875 22.3455 23.5955 22.625 23.25 22.625ZM15.125 20.125H12.625V19.5C12.625 17.777 11.223 16.375 9.5 16.375H8.25C6.52698 16.375 5.125 17.777 5.125 19.5V20.125H2.625C2.31555 20.125 2.0531 20.3514 2.00671 20.6572L0.131714 33.1572C0.104859 33.3373 0.157959 33.5198 0.276367 33.6577C0.395386 33.7957 0.568115 33.875 0.75 33.875H17C17.1819 33.875 17.3546 33.7957 17.4736 33.6577C17.592 33.5198 17.6451 33.3373 17.6183 33.1572L15.7433 20.6572C15.6969 20.3514 15.4344 20.125 15.125 20.125ZM6.375 19.5C6.375 18.4661 7.21606 17.625 8.25 17.625H9.5C10.5339 17.625 11.375 18.4661 11.375 19.5V20.125H6.375V19.5ZM1.47571 32.625L3.16333 21.375H5.125V23.25C5.125 23.5955 5.40454 23.875 5.75 23.875C6.09546 23.875 6.375 23.5955 6.375 23.25V21.375H11.375V23.25C11.375 23.5955 11.6545 23.875 12 23.875C12.3455 23.875 12.625 23.5955 12.625 23.25V21.375H14.5867L16.2743 32.625H1.47571Z" fill="black"/>
</svg>
