<svg width="40" height="40" viewBox="0 0 40 40" fill="none" xmlns="http://www.w3.org/2000/svg">
<path d="M24.0715 21.506H28.2548V25.3416H24.0715V21.506Z" fill="#DB9E82"/>
<path d="M20.4639 36.5916C21.3631 36.5916 22.0938 35.8608 22.0938 34.9638C22.0938 34.0669 21.3631 33.3295 20.4639 33.3295C19.5648 33.3295 18.8318 34.0625 18.8318 34.9638C18.8318 35.8652 19.5648 36.5916 20.4639 36.5916Z" fill="#E8ECF9"/>
<path d="M28.7265 36.5916C29.6256 36.5916 30.3586 35.8608 30.3586 34.9638C30.3586 34.0669 29.6255 33.3295 28.7265 33.3295C27.8274 33.3295 27.0944 34.0625 27.0944 34.9638C27.0944 35.8652 27.8274 36.5916 28.7265 36.5916Z" fill="#E8ECF9"/>
<path d="M12.2014 36.5916C13.1005 36.5916 13.8335 35.8608 13.8335 34.9638C13.8335 34.0669 13.1005 33.3295 12.2014 33.3295C11.3023 33.3295 10.5693 34.0625 10.5693 34.9638C10.5693 35.8652 11.3023 36.5916 12.2014 36.5916Z" fill="#E8ECF9"/>
<path d="M21.4184 26.4688H25.6017V30.1781H21.4184V26.4688Z" fill="#DB9E82"/>
<path d="M24.9816 10.2337V12.9289H29.5171V10.2337C28.835 10.577 28.0644 10.7697 27.2494 10.7697C26.4344 10.7697 25.6659 10.577 24.9816 10.2337Z" fill="#7B849B"/>
<path d="M6.10469 3.63885C4.99516 3.63885 4.09164 4.54237 4.09164 5.65409C4.09164 6.76581 4.99516 7.66495 6.10469 7.66495H22.5722C22.3153 7.05815 22.1736 6.39159 22.1736 5.69393C22.1736 4.96096 22.3309 4.26776 22.6098 3.63885H6.10469Z" fill="#7B849B"/>
<path d="M12.2014 32.2023C13.7228 32.2023 14.9608 33.4402 14.9608 34.9638C14.9608 36.4874 13.7228 37.721 12.2014 37.721C10.68 37.721 9.44203 36.4831 9.44203 34.9638C9.44203 33.4446 10.68 32.2023 12.2014 32.2023ZM20.464 32.2023C21.9854 32.2023 23.2234 33.4402 23.2234 34.9638C23.2234 36.4874 21.9854 37.721 20.464 37.721C18.9426 37.721 17.7024 36.4831 17.7024 34.9638C17.7024 33.4446 18.9426 32.2023 20.464 32.2023ZM28.7266 32.2023C30.248 32.2023 31.4859 33.4402 31.4859 34.9638C31.4859 36.4874 30.248 37.721 28.7266 37.721C27.2052 37.721 25.9672 36.4831 25.9672 34.9638C25.9672 33.4446 27.2052 32.2023 28.7266 32.2023ZM4.09164 34.9638C4.09164 36.9769 5.73039 38.6179 7.74571 38.6179H33.18C35.1975 38.6179 36.8363 36.9769 36.8363 34.9638C36.8363 32.9508 35.1975 31.3076 33.18 31.3076H7.74571C5.73047 31.3076 4.09164 32.9463 4.09164 34.9638Z" fill="#475066"/>
<path d="M26.7289 26.4688H30.91V30.1781H26.7289V26.4688Z" fill="#DB9E82"/>
<path d="M27.2494 1.74759C25.0724 1.74759 23.303 3.51704 23.303 5.69392C23.303 7.87079 25.0725 9.64251 27.2494 9.64251C29.4262 9.64251 31.198 7.87087 31.198 5.69392C31.198 3.51696 29.4263 1.74759 27.2494 1.74759Z" fill="#475066"/>
<path d="M11.3421 15.1877C13.5412 15.1877 15.3306 16.9793 15.3306 19.1806C15.3306 21.3819 13.5412 23.1691 11.3421 23.1691C9.14305 23.1691 7.35149 21.3797 7.35149 19.1806C7.35149 16.9816 9.14305 15.1877 11.3421 15.1877ZM3.21469 20.093L4.22454 20.3188C4.43493 20.3676 4.60102 20.5314 4.64751 20.7418C4.81805 21.4726 5.10594 22.168 5.50454 22.8058C5.61751 22.9896 5.61751 23.2221 5.50235 23.4059L4.95094 24.2807C4.87563 24.4003 4.82251 24.5509 4.87118 24.5996L5.91868 25.6493C5.96743 25.698 6.12016 25.6448 6.23977 25.5718L7.11673 25.0181C7.20977 24.9605 7.31383 24.9318 7.4179 24.9318C7.52196 24.9318 7.62384 24.9605 7.71462 25.0181C8.35243 25.4145 9.04555 25.7024 9.7786 25.873C9.98899 25.9239 10.1529 26.0878 10.1994 26.2982L10.4297 27.3059C10.4563 27.4188 10.5227 27.5893 10.6024 27.5893H12.0817C12.1504 27.5893 12.2213 27.4431 12.2523 27.3059L12.4826 26.2982C12.5313 26.0878 12.693 25.9239 12.9034 25.873C13.6341 25.7024 14.3295 25.4145 14.9695 25.0181C15.1534 24.903 15.3859 24.9052 15.5675 25.0204L16.4445 25.5718C16.5618 25.6449 16.7146 25.698 16.7656 25.6493L17.8131 24.6018C17.8618 24.553 17.8086 24.4003 17.7333 24.2785L17.1819 23.406C17.0667 23.2222 17.0667 22.9897 17.1797 22.8059C17.5761 22.168 17.864 21.4727 18.0367 20.7397C18.0855 20.5315 18.2516 20.3677 18.462 20.3189L19.4696 20.093C19.6069 20.0598 19.7509 19.9912 19.7509 19.9203V18.4387C19.7509 18.3612 19.5826 18.2926 19.4696 18.2682L18.4598 18.0379C18.2494 17.9891 18.0855 17.8253 18.0368 17.6149C17.8641 16.8841 17.5762 16.1887 17.1798 15.5532C17.0668 15.3694 17.0668 15.1391 17.182 14.9552L17.7334 14.0761C17.8087 13.9587 17.8618 13.8037 17.8131 13.755L16.7656 12.7098C16.7147 12.6588 16.5619 12.7119 16.4445 12.7873L15.5676 13.3409C15.386 13.456 15.1534 13.456 14.9696 13.3409C14.3296 12.9423 13.6364 12.6544 12.9056 12.486C12.6952 12.4373 12.5313 12.2712 12.4827 12.0608L12.2524 11.0509C12.2213 10.9159 12.1505 10.7697 12.0818 10.7697H10.6025C10.5227 10.7697 10.4563 10.938 10.4298 11.0509L10.1995 12.0608C10.153 12.2712 9.98907 12.4373 9.77649 12.486C9.04571 12.6566 8.35251 12.9423 7.71696 13.3409C7.53313 13.456 7.30063 13.456 7.1168 13.3409L6.23985 12.7873C6.12024 12.7119 5.96743 12.6588 5.91876 12.7098L4.87126 13.755C4.82251 13.8059 4.87571 13.9566 4.95102 14.0761L5.50243 14.9552C5.61759 15.1391 5.61759 15.3716 5.50243 15.5554C5.10602 16.1909 4.81813 16.8841 4.64759 17.6149C4.6011 17.8253 4.43501 17.9892 4.22462 18.0379L3.21477 18.2682C3.10407 18.2926 2.93134 18.3612 2.93134 18.4387V19.9203C2.93134 19.989 3.07751 20.0598 3.21477 20.093L3.21469 20.093Z" fill="#7B849B"/>
<path d="M34.8232 3.63885H31.8889C32.1702 4.26776 32.3252 4.96096 32.3252 5.69393C32.3252 6.39151 32.1834 7.05807 31.9266 7.66495H34.8232C35.9327 7.66495 36.8363 6.76362 36.8363 5.65409C36.8363 4.54456 35.9327 3.63885 34.8232 3.63885Z" fill="#7B849B"/>
<path d="M11.3421 22.0396C12.9189 22.0396 14.2034 20.7574 14.2034 19.1806C14.2034 17.6039 12.9189 16.3172 11.3421 16.3172C9.76532 16.3172 8.48087 17.6017 8.48087 19.1806C8.48087 20.7596 9.76313 22.0396 11.3421 22.0396Z" fill="#E8ECF9"/>
<path d="M2.93113 18.4388C2.93113 18.3613 3.10387 18.2926 3.21457 18.2682L4.22442 18.0379C4.43481 17.9891 4.6009 17.8253 4.64738 17.6149C4.81793 16.8841 5.10582 16.1909 5.50223 15.5554C5.61738 15.3716 5.61738 15.1391 5.50223 14.9552L4.95082 14.0761C4.87551 13.9565 4.82238 13.8059 4.87106 13.755L5.91856 12.7098C5.96731 12.6588 6.12004 12.712 6.23965 12.7873L7.1166 13.3409C7.30043 13.456 7.53293 13.456 7.71676 13.3409C8.35231 12.9423 9.04551 12.6566 9.77629 12.486C9.98887 12.4373 10.1528 12.2712 10.1993 12.0608L10.4296 11.0509C10.4561 10.938 10.5226 10.7697 10.6023 10.7697H12.0816C12.1503 10.7697 12.2211 10.9159 12.2522 11.0509L12.4825 12.0608C12.5312 12.2712 12.695 12.4373 12.9054 12.486C13.6362 12.6544 14.3294 12.9423 14.9694 13.3409C15.1532 13.456 15.3857 13.456 15.5674 13.3409L16.4443 12.7873C16.5617 12.712 16.7145 12.6588 16.7654 12.7098L17.8129 13.755C17.8617 13.8038 17.8085 13.9588 17.7332 14.0761L17.1818 14.9552C17.0666 15.1391 17.0666 15.3694 17.1796 15.5532C17.576 16.1888 17.8639 16.8841 18.0366 17.6149C18.0854 17.8253 18.2492 17.9892 18.4596 18.0379L19.4694 18.2682C19.5824 18.2926 19.7507 18.3613 19.7507 18.4388V19.9203C19.7507 19.9912 19.6067 20.0599 19.4694 20.0931L18.4618 20.3189C18.2514 20.3677 18.0853 20.5315 18.0365 20.7397C17.8638 21.4727 17.5759 22.1681 17.1795 22.8059C17.0665 22.9897 17.0665 23.2222 17.1817 23.406L17.7331 24.2785C17.8084 24.4003 17.8615 24.5531 17.8129 24.6018L16.7654 25.6493C16.7144 25.6981 16.5616 25.6449 16.4443 25.5718L15.5673 25.0204C15.3857 24.9052 15.1532 24.9031 14.9693 25.0181C14.3293 25.4145 13.6339 25.7024 12.9032 25.873C12.6928 25.9239 12.5311 26.0878 12.4824 26.2982L12.2521 27.3059C12.2211 27.4431 12.1502 27.5893 12.0815 27.5893H10.6022C10.5225 27.5893 10.4561 27.4188 10.4295 27.3059L10.1992 26.2982C10.1527 26.0878 9.98879 25.9239 9.7784 25.873C9.04535 25.7024 8.35223 25.4145 7.71442 25.0181C7.62363 24.9606 7.52176 24.9318 7.4177 24.9318C7.31363 24.9318 7.20949 24.9606 7.11653 25.0181L6.23957 25.5718C6.11996 25.6449 5.96715 25.6981 5.91848 25.6493L4.87098 24.5996C4.82223 24.5509 4.87543 24.4003 4.95074 24.2807L5.50215 23.4059C5.61731 23.2221 5.61731 22.9896 5.50434 22.8058C5.10574 22.168 4.81785 21.4727 4.64731 20.7418C4.60082 20.5314 4.43473 20.3675 4.22434 20.3188L3.21449 20.093C3.07723 20.0598 2.93106 19.9889 2.93106 19.9202V18.4387L2.93113 18.4388ZM1.80168 18.4388V19.9203C1.80168 20.5404 2.24684 21.0276 2.96434 21.1915L3.63754 21.3443C3.81028 21.9555 4.05168 22.5424 4.36395 23.096L3.99637 23.6784C3.60215 24.303 3.63317 24.9629 4.07387 25.3991L5.12137 26.4488C5.55762 26.8851 6.21535 26.9161 6.83988 26.5263L7.42676 26.1565C7.97817 26.4688 8.56504 26.7124 9.17629 26.8829L9.3291 27.5561C9.49301 28.2714 9.9802 28.7166 10.6025 28.7166H12.0818C12.704 28.7166 13.1913 28.2714 13.3529 27.5561L13.5057 26.8829C14.117 26.7124 14.7038 26.4688 15.2575 26.1565L15.8443 26.5285C16.4666 26.9161 17.1243 26.8851 17.5629 26.4488L18.6104 25.3991C19.0489 24.9628 19.0776 24.3028 18.6901 23.6806L18.3203 23.0937C18.6304 22.5401 18.8739 21.9554 19.0467 21.3441L19.7177 21.1913C20.4352 21.0297 20.8804 20.5425 20.8804 19.9202V18.4386C20.8804 17.8163 20.4352 17.3291 19.7199 17.1674L19.0467 17.0124C18.8739 16.4012 18.6304 15.8166 18.3203 15.2629L18.6901 14.676C19.0777 14.0538 19.0489 13.396 18.6104 12.9575L17.5629 11.9123C17.1222 11.4716 16.4644 11.4406 15.8422 11.8325L15.2575 12.2024C14.7039 11.8901 14.117 11.6465 13.5058 11.4759L13.353 10.8005C13.1891 10.0852 12.7019 9.64227 12.0818 9.64227H10.6025C9.98028 9.64227 9.49301 10.0852 9.33137 10.8005L9.17637 11.4759C8.56512 11.6465 7.97832 11.8901 7.42465 12.2002L6.84004 11.8325C6.21996 11.4405 5.56004 11.4715 5.12153 11.9123L4.07621 12.9575C3.63332 13.396 3.60231 14.0537 3.99426 14.676L4.3641 15.2629C4.05184 15.8165 3.81043 16.4012 3.6377 17.0124L2.96449 17.1674C2.24699 17.3313 1.80184 17.8185 1.80184 18.4386L1.80168 18.4388Z" fill="#030403"/>
<path d="M12.2014 33.3295C13.1005 33.3295 13.8335 34.0625 13.8335 34.9639C13.8335 35.8652 13.1004 36.5916 12.2014 36.5916C11.3023 36.5916 10.5693 35.8608 10.5693 34.9639C10.5693 34.0669 11.3023 33.3295 12.2014 33.3295ZM12.2014 37.721C13.7228 37.721 14.9608 36.483 14.9608 34.9638C14.9608 33.4446 13.7228 32.2022 12.2014 32.2022C10.68 32.2022 9.442 33.4402 9.442 34.9638C9.442 36.4874 10.68 37.721 12.2014 37.721Z" fill="#030403"/>
<path d="M20.4639 33.3295C21.363 33.3295 22.0938 34.0625 22.0938 34.9639C22.0938 35.8652 21.363 36.5916 20.4639 36.5916C19.5647 36.5916 18.8318 35.8608 18.8318 34.9639C18.8318 34.0669 19.5648 33.3295 20.4639 33.3295ZM20.4639 37.721C21.9853 37.721 23.2232 36.483 23.2232 34.9638C23.2232 33.4446 21.9853 32.2022 20.4639 32.2022C18.9425 32.2022 17.7023 33.4402 17.7023 34.9638C17.7023 36.4874 18.9425 37.721 20.4639 37.721Z" fill="#030403"/>
<path d="M28.7264 33.3295C29.6256 33.3295 30.3586 34.0625 30.3586 34.9639C30.3586 35.8652 29.6255 36.5916 28.7264 36.5916C27.8274 36.5916 27.0943 35.8608 27.0943 34.9639C27.0943 34.0669 27.8274 33.3295 28.7264 33.3295ZM28.7264 37.721C30.2479 37.721 31.4858 36.483 31.4858 34.9638C31.4858 33.4446 30.2479 32.2022 28.7264 32.2022C27.205 32.2022 25.9671 33.4402 25.9671 34.9638C25.9671 36.4874 27.205 37.721 28.7264 37.721Z" fill="#030403"/>
<path d="M30.91 26.4688V30.1782H26.7289V26.4688H30.91ZM33.18 31.3076C35.1975 31.3076 36.8362 32.9464 36.8362 34.9639C36.8362 36.9814 35.1975 38.6179 33.18 38.6179H7.74566C5.73042 38.6179 4.09159 36.9769 4.09159 34.9639C4.09159 32.9508 5.73034 31.3076 7.74566 31.3076H33.18ZM21.4184 26.4688H25.5995V30.1782H21.4184V26.4688ZM24.0714 21.506H28.2548V25.3416H24.0714V21.506ZM28.8195 20.3788H23.5089C23.1967 20.3788 22.9443 20.629 22.9443 20.9413V25.3416H20.8537C20.5414 25.3416 20.289 25.594 20.289 25.9041V30.1782H7.74566C5.10808 30.1782 2.96222 32.3264 2.96222 34.9639C2.96222 37.6015 5.10816 39.7452 7.74566 39.7452H33.18C35.8197 39.7452 37.9657 37.5993 37.9657 34.9639C37.9657 32.3286 35.8197 30.1782 33.18 30.1782H32.0372V25.9041C32.0372 25.594 31.7847 25.3416 31.4747 25.3416H29.3842V20.9413C29.3842 20.629 29.1318 20.3788 28.8195 20.3788Z" fill="#030403"/>
<path d="M34.8232 7.66485H31.9265C32.1834 7.05805 32.3251 6.39149 32.3251 5.69384C32.3251 4.96087 32.1701 4.26766 31.8889 3.63876H34.8232C35.9327 3.63876 36.8362 4.54227 36.8362 5.65399C36.8362 6.76571 35.9327 7.66485 34.8232 7.66485ZM27.2493 9.64243C25.0724 9.64243 23.303 7.87079 23.303 5.69384C23.303 3.51688 25.0725 1.74751 27.2493 1.74751C29.4262 1.74751 31.1979 3.51696 31.1979 5.69384C31.1979 7.87071 29.4263 9.64243 27.2493 9.64243ZM29.5171 12.9288H24.9816V10.2337C25.6659 10.577 26.4343 10.7696 27.2493 10.7696C28.0643 10.7696 28.835 10.577 29.5171 10.2337V12.9288ZM22.5722 7.66485H6.10466C4.99513 7.66485 4.09161 6.76352 4.09161 5.65399C4.09161 4.54446 4.99513 3.63876 6.10466 3.63876H22.6098C22.3308 4.26766 22.1736 4.96087 22.1736 5.69384C22.1736 6.39141 22.3153 7.05798 22.5722 7.66485ZM34.8232 2.51157H31.2001C30.2678 1.35774 28.8438 0.618134 27.2493 0.618134C25.6549 0.618134 24.2309 1.35782 23.3007 2.51157H6.10466C4.37286 2.51157 2.96216 3.92001 2.96216 5.65407C2.96216 7.38813 4.37286 8.7943 6.10466 8.7943H23.2343C23.4204 9.03352 23.6286 9.25938 23.8544 9.46313V13.4937C23.8544 13.8038 24.1069 14.0562 24.4191 14.0562H26.162L24.5985 15.6219C24.4767 15.7437 24.4169 15.9142 24.4368 16.0847L24.7225 18.5871C24.7558 18.875 24.9993 19.0876 25.2829 19.0876C25.3028 19.0876 25.325 19.0854 25.3471 19.0831C25.6572 19.0499 25.8786 18.7687 25.8432 18.4586L25.5885 16.2285L27.5041 14.3107L29.4197 16.2285L29.1629 18.4586C29.1274 18.7687 29.3489 19.0477 29.659 19.0831C29.6811 19.0853 29.7032 19.0876 29.7254 19.0876C30.0066 19.0876 30.2502 18.875 30.2834 18.5871L30.5713 16.0847C30.5912 15.9141 30.5315 15.7437 30.4118 15.6219L28.8461 14.0562H30.0818C30.3919 14.0562 30.6465 13.8038 30.6465 13.4937V9.46313C30.8724 9.25938 31.0784 9.03352 31.2644 8.7943H34.8232C36.555 8.7943 37.9658 7.38587 37.9658 5.65407C37.9658 3.92227 36.555 2.51157 34.8232 2.51157H34.8232Z" fill="#030403"/>
<path d="M11.3421 16.3172C12.9189 16.3172 14.2033 17.6016 14.2033 19.1806C14.2033 20.7596 12.9189 22.0396 11.3421 22.0396C9.76527 22.0396 8.48082 20.7574 8.48082 19.1806C8.48082 17.6039 9.76308 16.3172 11.3421 16.3172ZM11.3421 23.1691C13.5411 23.1691 15.3305 21.3797 15.3305 19.1806C15.3305 16.9816 13.5411 15.1877 11.3421 15.1877C9.143 15.1877 7.35144 16.9793 7.35144 19.1806C7.35144 21.382 9.143 23.1691 11.3421 23.1691Z" fill="#030403"/>
</svg>
