<svg width="40" height="40" viewBox="0 0 40 40" fill="none" xmlns="http://www.w3.org/2000/svg">
<g clip-path="url(#clip0_4_152)">
<path d="M17.0125 29.2937L15 27.5L14.9937 27.5062C15.7812 28.2937 15.8062 29.6687 15.2063 31.1562C14.7812 32.2 14.05 33.3063 13.05 34.3C12.05 35.3 10.9437 36.0375 9.9 36.4563C8.4125 37.0563 7.04375 37.0313 6.25625 36.2438L6.25 36.25L8.04375 38.2625C8.7625 38.9813 10.1563 38.8625 11.6375 38.1938C12.7125 37.7188 13.8312 36.9563 14.7687 36.0188C15.7062 35.0813 16.4688 33.9625 16.9438 32.8875C17.3 32.1 17.5 31.3375 17.5 30.6875C17.5 30.1125 17.35 29.6312 17.0125 29.2937Z" fill="#FFEAA7"/>
<path d="M15.2062 31.1563C14.7812 32.2 14.05 33.3063 13.05 34.3C12.05 35.3 10.9437 36.0375 9.89996 36.4563C8.41246 37.0563 7.04371 37.0313 6.25621 36.2438C5.22496 35.2188 5.49996 33.1875 6.76871 31.2063C7.00621 31.2375 7.24996 31.25 7.49996 31.25C10.2937 31.25 12.6625 29.4125 13.4625 26.8813C14.0812 26.9125 14.6062 27.1188 14.9937 27.5063C15.7812 28.2938 15.8062 29.6688 15.2062 31.1563Z" fill="#FCD770"/>
<path d="M13.75 25C13.75 25.6562 13.65 26.2875 13.4625 26.8812C12.6625 29.4125 10.2937 31.25 7.5 31.25C7.25 31.25 7.00625 31.2375 6.76875 31.2063C3.6625 30.8438 1.25 28.2 1.25 25C1.25 21.95 3.4375 19.4063 6.33125 18.8625C6.70625 18.7875 7.1 18.75 7.5 18.75C8.90625 18.75 10.2063 19.2188 11.25 20C11.6875 20.3312 12.0813 20.7125 12.4125 21.1438C13.25 22.2063 13.75 23.5437 13.75 25Z" fill="#FFC729"/>
<path d="M11.25 20C10.2063 19.2188 8.90625 18.75 7.5 18.75C7.1 18.75 6.70625 18.7875 6.33125 18.8625C5.5 17.8 5 16.4563 5 15C5 11.55 7.8 8.75 11.25 8.75C14.7 8.75 17.5 11.55 17.5 15C17.5 18.0562 15.3125 20.5938 12.4125 21.1438C12.0813 20.7125 11.6875 20.3313 11.25 20Z" fill="#FCD770"/>
<path d="M36.25 11.25H20C18.6187 11.25 17.5 12.3687 17.5 13.75V15V30.6875V36.25C17.5 37.6313 18.6187 38.75 20 38.75H36.25C37.6313 38.75 38.75 37.6313 38.75 36.25V13.75C38.75 12.3687 37.6313 11.25 36.25 11.25Z" fill="#CCD1D9"/>
<path d="M20 33.75H23.75V36.25H20V33.75Z" fill="#B4DD7F"/>
<path d="M26.25 28.75H30V31.25H26.25V28.75Z" fill="#B4DD7F"/>
<path d="M26.25 23.75H30V26.25H26.25V23.75Z" fill="#B4DD7F"/>
<path d="M20 23.75H23.75V26.25H20V23.75Z" fill="#B4DD7F"/>
<path d="M32.5 23.75H36.25V26.25H32.5V23.75Z" fill="#B4DD7F"/>
<path d="M32.5 28.75H36.25V36.25H32.5V28.75Z" fill="#EF7385"/>
<path d="M26.25 33.75H30V36.25H26.25V33.75Z" fill="#B4DD7F"/>
<path d="M20 28.75H23.75V31.25H20V28.75Z" fill="#B4DD7F"/>
<path d="M36.25 13.75V21.25H20V13.75H22.5312C23.9062 15.2875 25.9 16.25 28.125 16.25C30.35 16.25 32.3438 15.2875 33.7188 13.75H36.25Z" fill="#69D6F4"/>
<path d="M22.5312 13.75C21.8875 13.0312 21.3813 12.1812 21.05 11.25C20.775 10.4688 20.625 9.625 20.625 8.75C20.625 4.60625 23.9812 1.25 28.125 1.25C32.2688 1.25 35.625 4.60625 35.625 8.75C35.625 9.625 35.475 10.4688 35.2 11.25C34.8687 12.1812 34.3625 13.0312 33.7188 13.75C32.3438 15.2875 30.35 16.25 28.125 16.25C25.9 16.25 23.9062 15.2875 22.5312 13.75Z" fill="#FCD770"/>
<path d="M36.25 10.625H36.0231C36.1663 10.0219 36.25 9.39625 36.25 8.75C36.25 4.27 32.605 0.625 28.125 0.625C23.645 0.625 20 4.27 20 8.75C20 9.39625 20.0837 10.0219 20.2269 10.625H20C18.93 10.625 17.985 11.1669 17.4212 11.9894C16.3025 9.70563 13.9606 8.125 11.25 8.125C7.45937 8.125 4.375 11.2094 4.375 15C4.375 16.2456 4.705 17.4319 5.32687 18.4825C2.59875 19.395 0.625 21.9694 0.625 25C0.625 28.2019 2.82812 30.8913 5.79562 31.6525C4.7525 33.6681 4.7325 35.57 5.79125 36.6587L5.78375 36.6656L7.60188 38.7038C8.06875 39.1706 8.70687 39.3775 9.43563 39.3775C11.2113 39.3775 13.525 38.1481 15.2119 36.4619C15.8469 35.8269 16.4119 35.1025 16.8756 34.3512V36.25C16.8756 37.9731 18.2775 39.375 20.0006 39.375H36.2506C37.9738 39.375 39.3756 37.9731 39.3756 36.25V13.75C39.375 12.0269 37.9731 10.625 36.25 10.625ZM28.125 1.875C31.9156 1.875 35 4.95937 35 8.75C35 12.5406 31.9156 15.625 28.125 15.625C24.3344 15.625 21.25 12.5406 21.25 8.75C21.25 4.95937 24.3344 1.875 28.125 1.875ZM28.125 16.875C30.4219 16.875 32.495 15.9125 33.9744 14.375H35.625V20.625H20.625V14.375H22.2756C23.755 15.9125 25.8281 16.875 28.125 16.875ZM13.0406 35.1744L13.8713 36.005C13.1906 36.6075 12.4656 37.0894 11.7712 37.44L10.9731 36.6419C11.6837 36.2612 12.3844 35.765 13.0406 35.1744ZM13.9237 34.29C14.5269 33.6206 15.0175 32.92 15.3919 32.2225L16.1931 33.0238C15.8244 33.7494 15.33 34.4706 14.7544 35.1213L13.9237 34.29ZM15.9319 30.995C16.1137 30.4575 16.2175 29.9344 16.2406 29.4425L16.5694 29.7356C16.9244 30.0906 16.9669 30.8363 16.6994 31.7625L15.9319 30.995ZM16.875 28.335L15.4163 27.0338L15.41 27.0406C15.0913 26.7306 14.69 26.5144 14.235 26.3862C14.3262 25.9381 14.375 25.475 14.375 25C14.375 23.7294 14.0225 22.5419 13.4187 21.5194C14.8406 21.0475 16.0431 20.1356 16.875 18.9506V28.335ZM5.625 15C5.625 11.8981 8.14875 9.375 11.25 9.375C14.3512 9.375 16.875 11.8981 16.875 15C16.875 17.585 15.1125 19.8206 12.6381 20.4481C12.4019 20.1812 12.15 19.9281 11.875 19.7006V18.125H13.125V16.25C13.125 15.2163 12.2837 14.375 11.25 14.375C10.9056 14.375 10.625 14.095 10.625 13.75V13.125H11.25C11.5944 13.125 11.875 13.405 11.875 13.75H13.125C13.125 12.9362 12.6006 12.2487 11.875 11.99V10.625H10.625V11.875H9.375V13.75C9.375 14.7837 10.2163 15.625 11.25 15.625C11.5944 15.625 11.875 15.905 11.875 16.25V16.875H11.25C10.9056 16.875 10.625 16.595 10.625 16.25H9.375C9.375 17.0637 9.89937 17.7512 10.625 18.01V18.8844C9.68625 18.4025 8.62562 18.125 7.5 18.125C7.20125 18.125 6.90812 18.1506 6.61937 18.1881C5.97 17.2494 5.625 16.155 5.625 15ZM1.875 25C1.875 21.8981 4.39875 19.375 7.5 19.375C10.6012 19.375 13.125 21.8981 13.125 25C13.125 28.1019 10.6012 30.625 7.5 30.625C4.39875 30.625 1.875 28.1019 1.875 25ZM7.5 31.875C10.3794 31.875 12.8475 30.0938 13.8694 27.5769C14.1431 27.6488 14.375 27.7694 14.5531 27.9469C15.5119 28.9056 14.96 31.5113 12.6106 33.8613C10.2612 36.2113 7.65625 36.7631 6.69688 35.8031C5.97688 35.0825 6.16187 33.4906 7.11625 31.8556C7.24375 31.8625 7.37063 31.875 7.5 31.875ZM8.51 37.8463L8.18812 37.485C8.57875 37.4663 8.98875 37.4069 9.42312 37.2825C9.52875 37.2525 9.635 37.2137 9.74125 37.1781L10.5113 37.9481C9.6 38.2137 8.85563 38.19 8.51 37.8463ZM38.125 36.25C38.125 37.2837 37.2837 38.125 36.25 38.125H20C18.9662 38.125 18.125 37.2837 18.125 36.25V13.75C18.125 12.7163 18.9662 11.875 20 11.875H20.6269C20.81 12.3131 21.0356 12.7294 21.2894 13.125H19.375V21.875H36.875V13.125H34.9606C35.215 12.7294 35.44 12.3131 35.6231 11.875H36.25C37.2837 11.875 38.125 12.7163 38.125 13.75V36.25Z" fill="black"/>
<path d="M31.875 36.875H36.875V28.125H31.875V36.875ZM33.125 29.375H35.625V35.625H33.125V29.375Z" fill="black"/>
<path d="M25.625 36.875H30.625V33.125H25.625V36.875ZM26.875 34.375H29.375V35.625H26.875V34.375Z" fill="black"/>
<path d="M19.375 36.875H24.375V33.125H19.375V36.875ZM20.625 34.375H23.125V35.625H20.625V34.375Z" fill="black"/>
<path d="M25.625 31.875H30.625V28.125H25.625V31.875ZM26.875 29.375H29.375V30.625H26.875V29.375Z" fill="black"/>
<path d="M19.375 31.875H24.375V28.125H19.375V31.875ZM20.625 29.375H23.125V30.625H20.625V29.375Z" fill="black"/>
<path d="M25.625 26.875H30.625V23.125H25.625V26.875ZM26.875 24.375H29.375V25.625H26.875V24.375Z" fill="black"/>
<path d="M31.875 26.875H36.875V23.125H31.875V26.875ZM33.125 24.375H35.625V25.625H33.125V24.375Z" fill="black"/>
<path d="M19.375 26.875H24.375V23.125H19.375V26.875ZM20.625 24.375H23.125V25.625H20.625V24.375Z" fill="black"/>
<path d="M8.125 29.375V28.125H9.375V26.25C9.375 25.2162 8.53375 24.375 7.5 24.375C7.15562 24.375 6.875 24.095 6.875 23.75V23.125H7.5C7.84437 23.125 8.125 23.405 8.125 23.75H9.375C9.375 22.9362 8.85063 22.2487 8.125 21.99V20.625H6.875V21.875H5.625V23.75C5.625 24.7838 6.46625 25.625 7.5 25.625C7.84437 25.625 8.125 25.905 8.125 26.25V26.875H7.5C7.15562 26.875 6.875 26.595 6.875 26.25H5.625C5.625 27.0638 6.14937 27.7513 6.875 28.01V29.375H8.125Z" fill="black"/>
<path d="M11.25 25.625C11.5952 25.625 11.875 25.3452 11.875 25C11.875 24.6548 11.5952 24.375 11.25 24.375C10.9048 24.375 10.625 24.6548 10.625 25C10.625 25.3452 10.9048 25.625 11.25 25.625Z" fill="black"/>
<path d="M3.75 25.625C4.09518 25.625 4.375 25.3452 4.375 25C4.375 24.6548 4.09518 24.375 3.75 24.375C3.40482 24.375 3.125 24.6548 3.125 25C3.125 25.3452 3.40482 25.625 3.75 25.625Z" fill="black"/>
<path d="M15 15.625C15.3452 15.625 15.625 15.3452 15.625 15C15.625 14.6548 15.3452 14.375 15 14.375C14.6548 14.375 14.375 14.6548 14.375 15C14.375 15.3452 14.6548 15.625 15 15.625Z" fill="black"/>
<path d="M7.5 15.625C7.84518 15.625 8.125 15.3452 8.125 15C8.125 14.6548 7.84518 14.375 7.5 14.375C7.15482 14.375 6.875 14.6548 6.875 15C6.875 15.3452 7.15482 15.625 7.5 15.625Z" fill="black"/>
<path d="M28.125 11.875C27.4356 11.875 26.875 11.3144 26.875 10.625H25.625C25.625 11.7869 26.425 12.7569 27.5 13.0363V14.375H28.75V13.125H30.625V10.625C30.625 9.24625 29.5038 8.125 28.125 8.125C27.4356 8.125 26.875 7.56437 26.875 6.875V5.625H28.125C28.8144 5.625 29.375 6.18563 29.375 6.875H30.625C30.625 5.71312 29.825 4.74313 28.75 4.46375V3.125H27.5V4.375H25.625V6.875C25.625 8.25375 26.7462 9.375 28.125 9.375C28.8144 9.375 29.375 9.93563 29.375 10.625V11.875H28.125Z" fill="black"/>
<path d="M33.125 9.375C33.4702 9.375 33.75 9.09518 33.75 8.75C33.75 8.40482 33.4702 8.125 33.125 8.125C32.7798 8.125 32.5 8.40482 32.5 8.75C32.5 9.09518 32.7798 9.375 33.125 9.375Z" fill="black"/>
<path d="M23.125 9.375C23.4702 9.375 23.75 9.09518 23.75 8.75C23.75 8.40482 23.4702 8.125 23.125 8.125C22.7798 8.125 22.5 8.40482 22.5 8.75C22.5 9.09518 22.7798 9.375 23.125 9.375Z" fill="black"/>
</g>
<defs>
<clipPath id="clip0_4_152">
<rect width="40" height="40" fill="white"/>
</clipPath>
</defs>
</svg>
