<svg width="40" height="40" viewBox="0 0 40 40" fill="none" xmlns="http://www.w3.org/2000/svg">
<g clip-path="url(#clip0_4_397)">
<path fill-rule="evenodd" clip-rule="evenodd" d="M23.3711 0.625C18.0016 0.625 13.6461 4.97812 13.6461 10.3477C13.6461 15.7172 18.0008 20.0703 23.3711 20.0703C28.7414 20.0703 33.0937 15.718 33.0937 10.3477C33.0937 4.97734 28.7406 0.625 23.3711 0.625Z" fill="#00CCFF"/>
<path fill-rule="evenodd" clip-rule="evenodd" d="M23.3711 0.625C18.0016 0.625 13.6461 4.97812 13.6461 10.3477C13.6461 15.7172 18.0008 20.0703 23.3711 20.0703C23.5125 20.0703 23.6562 20.0664 23.7961 20.0617C18.6258 19.8367 14.5 15.5734 14.5 10.3477C14.5 5.12187 18.625 0.858594 23.7953 0.633594C23.6562 0.628906 23.5125 0.625 23.3711 0.625Z" fill="#00B8E6"/>
<path fill-rule="evenodd" clip-rule="evenodd" d="M25.1469 30.4391L31.6945 26.8758C32.8313 26.2578 33.2563 24.8203 32.6367 23.6812C32.0188 22.5445 30.5813 22.1195 29.4445 22.7391L22.35 26.6008L25.1469 30.4391Z" fill="#FBC894"/>
<path fill-rule="evenodd" clip-rule="evenodd" d="M24.0789 34.6789L37.7812 27.2234C38.9203 26.6054 39.343 25.168 38.725 24.0312C38.1047 22.8945 36.6672 22.4719 35.5305 23.089L28.4531 26.9375C28.3414 26.0601 27.7367 25.2773 26.8398 24.9898C24.1406 24.1211 21.4398 23.25 18.7391 22.3812C16.5766 21.6859 14.4594 21.8836 12.4617 22.9687L4.14999 27.4914L8.92968 36.2617L12.0297 34.5758C13.4734 33.7906 15.0078 33.6469 16.5734 34.1508L19.5344 35.1031C21.1008 35.6078 22.6351 35.464 24.0789 34.6789Z" fill="#FBBD80"/>
<path fill-rule="evenodd" clip-rule="evenodd" d="M7.17734 25.8438L4.14999 27.4914L8.92968 36.2617L12.0297 34.5758C12.0766 34.55 12.1266 34.5242 12.1734 34.4984L7.17734 25.8438Z" fill="#E2AA73"/>
<path fill-rule="evenodd" clip-rule="evenodd" d="M1.07187 27.1312L7.94999 39.068C8.11952 39.3594 8.49687 39.4625 8.78906 39.293L11.8484 37.5312C12.1398 37.364 12.243 36.9859 12.0734 36.6922L5.19531 24.7562C5.02577 24.4648 4.64843 24.3633 4.35624 24.5312L1.29687 26.2922C1.00312 26.4594 0.902337 26.839 1.07187 27.1312Z" fill="#0593FC"/>
<path fill-rule="evenodd" clip-rule="evenodd" d="M15.3023 26.2211C16.375 26.5664 17.4477 26.9117 18.5203 27.257C20.8117 27.9953 23.1047 28.7328 25.3961 29.4711C26.6297 29.868 27.9641 29.1836 28.3609 27.9523C28.7578 26.7187 28.0734 25.3867 26.8398 24.9898L20.5539 22.9648L15.3023 26.2211Z" fill="#FBBD80"/>
<path fill-rule="evenodd" clip-rule="evenodd" d="M1.07187 27.1312L7.94999 39.0679C7.9539 39.0765 7.96093 39.0851 7.96718 39.0937L1.56952 27.9937C1.39999 27.7 1.50077 27.3218 1.79452 27.1547L4.85156 25.3929C5.13671 25.2297 5.49921 25.3203 5.67577 25.5922L5.19531 24.7554C5.02577 24.464 4.64843 24.3625 4.35624 24.5304L1.29687 26.2922C1.00312 26.4594 0.902337 26.8375 1.07187 27.1312Z" fill="#0584E3"/>
<path fill-rule="evenodd" clip-rule="evenodd" d="M33.4625 16.0008C33.9773 15.8656 34.4641 15.6617 34.9148 15.3977C35.0219 15.3352 35.1469 15.3313 35.2578 15.3891L36.1031 15.818C36.243 15.8906 36.4078 15.8649 36.5195 15.7539L37.3773 14.8961C37.4891 14.7844 37.5148 14.6196 37.4414 14.4797L37.0125 13.6344C36.9547 13.5203 36.9586 13.3985 37.0211 13.2914C37.2828 12.8407 37.4891 12.3539 37.6242 11.8391C37.6562 11.7164 37.7398 11.6266 37.8602 11.5883L38.7609 11.2969C38.9109 11.2477 39.0102 11.1125 39.0102 10.9555V9.74143C39.0102 9.58518 38.9117 9.45002 38.7609 9.40002L37.8602 9.10862C37.7398 9.07034 37.6562 8.97971 37.6242 8.85784C37.4891 8.34299 37.2828 7.85627 37.0211 7.40549C36.9586 7.29846 36.9547 7.17346 37.0125 7.06252L37.4414 6.21721C37.5141 6.07815 37.4883 5.91252 37.3773 5.80081L36.5195 4.94299C36.4078 4.83127 36.243 4.80549 36.1031 4.87659L35.2578 5.30784C35.1437 5.36565 35.0219 5.36174 34.9148 5.29924C34.4641 5.03518 33.9773 4.83127 33.4625 4.69612C33.3398 4.66409 33.25 4.58049 33.2117 4.46018L32.9203 3.5594C32.8711 3.4094 32.7359 3.31018 32.5789 3.31018H31.3648C31.2086 3.31018 31.0734 3.40862 31.0234 3.5594L30.732 4.46018C30.6937 4.58049 30.6031 4.66409 30.4813 4.69612C29.9664 4.83127 29.4797 5.03518 29.0289 5.29924C28.9219 5.36174 28.7969 5.36565 28.6859 5.30784L27.8406 4.87659C27.7016 4.80549 27.5359 4.83127 27.4242 4.94299L26.5664 5.80081C26.4547 5.91252 26.4289 6.07737 26.5 6.21721L26.9313 7.06252C26.9891 7.17424 26.9852 7.29846 26.9227 7.40549C26.6586 7.85627 26.4547 8.34299 26.3195 8.85784C26.2875 8.98049 26.2039 9.07034 26.0836 9.10862L25.1828 9.40002C25.0328 9.44924 24.9336 9.5844 24.9336 9.74143V10.9555C24.9336 11.1117 25.032 11.2469 25.1828 11.2969L26.0836 11.5883C26.2039 11.6266 26.2875 11.7172 26.3195 11.8391C26.4547 12.3539 26.6586 12.8407 26.9227 13.2914C26.9852 13.3985 26.9891 13.5211 26.9313 13.6344L26.5 14.4797C26.4289 14.6188 26.4547 14.7844 26.5664 14.8961L27.4242 15.7539C27.5359 15.8656 27.7008 15.8914 27.8406 15.818L28.6859 15.3891C28.7977 15.3313 28.9219 15.3352 29.0289 15.3977C29.4797 15.6617 29.9664 15.8656 30.4813 16.0008C30.6039 16.0328 30.6937 16.1164 30.732 16.2367L31.0234 17.1375C31.0727 17.2875 31.2078 17.3867 31.3648 17.3867H32.5789C32.7352 17.3867 32.8711 17.2883 32.9203 17.1375L33.2117 16.2367C33.25 16.1164 33.3406 16.0328 33.4625 16.0008Z" fill="#2F5274"/>
<path fill-rule="evenodd" clip-rule="evenodd" d="M31.9719 13.5555C33.7375 13.5555 35.1773 12.1141 35.1773 10.3484C35.1773 8.58281 33.7375 7.14062 31.9719 7.14062C30.2062 7.14062 28.7648 8.58203 28.7648 10.3477C28.7648 12.1133 30.2062 13.5555 31.9719 13.5555Z" fill="#EBF5FC"/>
<path fill-rule="evenodd" clip-rule="evenodd" d="M32.2461 3.30859H31.364C31.2078 3.30859 31.0726 3.40703 31.0226 3.55781L30.7312 4.45859C30.693 4.57891 30.6023 4.6625 30.4805 4.69453C30.0601 4.80625 29.6562 4.9625 29.2765 5.16016L29.5664 5.30625C29.6781 5.36406 29.8023 5.36016 29.9094 5.29766C30.3601 5.03359 30.8469 4.82969 31.3617 4.69453C31.4844 4.6625 31.5742 4.57891 31.6125 4.45859L31.9047 3.55781C31.9547 3.40781 32.0898 3.30859 32.2461 3.30859ZM28.1914 5.05547L27.8398 4.875C27.7008 4.80391 27.5351 4.82969 27.4234 4.94141L26.5656 5.79922C26.4539 5.91094 26.4281 6.07578 26.4992 6.21562L26.9305 7.06094C26.9883 7.17266 26.9844 7.29687 26.9219 7.40391C26.6578 7.85469 26.4539 8.34141 26.3187 8.85625C26.2867 8.97891 26.2031 9.06875 26.0828 9.10703L25.182 9.39844C25.032 9.44766 24.9328 9.58281 24.9328 9.73984V10.9539C24.9328 11.1102 25.0312 11.2453 25.182 11.2953L26.0828 11.5867C26.2031 11.625 26.2867 11.7156 26.3187 11.8375C26.4539 12.3523 26.6578 12.8391 26.9219 13.2898C26.9844 13.3969 26.9883 13.5195 26.9305 13.6328L26.4992 14.4781C26.4281 14.6172 26.4539 14.7828 26.5656 14.8945L27.4234 15.7523C27.5351 15.8641 27.7 15.8898 27.8398 15.8164L28.1914 15.6383L27.4469 14.8938C27.3351 14.782 27.3094 14.6172 27.3828 14.4773L27.8117 13.632C27.8695 13.518 27.8656 13.3961 27.8031 13.2891C27.539 12.8383 27.3351 12.3516 27.2 11.8367C27.168 11.7141 27.0844 11.6242 26.9641 11.5859L26.0633 11.2945C25.9133 11.2453 25.8141 11.1102 25.8141 10.9531V9.73906C25.8141 9.58281 25.9125 9.44766 26.0633 9.39766L26.9641 9.10625C27.0844 9.06797 27.168 8.97734 27.2 8.85547C27.3351 8.34062 27.5414 7.85391 27.8031 7.40313C27.8656 7.29609 27.8695 7.17109 27.8117 7.06016L27.3828 6.21484C27.3101 6.07578 27.3359 5.91016 27.4469 5.79844L28.1914 5.05547ZM29.2773 15.5352C29.657 15.7328 30.0601 15.8891 30.4812 16.0008C30.6039 16.0328 30.6937 16.1164 30.732 16.2367L31.0234 17.1375C31.0726 17.2875 31.2078 17.3867 31.3648 17.3867H32.2469C32.0906 17.3867 31.9555 17.2883 31.9055 17.1375L31.6133 16.2367C31.575 16.1164 31.4844 16.0328 31.3625 16.0008C30.8476 15.8656 30.3609 15.6617 29.9101 15.3977C29.8031 15.3352 29.6781 15.3313 29.5672 15.3891L29.2773 15.5352Z" fill="#2A4A68"/>
<path fill-rule="evenodd" clip-rule="evenodd" d="M31.9719 7.14062C32.0726 7.14062 32.1734 7.14687 32.2719 7.15547C30.6414 7.30781 29.3648 8.67891 29.3648 10.3477C29.3648 12.0164 30.6414 13.3875 32.2719 13.5398C32.1734 13.5484 32.0726 13.5523 31.9719 13.5523C30.2015 13.5523 28.7648 12.1172 28.7648 10.3469C28.7641 8.57813 30.2015 7.14062 31.9719 7.14062Z" fill="#D4DDE3"/>
<path d="M39.2719 23.7265C38.4859 22.2836 36.6727 21.7484 35.2297 22.5328L33.2891 23.589C33.257 23.5179 33.2234 23.4476 33.1859 23.3789C32.4 21.9367 30.5867 21.4015 29.1414 22.1851L25.8133 23.9969C23.5187 23.257 21.225 22.5179 18.9289 21.7781C16.593 21.0265 14.3172 21.2406 12.1648 22.4133L6.38281 25.5586L5.7375 24.4383C5.39765 23.8476 4.63828 23.6429 4.04375 23.9828L0.985933 25.7453C0.395308 26.0851 0.189839 26.8445 0.528901 27.4375C0.528901 27.4383 0.529683 27.439 0.529683 27.439L7.40859 39.3812C7.57578 39.6695 7.84453 39.875 8.1664 39.9609C8.27265 39.989 8.37968 40.0031 8.48593 40.0031C8.70078 40.0031 8.91249 39.9468 9.10156 39.8367L12.1578 38.0773C12.4445 37.9133 12.6508 37.6469 12.7375 37.3265C12.8242 37.0054 12.7812 36.6703 12.6156 36.3828L11.9953 35.3062L12.3273 35.125C13.6195 34.4226 14.9836 34.2945 16.3812 34.7461L19.3414 35.6984C20.0195 35.9172 20.6914 36.0265 21.3531 36.0265C22.3875 36.0265 23.3992 35.7601 24.3766 35.2273L38.075 27.7711C38.7727 27.3922 39.2812 26.7625 39.5078 25.9969C39.7359 25.2289 39.6516 24.4234 39.2719 23.7265ZM29.7398 23.2844C30.5781 22.8289 31.6312 23.1398 32.0867 23.9758C32.125 24.0461 32.1555 24.1179 32.1836 24.1914L28.8367 26.0125C28.5516 25.3773 28.0508 24.8547 27.4211 24.5469L29.7398 23.2844ZM8.4875 38.7453L1.62031 26.8234L4.65937 25.0719L5.59453 26.6953C5.59531 26.6961 5.59531 26.6976 5.59609 26.6984C5.59765 26.7015 5.59999 26.7047 5.60156 26.7078L10.5797 35.3484C10.582 35.3523 10.5836 35.3562 10.5852 35.3601C10.5914 35.3711 10.5977 35.3812 10.6047 35.3914L11.5281 36.9945L8.4875 38.7453ZM38.3102 25.6398C38.1789 26.0844 37.8844 26.45 37.4797 26.6695L23.7805 34.1258C22.4898 34.8281 21.1266 34.9562 19.7266 34.5047L16.7664 33.5523C15.0297 32.9922 13.3359 33.1508 11.7312 34.0234L11.3719 34.2187L7.00781 26.6429L12.7633 23.5125C14.6031 22.5093 16.5492 22.3273 18.5461 22.9695C21.2477 23.8398 23.9477 24.7101 26.6477 25.5804C27.282 25.7843 27.7469 26.3468 27.8328 27.0133C27.8359 27.0351 27.8398 27.0562 27.8453 27.0773C27.8437 27.1023 27.843 27.1265 27.8437 27.1523C27.8539 27.3547 27.8266 27.5586 27.7648 27.7554C27.4719 28.6625 26.4945 29.1633 25.5867 28.8719C24.4484 28.5054 23.3102 28.139 22.1719 27.7719C21.0187 27.4 19.8656 27.0281 18.7125 26.657C18.3836 26.5515 18.0312 26.732 17.925 27.0609C17.8195 27.3898 18 27.7422 18.3289 27.8484C19.482 28.2195 20.6352 28.5914 21.7875 28.9625C22.9258 29.3297 24.0641 29.6961 25.2031 30.0625C25.5055 30.1593 25.8117 30.2054 26.1133 30.2054C27.3734 30.2054 28.5484 29.4 28.957 28.1351C29.0437 27.8594 29.0898 27.5781 29.0961 27.2961L35.8281 23.632C36.6648 23.1765 37.7172 23.4875 38.1734 24.325C38.393 24.7281 38.4414 25.1953 38.3102 25.6398ZM14.7758 16.1054C14.7828 16.1179 14.7891 16.1304 14.7969 16.1429C14.8133 16.1687 14.832 16.1929 14.8508 16.2156C16.7195 18.9187 19.8398 20.6945 23.368 20.6945C26.1156 20.6945 28.7164 19.614 30.6469 17.7015C30.8281 17.8945 31.0844 18.0109 31.3625 18.0109H32.5758C33.0039 18.0109 33.3805 17.7375 33.5117 17.3304L33.7602 16.5656C34.225 16.432 34.6742 16.2469 35.1 16.0117L35.8187 16.3797C36.1992 16.5703 36.657 16.4961 36.957 16.1961L37.8164 15.3367C38.1203 15.0328 38.1914 14.5742 37.9945 14.1945L37.6305 13.4781C37.8664 13.0531 38.0531 12.6023 38.1859 12.139L38.9508 11.8914C39.3578 11.7594 39.632 11.3836 39.632 10.9554V9.74216C39.632 9.31404 39.3586 8.93748 38.9508 8.80623L38.1859 8.55857C38.0516 8.08982 37.8648 7.64138 37.6312 7.22107L37.9945 6.50623C38.1914 6.12419 38.1203 5.66404 37.8164 5.36091L36.957 4.50154C36.6539 4.19841 36.193 4.12732 35.8148 4.32263L35.0984 4.68748C34.6773 4.45388 34.2281 4.26794 33.7586 4.13279L33.5109 3.36794C33.3789 2.96013 33.0031 2.68669 32.5742 2.68669H31.3609C31.0828 2.68669 30.8266 2.8031 30.6445 2.99607C28.7133 1.08357 26.1117 0.00231934 23.3664 0.00231934C19.8375 0.00231934 16.7164 1.7781 14.8477 4.48279C14.8289 4.50466 14.8109 4.5281 14.7953 4.5531C14.7875 4.5656 14.7812 4.5781 14.7742 4.5906C13.6664 6.23826 13.0195 8.21951 13.0195 10.35C13.0195 12.4804 13.668 14.4578 14.7758 16.1054ZM15.5344 5.7281C16.4453 6.21091 17.5641 6.59919 18.8094 6.87498C18.6648 7.78201 18.5773 8.73826 18.5508 9.72029H14.2937C14.393 8.27107 14.8336 6.91404 15.5344 5.7281ZM26.307 7.21794C26.0727 7.63904 25.8859 8.08904 25.7523 8.55466L24.9875 8.80232C24.5859 8.93201 24.3148 9.29919 24.307 9.71951H23.9937V7.34373C24.7703 7.32263 25.5359 7.26404 26.2797 7.1656L26.307 7.21794ZM22.743 13.35C21.8125 13.375 20.9039 13.457 20.0391 13.589C19.9109 12.7789 19.8281 11.9023 19.8023 10.9719H22.743V13.35ZM22.743 14.6015V19.2781C21.7758 18.7781 20.8289 17.1633 20.2781 14.8156C21.0641 14.6984 21.893 14.6258 22.743 14.6015ZM23.9945 19.282V14.6023C24.6195 14.6203 25.2359 14.664 25.8383 14.7344C25.8594 14.9554 25.9562 15.1687 26.1219 15.3351L26.2844 15.4969C25.7305 17.4508 24.8844 18.8304 23.9945 19.282ZM26.2805 13.5281C25.5367 13.4304 24.7711 13.3711 23.9945 13.35V10.9711H24.3078C24.3156 11.3914 24.5867 11.7586 24.9875 11.8883L25.7523 12.1367C25.8867 12.6047 26.0734 13.0554 26.307 13.4758L26.2805 13.5281ZM26.1219 5.35701C25.9562 5.52263 25.8602 5.73669 25.8391 5.95935C25.2367 6.02966 24.6195 6.07419 23.9945 6.09138V1.41013C24.8844 1.86169 25.7305 3.24138 26.2844 5.19451L26.1219 5.35701ZM22.743 1.41404V6.09294C21.8922 6.06873 21.0641 5.99607 20.2781 5.87888C20.8281 3.52966 21.7758 1.91404 22.743 1.41404ZM22.743 7.34451V9.72029H19.8023C19.8281 8.7906 19.9109 7.91482 20.0391 7.10466C20.9039 7.23748 21.8133 7.31951 22.743 7.34451ZM18.5516 10.9719C18.5773 11.9547 18.6648 12.9109 18.8102 13.8187C17.5641 14.0945 16.4453 14.482 15.5352 14.964C14.8336 13.7789 14.3937 12.4219 14.2945 10.9719H18.5516ZM16.25 16.0015C17.032 15.6031 17.9844 15.2797 19.0469 15.0429C19.2492 15.9234 19.5094 16.7414 19.8242 17.4687C20.0859 18.0734 20.3773 18.5992 20.6945 19.0406C18.9211 18.4945 17.3789 17.4195 16.25 16.0015ZM26.0383 19.0437C26.5336 18.357 26.9656 17.4711 27.3133 16.4125C27.5703 16.5148 27.8641 16.507 28.1227 16.3758L28.8391 16.0101C29.225 16.2234 29.6305 16.3953 30.0461 16.5242C28.9437 17.7156 27.5602 18.5773 26.0383 19.0437ZM32.3828 3.93357L32.6156 4.65232C32.6164 4.65544 32.6172 4.65779 32.6187 4.66091C32.7266 4.97966 32.9844 5.21873 33.3023 5.29998C33.7586 5.42029 34.1945 5.60076 34.6039 5.8406C34.8984 6.00857 35.2406 6.01716 35.5414 5.86404L36.2133 5.52185L36.7961 6.10466L36.4562 6.77419C36.3016 7.07107 36.3094 7.42341 36.4773 7.71638C36.4789 7.71873 36.4797 7.72107 36.4812 7.72341C36.7172 8.12341 36.8977 8.55779 37.0187 9.02107C37.107 9.34607 37.3492 9.60076 37.6648 9.70232L38.3836 9.93513V10.7601L37.6617 10.9945C37.3414 11.1008 37.1078 11.3484 37.0172 11.6797C36.8984 12.1344 36.718 12.5695 36.4766 12.9804C36.3078 13.275 36.3 13.6172 36.4531 13.9172L36.7953 14.5906L36.2125 15.1742L35.5422 14.8312C35.2414 14.6773 34.8875 14.689 34.6 14.8586C34.1937 15.0945 33.757 15.275 33.3023 15.3945C33.3008 15.3953 33.2984 15.3953 33.2969 15.3961C32.9719 15.4844 32.7242 15.7187 32.6164 16.0437L32.3836 16.7601H31.5586L31.3242 16.0383C31.2172 15.7187 30.9703 15.4844 30.6391 15.3937C30.1867 15.275 29.75 15.0953 29.3469 14.8601C29.0555 14.6875 28.7016 14.6765 28.4008 14.8304L27.7297 15.1726L27.1461 14.589L27.193 14.4976C27.1961 14.4922 27.1992 14.4859 27.2016 14.4804L27.4891 13.9172C27.6422 13.6156 27.6344 13.2742 27.4625 12.9734C27.225 12.5687 27.0445 12.1336 26.9242 11.6726C26.8359 11.3476 26.6016 11.1 26.2766 10.9914L25.5602 10.7586V9.93357L26.2719 9.7031C26.5914 9.60232 26.8359 9.34763 26.9258 9.01482C27.0461 8.55701 27.2266 8.12263 27.4625 7.72263C27.4641 7.72029 27.4656 7.71794 27.4672 7.71482C27.6344 7.42185 27.6422 7.06951 27.4898 6.77732L27.2031 6.2156C27.2 6.20857 27.1961 6.20154 27.1922 6.19451L27.1461 6.10466L27.7297 5.52107L28.4023 5.86248C28.7039 6.01638 29.0453 6.00779 29.3461 5.83591C29.7508 5.59841 30.1867 5.41794 30.6367 5.29998C30.9594 5.21794 31.2164 4.97888 31.325 4.66013C31.3258 4.65701 31.3273 4.65466 31.3281 4.65154L31.5602 3.93279H32.3828V3.93357ZM30.0453 4.16873C29.625 4.29919 29.2203 4.47185 28.8398 4.68357L28.1234 4.32029C27.8648 4.18669 27.5703 4.17732 27.3125 4.27966C26.9656 3.22185 26.5328 2.33591 26.0383 1.64919C27.5594 2.11482 28.943 2.97732 30.0453 4.16873ZM20.6945 1.65154C20.3773 2.09373 20.0852 2.61873 19.8242 3.22419C19.5094 3.95232 19.2492 4.76951 19.0469 5.65076C17.9844 5.41404 17.0328 5.08904 16.25 4.6906C17.3789 3.27185 18.9219 2.19763 20.6945 1.65154ZM28.1375 10.3461C28.1375 12.4593 29.857 14.1781 31.9695 14.1781C34.082 14.1781 35.8016 12.4586 35.8016 10.3461C35.8016 8.23435 34.0828 6.5156 31.9695 6.5156C29.8562 6.5156 28.1375 8.23435 28.1375 10.3461ZM31.9703 7.76716C33.3937 7.76716 34.5516 8.92419 34.5516 10.3461C34.5516 11.7695 33.3937 12.9273 31.9703 12.9273C30.5469 12.9273 29.3891 11.7695 29.3891 10.3461C29.3891 8.92419 30.5469 7.76716 31.9703 7.76716Z" fill="black"/>
</g>
<defs>
<clipPath id="clip0_4_397">
<rect width="40" height="40" fill="white"/>
</clipPath>
</defs>
</svg>
