<svg width="40" height="40" viewBox="0 0 40 40" fill="none" xmlns="http://www.w3.org/2000/svg">
<g clip-path="url(#clip0_4_289)">
<path d="M5.92828 32.5795H23.9123V36.493H5.92828V32.5795Z" fill="#F5D38E"/>
<path fill-rule="evenodd" clip-rule="evenodd" d="M23.9122 24.2524H28.7354C29.1543 24.2524 29.5147 24.436 29.7611 24.7747L33.1309 29.4066C33.381 29.7503 33.4998 30.1156 33.4998 30.5407V36.4931H23.9122V24.2524Z" fill="#FF6969"/>
<path fill-rule="evenodd" clip-rule="evenodd" d="M25.371 25.7112V30.2648H31.9513L28.6386 25.7112H25.371Z" fill="#EBF1F5"/>
<path d="M30.2012 37.8195C30.6438 36.7716 30.1531 35.5632 29.1051 35.1206C28.0572 34.678 26.8488 35.1687 26.4062 36.2167C25.9636 37.2646 26.4543 38.4729 27.5023 38.9156C28.5502 39.3582 29.7586 38.8675 30.2012 37.8195Z" fill="#A3A3AD"/>
<path d="M11.5138 39.0672C12.6517 39.0672 13.5741 38.1448 13.5741 37.007C13.5741 35.8692 12.6517 34.9468 11.5138 34.9468C10.376 34.9468 9.45361 35.8692 9.45361 37.007C9.45361 38.1448 10.376 39.0672 11.5138 39.0672Z" fill="#A3A3AD"/>
<path d="M8.02899 19.2622H21.3463V32.5796H8.02899V19.2622Z" fill="#F29988"/>
<path d="M12.7751 19.2622H16.6002V23.5654H12.7751V19.2622Z" fill="#E88572"/>
<path fill-rule="evenodd" clip-rule="evenodd" d="M9.76553 4.13599C10.672 4.13599 11.5786 4.47981 12.2662 5.16755C13.3277 6.22903 13.57 7.81192 12.993 9.11138C12.4719 10.2851 10.5665 12.761 9.76553 13.9823C8.96459 12.7611 7.0592 10.2852 6.53803 9.11138C5.96107 7.81192 6.20334 6.22911 7.26482 5.16755C7.95256 4.47981 8.85904 4.13599 9.76553 4.13599Z" fill="#FF6969"/>
<path fill-rule="evenodd" clip-rule="evenodd" d="M8.68273 6.5855C9.28078 5.98745 10.2503 5.98745 10.8483 6.5855C11.4463 7.18347 11.4463 8.15308 10.8483 8.75104C10.2502 9.34901 9.2807 9.34901 8.68273 8.75104C8.08476 8.153 8.08476 7.18347 8.68273 6.5855Z" fill="white"/>
<path fill-rule="evenodd" clip-rule="evenodd" d="M35.5722 16.5767C36.4787 16.5767 37.3853 16.9205 38.0729 17.6082C39.1344 18.6697 39.3767 20.2525 38.7997 21.552C38.2786 22.7258 36.3732 25.2017 35.5722 26.4229C34.7713 25.2017 32.8659 22.7257 32.3447 21.552C31.7678 20.2525 32.01 18.6697 33.0715 17.6082C33.7592 16.9205 34.6658 16.5767 35.5722 16.5767Z" fill="#FF6969"/>
<path fill-rule="evenodd" clip-rule="evenodd" d="M34.4894 19.0262C35.0874 18.4282 36.057 18.4282 36.655 19.0262C37.2529 19.6242 37.2529 20.5938 36.655 21.1917C36.0569 21.7898 35.0874 21.7898 34.4894 21.1917C33.8914 20.5938 33.8914 19.6241 34.4894 19.0262Z" fill="white"/>
<path fill-rule="evenodd" clip-rule="evenodd" d="M33.8625 2.49658L34.525 2.05229C34.6331 1.97979 34.774 1.99354 34.8661 2.08565L35.8914 3.11096C35.9835 3.20307 35.9972 3.34393 35.9247 3.45213L35.4804 4.11463L36.0443 5.47549L36.8268 5.62979C36.9545 5.65494 37.0444 5.76432 37.0444 5.89455V7.34455C37.0444 7.47479 36.9545 7.58416 36.8268 7.60932L36.0443 7.76362L35.4804 9.12447L35.9247 9.78698C35.9972 9.89518 35.9835 10.036 35.8914 10.1281L34.8661 11.1535C34.774 11.2456 34.6331 11.2592 34.525 11.1867L33.8625 10.7424L32.5016 11.3063L32.3473 12.0888C32.3222 12.2165 32.2127 12.3064 32.0826 12.3064H30.6326C30.5023 12.3064 30.3929 12.2165 30.3678 12.0888L30.2135 11.3063L28.8526 10.7424L28.1901 11.1867C28.082 11.2592 27.9411 11.2456 27.849 11.1535L26.8237 10.1281C26.7317 10.036 26.7179 9.89518 26.7904 9.78698L27.2347 9.12447L26.671 7.76362L25.8885 7.60932C25.7608 7.58416 25.6708 7.47479 25.6708 7.34455V5.89455C25.6708 5.76432 25.7608 5.65494 25.8885 5.62979L26.671 5.47549L27.2347 4.11463L26.7904 3.45213C26.7179 3.34401 26.7317 3.20307 26.8237 3.11096L27.849 2.08565C27.9412 1.99362 28.082 1.97979 28.1901 2.05229L28.8526 2.49658L30.2135 1.93283L30.3678 1.15033C30.3929 1.0226 30.5023 0.932678 30.6326 0.932678H32.0826C32.2127 0.932678 32.3222 1.0226 32.3473 1.15033L32.5016 1.93283L33.8625 2.49658Z" fill="#A3A3AD"/>
<path d="M33.7335 8.29529C34.6677 6.98258 34.3608 5.1611 33.0481 4.2269C31.7354 3.2927 29.9139 3.59954 28.9797 4.91225C28.0455 6.22496 28.3524 8.04644 29.6651 8.98064C30.9778 9.91484 32.7993 9.60799 33.7335 8.29529Z" fill="white"/>
<path fill-rule="evenodd" clip-rule="evenodd" d="M12.1417 37.0068C12.1417 37.3536 11.8593 37.6364 11.5121 37.6364C11.1649 37.6364 10.8825 37.3536 10.8825 37.0068C10.8825 36.66 11.1653 36.3776 11.5121 36.3776C11.8589 36.3776 12.1417 36.6604 12.1417 37.0068ZM28.9395 37.0068C28.9395 37.3536 28.6567 37.6364 28.3099 37.6364C27.9631 37.6364 27.6803 37.3536 27.6803 37.0068C27.6803 36.66 27.9627 36.3776 28.3099 36.3776C28.6571 36.3776 28.9395 36.6604 28.9395 37.0068ZM31.3559 8.98885C30.0489 8.98885 28.9862 7.9258 28.9862 6.61947C28.9862 5.31315 30.0489 4.24979 31.3559 4.24979C32.6629 4.24979 33.7253 5.31283 33.7253 6.61947C33.7253 7.92612 32.6622 8.98885 31.3559 8.98885ZM31.3559 3.15619C29.4464 3.15619 27.8926 4.70994 27.8926 6.61947C27.8926 8.52901 29.4464 10.0828 31.3559 10.0828C33.2654 10.0828 34.8192 8.52908 34.8192 6.61947C34.8192 4.70987 33.2651 3.15619 31.3559 3.15619ZM35.5708 21.0152C35.3287 21.0152 35.1012 20.921 34.9292 20.7497C34.7583 20.5784 34.6645 20.351 34.6645 20.1089C34.6645 19.8667 34.7583 19.6392 34.9292 19.4683C35.1065 19.2913 35.3385 19.2032 35.5708 19.2032C35.8032 19.2032 36.0347 19.2913 36.2114 19.4683C36.3364 19.5926 36.4158 19.7451 36.4528 19.9055C36.4396 20.0915 36.4238 20.2771 36.4046 20.4624C36.3605 20.5667 36.2965 20.665 36.2114 20.7498C36.0401 20.9211 35.813 21.0153 35.5708 21.0153V21.0152ZM34.0458 18.5841C33.6387 18.9915 33.4147 19.533 33.4147 20.1089C33.4147 20.6847 33.6387 21.2265 34.0458 21.6335C34.4528 22.041 34.995 22.2654 35.5708 22.2654C36.1466 22.2654 36.6877 22.041 37.0952 21.6335C37.9365 20.7931 37.9365 19.4249 37.0952 18.5841C36.2543 17.7436 34.8863 17.7432 34.0458 18.5841ZM38.2272 21.2984C38.7144 20.2003 38.4738 18.8952 37.6295 18.0502C37.0824 17.503 36.3511 17.2017 35.5708 17.2017C34.7906 17.2017 34.059 17.503 33.5122 18.0502C32.6668 18.8952 32.4269 20.2003 32.9146 21.2984C33.2448 22.0428 34.2544 23.4629 35.0651 24.6038C35.241 24.8505 35.4119 25.0911 35.5708 25.3171C35.7293 25.0911 35.9004 24.8505 36.0754 24.6038C36.8861 23.4628 37.8965 22.0428 38.2272 21.2984ZM34.1651 10.288L34.6385 10.6054L35.3419 9.90237L35.0245 9.42901C34.9225 9.2769 34.9036 9.08408 34.974 8.91502L35.537 7.55408C35.6074 7.38502 35.7576 7.26229 35.9373 7.22682L36.4958 7.1169V6.12197L35.9365 6.01205C35.7576 5.97627 35.6074 5.85354 35.537 5.68447L34.974 4.32393C34.9036 4.15448 34.9225 3.96166 35.0245 3.80994L35.3419 3.33658L34.6385 2.63315L34.1651 2.95057C34.0138 3.0526 33.8198 3.07182 33.6511 3.00182L32.2902 2.43807C32.1215 2.36799 31.9987 2.21815 31.9637 2.03854L31.8534 1.47932H30.8582L30.7483 2.03854C30.7129 2.21815 30.5904 2.36807 30.4206 2.43807L29.0608 3.00182C28.891 3.07182 28.6982 3.05268 28.5465 2.95057L28.0731 2.63315L27.3701 3.33658L27.6871 3.80994C27.7887 3.96174 27.8083 4.15455 27.7379 4.32393L27.1746 5.68447C27.1042 5.85354 26.9543 5.97627 26.7747 6.01205L26.2162 6.12197V7.1169L26.7747 7.22682C26.9543 7.26221 27.1042 7.38494 27.1746 7.55408L27.7379 8.91502C27.8083 9.08408 27.7888 9.2769 27.6871 9.42901L27.3701 9.90237L28.0731 10.6054L28.5465 10.288C28.6983 10.1863 28.891 10.1671 29.0608 10.2371L30.4217 10.8009C30.5904 10.871 30.7128 11.0208 30.7482 11.2004L30.8581 11.7592H31.8533L31.9636 11.2004C31.9986 11.0208 32.1214 10.871 32.2901 10.8009L33.6511 10.2371C33.8209 10.1671 34.0137 10.1863 34.165 10.288H34.1651ZM12.42 8.85776C12.0893 9.60221 11.0801 11.0223 10.269 12.1632C10.0932 12.4099 9.92224 12.6501 9.76364 12.876C9.60513 12.6501 9.43419 12.4099 9.25903 12.1632C8.44794 11.0222 7.43794 9.60221 7.10731 8.85776C6.62005 7.75971 6.8595 6.45416 7.70489 5.60948C8.252 5.06237 8.98294 4.76104 9.76356 4.76104C10.5442 4.76104 11.2754 5.06229 11.8222 5.60948C12.6676 6.45416 12.9075 7.75971 12.42 8.85776ZM38.5129 17.1663C38.1831 16.8364 37.8072 16.5702 37.399 16.371C37.1238 14.5284 36.5435 12.7653 35.6721 11.119L36.2761 10.5146C36.551 10.2393 36.5939 9.80518 36.377 9.48205L36.0957 9.06291L36.4354 8.24315L36.9309 8.14565C37.312 8.07033 37.5895 7.7333 37.5895 7.34432V5.89416C37.5895 5.50518 37.312 5.16815 36.9309 5.09323L36.4354 4.99533L36.0957 4.17557L36.377 3.75643C36.5939 3.4333 36.551 2.99916 36.2761 2.72424L35.2511 1.69885C34.9761 1.42393 34.5416 1.38135 34.2182 1.59791L33.7994 1.87924L32.98 1.53955L32.8825 1.04401C32.8068 0.662522 32.4702 0.385803 32.0808 0.385803H30.6311C30.2417 0.385803 29.9043 0.6626 29.8293 1.0444L29.7318 1.53955L28.9121 1.87924L28.4926 1.59791C28.1699 1.38135 27.7358 1.42393 27.4604 1.69885L26.4358 2.72424C26.3206 2.8383 26.2475 2.98026 26.2151 3.13018C24.5545 2.58338 22.8223 2.30627 21.0479 2.30627C18.0591 2.30627 15.1505 3.10651 12.6004 4.6244C11.8304 3.90588 10.8295 3.51088 9.7638 3.51088C8.64958 3.51088 7.60458 3.94205 6.82099 4.72565C5.61372 5.9333 5.2695 7.79768 5.96544 9.36494C6.12021 9.71323 6.37895 10.1538 6.6888 10.637C5.26466 13.1257 4.51302 15.956 4.51302 18.8409C4.51302 19.1429 4.75778 19.3881 5.06021 19.3881C5.36263 19.3881 5.607 19.1429 5.607 18.8409C5.607 16.3303 6.21778 13.8661 7.37646 11.6617C7.65997 12.0717 7.95599 12.4882 8.24028 12.8878C8.62817 13.4331 8.99458 13.9478 9.24122 14.3251C9.35685 14.501 9.55372 14.6071 9.76388 14.6071C9.97403 14.6071 10.1709 14.501 10.2865 14.3251C10.5343 13.9478 10.8996 13.433 11.2882 12.8878C12.1758 11.6391 13.1811 10.2243 13.563 9.36502C14.1256 8.09635 14.0077 6.63338 13.3013 5.48112C15.6484 4.11799 18.3122 3.39987 21.048 3.39987C22.938 3.39987 24.7772 3.7369 26.5233 4.39963L26.2762 4.99533L25.7811 5.09323C25.3988 5.16815 25.1225 5.50518 25.1225 5.89416V7.34432C25.1225 7.7333 25.3989 8.07033 25.7811 8.14565L26.2762 8.24315L26.6155 9.06291L26.3343 9.48244C26.1178 9.80557 26.1607 10.2397 26.436 10.5146L27.4606 11.54C27.7358 11.8149 28.17 11.8574 28.4928 11.641L28.9122 11.3596L29.732 11.6993L29.8295 12.1942C29.9044 12.576 30.2418 12.8531 30.6312 12.8531H32.081C32.4704 12.8531 32.807 12.5764 32.8827 12.1942L32.9802 11.6993L33.7996 11.3596L34.2183 11.6406C34.3878 11.7539 34.5874 11.7957 34.7779 11.7712C35.4686 13.1084 35.9543 14.5265 36.2277 16.0035C36.0123 15.9696 35.7928 15.9515 35.571 15.9515C34.456 15.9515 33.4114 16.3831 32.6278 17.1663C31.4201 18.3739 31.0763 20.2383 31.7715 21.8056C32.1536 22.6649 33.1591 24.0796 34.0466 25.3283C34.4348 25.8735 34.8005 26.3887 35.0483 26.7656C35.1639 26.9415 35.3597 27.0477 35.5709 27.0477C35.7811 27.0477 35.978 26.9415 36.0936 26.7656C36.3402 26.3887 36.7066 25.8735 37.0941 25.3279C37.9817 24.0796 38.9879 22.6649 39.3693 21.8056C40.0652 20.2383 39.7211 18.3739 38.513 17.1663H38.5129ZM10.4042 8.30916C10.5763 8.13783 10.67 7.91041 10.67 7.66822C10.67 7.42604 10.5763 7.19862 10.405 7.02737C10.2333 6.85643 10.0058 6.7619 9.76364 6.7619C9.52145 6.7619 9.29403 6.85643 9.1231 7.02737C8.95216 7.19869 8.85724 7.42612 8.85724 7.66822C8.85724 7.91033 8.95216 8.13783 9.1231 8.30916C9.4763 8.66237 10.051 8.66237 10.4042 8.30916ZM9.76364 5.51205C9.18786 5.51205 8.64638 5.73612 8.23935 6.14354C7.83153 6.55065 7.60747 7.09213 7.60747 7.66822C7.60747 8.24432 7.83153 8.78588 8.23935 9.19299C8.65958 9.61362 9.21122 9.82377 9.76364 9.82338C10.3161 9.82338 10.8685 9.61322 11.2887 9.19299C11.6958 8.78588 11.9198 8.2444 11.9198 7.66822C11.9198 7.09205 11.6958 6.55057 11.2887 6.14354C10.8817 5.73612 10.3394 5.51205 9.76364 5.51205ZM19.7389 28.3316V29.4255H16.7041V28.3316H19.7389ZM16.7041 29.9399H19.7389V31.0335H16.7041V29.9399ZM25.3689 31.3433H26.8322V32.4369H25.3689V31.3433ZM6.13614 30.7303H3.57403C3.2713 30.7303 3.02685 30.4855 3.02685 30.1835C3.02685 29.8814 3.27122 29.6367 3.57403 29.6367H6.13614C6.43778 29.6367 6.68333 29.8815 6.68333 30.1835C6.68333 30.4854 6.43786 30.7303 6.13614 30.7303ZM3.30364 28.0299H0.821377C0.519033 28.0299 0.274658 27.7852 0.274658 27.4828C0.274658 27.1805 0.519033 26.936 0.821377 26.936H3.30372C3.60575 26.936 3.85052 27.1812 3.85052 27.4828C3.85052 27.7845 3.60567 28.0299 3.30364 28.0299ZM5.78146 24.1141C6.08388 24.1141 6.32864 24.3589 6.32864 24.6608C6.32864 24.9628 6.08388 25.2076 5.78146 25.2076H2.61911C2.31747 25.2076 2.07231 24.9628 2.07231 24.6608C2.07231 24.3588 2.31747 24.1141 2.61911 24.1141H5.78146ZM0.536299 21.5338C0.536299 21.2317 0.781846 20.987 1.08349 20.987H5.54802C5.84966 20.987 6.09481 21.2317 6.09481 21.5338C6.09481 21.8358 5.84966 22.0806 5.54802 22.0806H1.08341C0.781768 22.0806 0.536299 21.8358 0.536299 21.5338ZM25.9161 29.7181V26.2581H28.3581L30.8754 29.7181H25.9161ZM32.4371 30.513C32.3433 30.6964 32.1551 30.8116 31.9494 30.8116H25.369C25.0677 30.8116 24.8225 30.5668 24.8225 30.2648V25.711C24.8225 25.4089 25.0677 25.1642 25.369 25.1642H28.6372C28.8122 25.1642 28.9761 25.2481 29.0793 25.3893L32.3919 29.9431C32.5132 30.1092 32.5301 30.3295 32.4372 30.5129L32.4371 30.513ZM30.6902 35.946C30.2832 35.0359 29.37 34.3999 28.31 34.3999C27.25 34.3999 26.3364 35.0359 25.9293 35.946H24.4573V24.7993H28.734C28.9779 24.7993 29.1738 24.8991 29.3176 25.0964L32.6872 29.7282C32.8701 29.9794 32.9511 30.2298 32.9511 30.5405V33.8927H32.0357V34.9863H32.9511V35.9461H30.6903L30.6902 35.946ZM28.31 38.5203C29.144 38.5203 29.823 37.8413 29.823 37.0068C29.823 36.1724 29.1441 35.4938 28.31 35.4938C27.4758 35.4938 26.7965 36.1728 26.7965 37.0068C26.7965 37.8409 27.4755 38.5203 28.31 38.5203ZM11.5122 38.5203C12.3466 38.5203 13.0256 37.8413 13.0256 37.0068C13.0256 36.1724 12.3467 35.4938 11.5122 35.4938C10.6776 35.4938 9.99911 36.1728 9.99911 37.0068C9.99911 37.8409 10.6777 38.5203 11.5122 38.5203ZM6.47411 33.1264H23.3638V35.946H13.8928C13.4858 35.0359 12.5725 34.3999 11.5122 34.3999C10.4518 34.3999 9.53856 35.0359 9.13185 35.946H6.47403V33.1264H6.47411ZM8.5738 19.8091H12.2265V23.5653C12.2265 23.8674 12.4716 24.1121 12.7733 24.1121H16.5988C16.9004 24.1121 17.146 23.8674 17.146 23.5653V19.8091H20.7983V32.0328H8.57372L8.5738 19.8091ZM13.32 19.8091H16.052V23.0185H13.32V19.8091ZM30.2018 24.4529C29.8512 23.9709 29.3301 23.7054 28.734 23.7054H23.9105C23.6081 23.7054 23.3637 23.9506 23.3637 24.2526V32.0328H21.8917V19.2624C21.8917 18.9603 21.6465 18.7152 21.3449 18.7152H8.02692C7.72528 18.7152 7.48013 18.9603 7.48013 19.2624V32.0328H5.92677C5.62442 32.0328 5.37997 32.2776 5.37997 32.5796V36.4929C5.37997 36.7949 5.62435 37.0401 5.92677 37.0401H8.90575C8.9238 38.4624 10.0855 39.6143 11.512 39.6143C12.9385 39.6143 14.1001 38.4624 14.1182 37.0401H25.7036C25.7212 38.4624 26.8833 39.6143 28.3098 39.6143C29.7363 39.6143 30.8979 38.4624 30.916 37.0401H33.4981C33.8001 37.0401 34.0449 36.7949 34.0449 36.4929V30.5405C34.0449 29.999 33.8901 29.523 33.5715 29.0847L30.2017 24.4529H30.2018Z" fill="black"/>
</g>
<defs>
<clipPath id="clip0_4_289">
<rect width="40" height="40" fill="white"/>
</clipPath>
</defs>
</svg>
