<svg width="40" height="38" viewBox="0 0 40 38" fill="none" xmlns="http://www.w3.org/2000/svg">
<path fill-rule="evenodd" clip-rule="evenodd" d="M23.0047 31.4732L33.3935 34.2569C34.3298 30.4319 35.9947 29.2784 38.2916 26.9816C38.9856 26.2877 39.3358 25.4421 39.3359 24.4605L39.3356 9.43734C39.3358 8.35539 38.4501 7.46976 37.3677 7.4696C36.2855 7.46953 35.3996 8.355 35.3996 9.43765L35.3998 17.4594C35.1159 16.8804 34.5937 16.4214 33.9256 16.2423C32.7006 15.9141 31.426 16.65 31.0977 17.875L30.466 20.2329C30.1887 21.268 29.5811 22.0598 28.6532 22.5955L25.5099 24.4102C23.6989 25.4559 24.4846 28.1456 23.0049 31.4733L23.0047 31.4732Z" fill="#FECBAA"/>
<path fill-rule="evenodd" clip-rule="evenodd" d="M34.532 22.9003C34.3272 23.6645 33.9379 24.3741 33.3761 24.934C33.1122 25.1982 32.6841 25.1984 32.4198 24.9346C32.1556 24.6708 32.1553 24.2426 32.4191 23.9784C32.8264 23.5724 33.0775 23.1027 33.226 22.5493C33.5679 21.2729 33.91 19.9965 34.252 18.7202C34.5199 17.7205 34.0814 16.6904 33.2461 16.1655C33.47 16.1571 33.6986 16.1814 33.9256 16.2422C35.1522 16.5709 35.887 17.8434 35.5582 19.0702C35.2161 20.347 34.874 21.6237 34.532 22.9003Z" fill="#FECBAA"/>
<path fill-rule="evenodd" clip-rule="evenodd" d="M23.0047 31.4732L27.8121 32.7613C30.5863 31.0423 32.9884 28.6337 34.7345 25.6095C37.9624 20.0184 38.2492 13.5373 36.0769 7.95508C35.6625 8.31664 35.3996 8.84773 35.3995 9.43766L35.3997 17.4595C35.1157 16.8804 34.5936 16.4214 33.9256 16.2423C32.7006 15.9142 31.4259 16.65 31.0977 17.875L30.4659 20.2329C30.1886 21.268 29.581 22.0598 28.6531 22.5955L25.5099 24.4102C23.6988 25.4558 24.4845 28.1455 23.0047 31.4732Z" fill="#FEDFC5"/>
<path fill-rule="evenodd" clip-rule="evenodd" d="M34.532 22.9003C34.3271 23.6645 33.9379 24.3741 33.376 24.934C33.1122 25.1982 32.6841 25.1984 32.4198 24.9346C32.1556 24.6707 32.1553 24.2426 32.4192 23.9784C32.8264 23.5724 33.0776 23.1027 33.226 22.5493C33.568 21.2729 33.91 19.9965 34.2521 18.7202C34.52 17.7205 34.0815 16.6903 33.2462 16.1655C33.4701 16.1571 33.6986 16.1813 33.9256 16.2422C35.1523 16.5709 35.8869 17.8435 35.5582 19.0702C35.2162 20.347 34.8741 21.6238 34.532 22.9003Z" fill="#FECBAA"/>
<path fill-rule="evenodd" clip-rule="evenodd" d="M22.4522 30.8947L34.0497 34.0022C34.2786 34.0636 34.4156 34.3009 34.3543 34.5298L33.8897 36.2637C33.8285 36.4925 33.591 36.6295 33.3622 36.5683L21.7647 33.4607C21.5358 33.3994 21.3988 33.1619 21.46 32.9332L21.9247 31.1992C21.9858 30.9704 22.2232 30.8333 22.4522 30.8947Z" fill="#2891FA"/>
<path fill-rule="evenodd" clip-rule="evenodd" d="M22.4521 30.8947L28.2864 32.458C27.1925 33.1783 26.0364 33.7883 24.8359 34.2837L21.7645 33.4607C21.5358 33.3994 21.3987 33.1619 21.4599 32.9332L21.9245 31.1992C21.9858 30.9704 22.2233 30.8333 22.4521 30.8947Z" fill="#43A2FF"/>
<path fill-rule="evenodd" clip-rule="evenodd" d="M16.9952 31.4732L6.60649 34.2569C5.67016 30.4319 4.00523 29.2784 1.70836 26.9816C1.0143 26.2877 0.664141 25.4421 0.664062 24.4605L0.664297 9.43734C0.664141 8.35539 1.54984 7.46976 2.63227 7.4696C3.71445 7.46953 4.60031 8.355 4.60031 9.43765L4.60016 17.4594C4.88406 16.8804 5.40625 16.4214 6.0743 16.2423C7.2993 15.9141 8.57399 16.65 8.90219 17.875L9.53391 20.2329C9.81125 21.268 10.4188 22.0598 11.3467 22.5955L14.49 24.4102C16.301 25.4559 15.5153 28.1456 16.9951 31.4733L16.9952 31.4732Z" fill="#FECBAA"/>
<path fill-rule="evenodd" clip-rule="evenodd" d="M5.46795 22.9003C5.6728 23.6645 6.06202 24.3741 6.62389 24.934C6.88772 25.1982 7.31592 25.1984 7.58014 24.9346C7.84436 24.6708 7.84467 24.2426 7.58084 23.9784C7.1735 23.5724 6.92241 23.1027 6.77405 22.5493C6.43209 21.2729 6.08998 19.9965 5.74803 18.7202C5.48014 17.7205 5.91866 16.6904 6.75389 16.1655C6.52998 16.1571 6.30147 16.1814 6.07452 16.2422C4.84787 16.5709 4.11311 17.8434 4.44178 19.0702C4.78381 20.347 5.12592 21.6237 5.46795 22.9003Z" fill="#FECBAA"/>
<path fill-rule="evenodd" clip-rule="evenodd" d="M16.9952 31.4732L12.1878 32.7613C9.41375 31.0423 7.01149 28.6337 5.26547 25.6095C2.0375 20.0184 1.75078 13.5373 3.92305 7.95508C4.33743 8.31664 4.60039 8.84773 4.60039 9.43766L4.60024 17.4595C4.88422 16.8804 5.40633 16.4214 6.07438 16.2423C7.2993 15.9142 8.57399 16.65 8.90227 17.875L9.53399 20.2329C9.81133 21.268 10.4189 22.0598 11.3469 22.5955L14.4902 24.4102C16.3012 25.4558 15.5155 28.1456 16.9953 31.4733L16.9952 31.4732Z" fill="#FEDFC5"/>
<path fill-rule="evenodd" clip-rule="evenodd" d="M5.46798 22.9003C5.67282 23.6645 6.06204 24.3741 6.62392 24.934C6.88775 25.1982 7.31595 25.1984 7.58017 24.9346C7.84439 24.6707 7.8447 24.2426 7.58079 23.9784C7.17353 23.5724 6.92236 23.1027 6.774 22.5493C6.43196 21.2729 6.08993 19.9965 5.74798 18.7202C5.48009 17.7205 5.91853 16.6903 6.75384 16.1655C6.52993 16.1571 6.30142 16.1813 6.07439 16.2422C4.84767 16.5709 4.11306 17.8435 4.44173 19.0702C4.78376 20.347 5.12587 21.6238 5.46798 22.9003Z" fill="#FECBAA"/>
<path fill-rule="evenodd" clip-rule="evenodd" d="M17.5478 30.8947L5.95026 34.0022C5.72143 34.0635 5.5844 34.3008 5.64565 34.5297L6.11026 36.2637C6.17151 36.4924 6.40901 36.6294 6.63776 36.5682L18.2353 33.4606C18.4642 33.3994 18.6012 33.1619 18.5399 32.9331L18.0753 31.1991C18.0142 30.9704 17.7767 30.8333 17.5478 30.8947Z" fill="#2891FA"/>
<path fill-rule="evenodd" clip-rule="evenodd" d="M17.5478 30.8947L11.7135 32.458C12.8074 33.1783 13.9635 33.7883 15.164 34.2837L18.2353 33.4607C18.464 33.3994 18.6012 33.1619 18.5399 32.9332L18.0753 31.1992C18.0141 30.9704 17.7766 30.8333 17.5478 30.8947Z" fill="#43A2FF"/>
<path fill-rule="evenodd" clip-rule="evenodd" d="M20 23.5325C24.5744 18.9343 30.1369 15.8202 31.444 9.23696C32.7441 2.68868 24.8101 -1.82304 20 4.34758C15.1899 -1.82304 7.25585 2.68867 8.55601 9.23688C9.86311 15.8201 15.4255 18.9343 20 23.5325Z" fill="#EB4E5C"/>
<path fill-rule="evenodd" clip-rule="evenodd" d="M28.2285 15.7164C29.7485 13.894 30.928 11.8359 31.4441 9.23688C32.7442 2.68867 24.8102 -1.82304 20 4.34758C17.5979 1.2661 14.4169 0.848753 11.9957 2.01852C13.3892 9.75141 20.1142 15.6309 28.2285 15.7164Z" fill="#FF6372"/>
<path fill-rule="evenodd" clip-rule="evenodd" d="M6.63553 35.9625L6.25233 34.5284L17.5497 31.5011L17.9329 32.9352L6.63553 35.9625ZM3.01717 27.4438C4.69006 29.0644 6.03499 30.3655 6.90459 33.1404L16.0611 30.6867C15.6889 29.5839 15.5194 28.5621 15.3794 27.7154C15.1251 26.1785 14.9557 25.3561 14.1966 24.918L11.0536 23.1033C9.98873 22.4883 9.28858 21.5738 8.96803 20.3851L8.33428 18.0273C8.09108 17.1098 7.14413 16.5634 6.22663 16.8091C5.74022 16.9396 5.35702 17.2668 5.14334 17.682C5.13225 17.7048 5.12124 17.727 5.11014 17.7484C4.94436 18.1025 4.90014 18.5137 5.00694 18.9194L5.93178 22.3672C6.08655 22.9483 6.36655 23.442 6.76084 23.8352C6.98928 24.0636 6.98928 24.4347 6.76084 24.6638C6.53241 24.8931 6.16389 24.8934 5.93178 24.6649C5.39014 24.1244 5.01061 23.4534 4.80061 22.6704L3.87577 19.2227C3.70256 18.5694 3.76522 17.908 4.01577 17.3309V9.43844C4.01577 9.07141 3.87209 8.72508 3.60678 8.46274C3.34522 8.20079 2.99881 8.05633 2.63405 8.05633C2.26561 8.05633 1.9192 8.20079 1.65756 8.46274C1.396 8.72508 1.24858 9.0711 1.24858 9.43813V24.4611C1.24858 25.2913 1.536 25.9807 2.12186 26.5677C2.43131 26.8767 2.72975 27.1649 3.01717 27.4438ZM18.6404 31.0478C18.5704 30.7862 18.4008 30.567 18.1687 30.431C17.933 30.2951 17.6565 30.259 17.3949 30.329L17.1959 30.3828C16.8385 29.3485 16.6764 28.3861 16.5364 27.5234C16.2784 25.9755 16.0574 24.6384 14.7825 23.9032L11.6394 22.0888C10.8435 21.6279 10.3387 20.9716 10.0992 20.0818L9.46913 17.724C9.05647 16.1823 7.46459 15.2645 5.92444 15.6771C5.65545 15.7482 5.41225 15.8551 5.18749 15.9892V9.43852C5.18749 8.75837 4.9185 8.11758 4.43584 7.63415C3.95311 7.15071 3.31202 6.88469 2.6303 6.88469C1.95233 6.88469 1.31116 7.15071 0.828501 7.63415C0.345767 8.11798 0.0767822 8.75837 0.0767822 9.43821V24.4612C0.0767822 25.602 0.485767 26.5899 1.29272 27.3964C1.60959 27.7122 1.91178 28.0037 2.20288 28.2859C3.80202 29.8356 4.9885 30.9853 5.76967 33.4456C5.5228 33.52 5.3128 33.6836 5.18381 33.9106C5.04748 34.146 5.01061 34.4198 5.08061 34.6818L5.54491 36.4159C5.61491 36.6778 5.78444 36.8967 6.02022 37.0327C6.17498 37.1233 6.34819 37.1697 6.52506 37.1694C6.6135 37.1694 6.70194 37.158 6.79038 37.1348L18.3862 34.0271C18.9278 33.882 19.252 33.3234 19.1047 32.782L18.6404 31.0478ZM37.8782 26.5676C37.5687 26.8767 37.2702 27.1649 36.9828 27.4438C35.3099 29.0644 33.965 30.3655 33.0955 33.1404L23.939 30.6867C24.3112 29.5839 24.4806 28.5621 24.6207 27.7154C24.8749 26.1785 25.0444 25.3561 25.8035 24.918L28.9465 23.1033C30.0114 22.4883 30.7152 21.5738 31.0321 20.3851L31.6658 18.0273C31.909 17.1098 32.856 16.5634 33.7735 16.8091C34.2599 16.9396 34.6431 17.2668 34.8569 17.682C34.8679 17.7048 34.879 17.727 34.89 17.7484C35.0558 18.1025 35.1 18.5137 34.9932 18.9194L34.0683 22.3672C33.9136 22.9483 33.6336 23.442 33.2393 23.8352C33.0108 24.0636 33.0108 24.4347 33.2393 24.6638C33.4677 24.8931 33.8362 24.8938 34.0683 24.6649C34.61 24.1244 34.9895 23.4534 35.1995 22.6704L36.1244 19.2227C36.2976 18.5694 36.2349 17.908 35.9844 17.3309V9.43844C35.9844 9.07141 36.1317 8.72508 36.3933 8.46274C36.655 8.20079 37.0013 8.05633 37.3698 8.05633C37.7346 8.05633 38.081 8.20079 38.3426 8.46274C38.6042 8.72508 38.7515 9.0711 38.7515 9.43813V24.4611C38.7515 25.2912 38.464 25.9806 37.8782 26.5676ZM33.3644 35.9625L33.7476 34.5284L33.346 34.4201C33.3423 34.4201 33.3423 34.4201 33.3423 34.4201L22.4503 31.5011L22.0671 32.9352L33.3644 35.9625ZM39.9232 9.43813C39.9232 8.75829 39.6542 8.1179 39.1715 7.63407C38.6888 7.15063 38.0477 6.88462 37.3698 6.88462C36.6881 6.88462 36.0469 7.15063 35.5643 7.63407C35.0815 8.11751 34.8126 8.75829 34.8126 9.43844V15.9891C34.5878 15.855 34.3446 15.7481 34.0756 15.677C32.5354 15.264 30.9436 16.1822 30.5309 17.7239L29.9008 20.0817C29.6613 20.9716 29.1602 21.6278 28.3606 22.0888L25.2176 23.9031C23.9463 24.6382 23.7215 25.9754 23.4673 27.5234C23.3237 28.3859 23.1615 29.3484 22.804 30.3827L22.6051 30.3289C22.3434 30.2589 22.0671 30.295 21.8312 30.4309C21.5991 30.5669 21.4296 30.7862 21.3596 31.0477L20.8953 32.7817C20.748 33.323 21.0722 33.8816 21.6138 34.0268L33.2096 37.1345C33.298 37.1577 33.3865 37.1691 33.4749 37.1691C33.6518 37.1691 33.825 37.1231 33.9834 37.0323C34.2156 36.8964 34.3851 36.6771 34.4551 36.4156L34.9194 34.6815C34.9894 34.4195 34.9562 34.1457 34.8199 33.9102C34.6873 33.6833 34.4772 33.5197 34.2304 33.4452C35.0115 30.9849 36.198 29.8349 37.7972 28.2856C38.0883 28.0033 38.3904 27.7119 38.7073 27.3961C39.5143 26.5895 39.9233 25.6016 39.9233 24.4609V9.43813H39.9232ZM20 22.7086C18.9867 21.72 17.9329 20.794 16.9085 19.8949C14.5024 17.7814 12.1921 15.7478 10.6666 13.1453H14.5466C14.8045 13.1453 15.0367 12.9743 15.1104 12.7248L16.518 7.94618L19.9337 17.4804C20.0184 17.7136 20.2395 17.8684 20.4863 17.8684H20.4974C20.748 17.864 20.969 17.7 21.0427 17.4605L23.3862 10.1191L24.9448 12.8498C25.048 13.0326 25.2433 13.1454 25.4533 13.1454H29.3333C27.8115 15.7479 25.4976 17.7815 23.0915 19.895C22.0671 20.7937 21.0133 21.7196 20 22.7086ZM9.13006 9.12384C8.48522 5.86173 10.2834 3.44493 12.3579 2.49727C13.0137 2.19696 13.7765 2.01126 14.5945 2.01126C16.1973 2.01126 17.9955 2.72899 19.5394 4.70883C19.6499 4.8511 19.8194 4.93438 20 4.93438C20.1805 4.93438 20.35 4.8511 20.4643 4.70883C22.793 1.72126 25.7002 1.60743 27.6421 2.49727C29.7166 3.44501 31.5184 5.8618 30.8699 9.12384C30.6636 10.1534 30.3504 11.0963 29.9451 11.9736H25.7924L23.7437 8.37923C23.6258 8.17688 23.4011 8.06235 23.1726 8.08704C22.9405 8.11133 22.7452 8.26985 22.6752 8.49165L20.4533 15.4561L17.0117 5.86024C16.9269 5.62149 16.7022 5.46563 16.4443 5.47188C16.19 5.47923 15.9726 5.64915 15.899 5.89227L14.1082 11.9735H10.055C9.64967 11.0963 9.33647 10.1533 9.13006 9.12384ZM30.6819 13.1453C29.0901 16.1823 26.533 18.4318 23.8652 20.7752C22.7156 21.7848 21.5291 22.8291 20.4163 23.9463C20.3058 24.0569 20.1547 24.1191 20 24.1191C19.8452 24.1191 19.6941 24.0569 19.5836 23.9463C18.4744 22.8291 17.2844 21.7848 16.1347 20.7752C13.4669 18.4318 10.9098 16.1823 9.31795 13.1453H7.92514C7.60092 13.1453 7.33928 12.883 7.33928 12.5595C7.33928 12.2359 7.60092 11.9736 7.92514 11.9736H8.77264C8.43733 11.1604 8.16834 10.2915 7.98045 9.35196C7.64147 7.64337 7.86624 5.9679 8.63264 4.50735C9.34381 3.1536 10.4934 2.0611 11.8679 1.43133C13.2533 0.798288 14.7567 0.662741 16.2195 1.0393C17.6087 1.39782 18.9057 2.22173 20.0001 3.43657C21.0944 2.22173 22.3915 1.39782 23.7806 1.0393C25.2434 0.662741 26.7468 0.798366 28.1322 1.43133C29.5066 2.06102 30.6563 3.1536 31.3674 4.50735C32.1338 5.96798 32.3586 7.64337 32.0196 9.35196C31.8317 10.2916 31.5627 11.1604 31.2274 11.9736H32.0749C32.3991 11.9736 32.6608 12.2359 32.6608 12.5595C32.6608 12.883 32.3991 13.1453 32.0749 13.1453H30.6819Z" fill="black"/>
</svg>
