<svg width="40" height="40" viewBox="0 0 40 40" fill="none" xmlns="http://www.w3.org/2000/svg">
<path d="M34.3568 0.585938H9.47772C9.26202 0.585938 9.0871 0.760859 9.0871 0.976562V11.8069H11.6491C12.7065 11.8069 13.5637 12.6641 13.5637 13.7216C13.5637 14.7341 12.7776 15.5624 11.7826 15.6311V18.0062C12.1576 18.0635 12.445 18.3865 12.445 18.7774V23.6269C12.445 24.0178 12.1575 24.3408 11.7826 24.3981L11.7826 26.7732C12.7777 26.8419 13.5637 27.6702 13.5637 28.6827C13.5637 29.7402 12.7065 30.5974 11.6491 30.5974H9.0871V33.8034H14.4786C14.9101 33.8034 15.2598 34.1532 15.2598 34.5847V36.1391C15.2598 36.1398 15.2598 36.1405 15.2598 36.1412H15.855C16.2865 36.1412 16.6362 36.4909 16.6362 36.9224V39.4141H34.7475V0.976562C34.7474 0.760859 34.5726 0.585938 34.3568 0.585938Z" fill="#FFF3DE"/>
<path d="M11.6491 11.8069C11.6724 11.8069 11.6955 11.8078 11.7187 11.8087V0.976562C11.7187 0.760859 11.8937 0.585938 12.1094 0.585938H9.47772C9.26202 0.585938 9.0871 0.760859 9.0871 0.976562V11.8069H11.6491Z" fill="#FFE5C2"/>
<path d="M11.6491 30.5975H9.08711V33.8036H11.7188V30.5958C11.6955 30.5966 11.6724 30.5975 11.6491 30.5975Z" fill="#FFE5C2"/>
<path d="M12.445 19.8664H16.0613V22.538H12.445V19.8664Z" fill="#883F2E"/>
<path d="M18.5548 19.8664H23.72V22.538H18.5548V19.8664Z" fill="#883F2E"/>
<path d="M12.445 21.25H16.0613V22.538H12.445V21.25Z" fill="#6D3326"/>
<path d="M18.5548 21.25H23.72V22.538H18.5548V21.25Z" fill="#6D3326"/>
<path d="M38.2361 21.2023C38.2361 22.2843 37.3589 23.1615 36.2768 23.1615H24.1653C23.9193 23.1615 23.72 22.9621 23.72 22.7162V19.6883C23.72 19.4424 23.9193 19.243 24.1653 19.243H36.2768C37.3589 19.2431 38.2361 20.1202 38.2361 21.2023Z" fill="#CA6E59"/>
<path d="M26.3827 21.4844C26.1368 21.4844 25.9375 21.285 25.9375 21.0391V19.243H24.1653C23.9193 19.243 23.72 19.4424 23.72 19.6883V22.7162C23.72 22.9621 23.9193 23.1615 24.1653 23.1615H36.2768C37.263 23.1615 38.0787 22.4327 38.2155 21.4844H26.3827Z" fill="#BB5D4C"/>
<path d="M18.5548 19.6337V22.7709C18.5548 22.9866 18.3799 23.1615 18.1642 23.1615H16.4519C16.2362 23.1615 16.0613 22.9866 16.0613 22.7709V19.6337C16.0613 19.418 16.2362 19.243 16.4519 19.243H18.1642C18.38 19.243 18.5548 19.4179 18.5548 19.6337Z" fill="#CA6E59"/>
<path d="M17.1939 22.7709V19.6337C17.1939 19.418 17.3689 19.243 17.5846 19.243H16.4519C16.2362 19.243 16.0613 19.418 16.0613 19.6337V22.7709C16.0613 22.9866 16.2362 23.1615 16.4519 23.1615H17.5846C17.3688 23.1615 17.1939 22.9866 17.1939 22.7709Z" fill="#BB5D4C"/>
<path d="M11.6637 24.4082H6.73628C6.69573 24.4082 6.65628 24.4041 6.61737 24.3982V26.7733C6.66159 26.7702 6.70596 26.7681 6.75096 26.7681H11.649C11.6939 26.7681 11.7384 26.7702 11.7826 26.7733V24.3982C11.7437 24.4042 11.7042 24.4082 11.6637 24.4082Z" fill="#883F2E"/>
<path d="M6.73628 24.4082C6.69573 24.4082 6.65628 24.4041 6.61737 24.3982V26.7733C6.66159 26.7702 6.70596 26.7681 6.75096 26.7681H8.58471V24.4081L6.73628 24.4082Z" fill="#6D3326"/>
<path d="M6.73628 17.9962H11.6637C11.7042 17.9962 11.7437 18.0003 11.7826 18.0062V15.6312C11.7384 15.6342 11.6939 15.6363 11.649 15.6363H6.75096C6.70604 15.6363 6.66159 15.6342 6.61737 15.6312V18.0062C6.65628 18.0003 6.69573 17.9962 6.73628 17.9962Z" fill="#883F2E"/>
<path d="M6.73629 17.9963H8.58473V15.6363H6.75098C6.70606 15.6363 6.6616 15.6342 6.61739 15.6311V18.0062C6.65629 18.0003 6.69574 17.9963 6.73629 17.9963Z" fill="#6D3326"/>
<path d="M12.445 18.7775V23.627C12.445 24.0585 12.0952 24.4082 11.6637 24.4082H6.7363C6.30481 24.4082 5.95505 24.0585 5.95505 23.627V18.7775C5.95505 18.346 6.30481 17.9963 6.7363 17.9963H11.6637C12.0952 17.9963 12.445 18.346 12.445 18.7775Z" fill="#CA6E59"/>
<path d="M8.59372 23.627V18.7775C8.59372 18.346 8.94349 17.9963 9.37497 17.9963H6.7363C6.30481 17.9963 5.95505 18.346 5.95505 18.7775V23.627C5.95505 24.0585 6.30481 24.4082 6.7363 24.4082H9.37497C8.94349 24.4082 8.59372 24.0585 8.59372 23.627Z" fill="#BB5D4C"/>
<path d="M15.2557 36.2194C15.2583 36.1931 15.2597 36.1663 15.2597 36.1392V34.5848C15.2597 34.1533 14.9099 33.8035 14.4785 33.8035H3.92143C3.48995 33.8035 3.14018 34.1533 3.14018 34.5848V36.1392C3.14018 36.1663 3.14159 36.1931 3.14425 36.2194H15.2557Z" fill="#CA6E59"/>
<path d="M5.78526 36.2194C5.7826 36.1931 5.7812 36.1663 5.7812 36.1392V34.5848C5.7812 34.1533 6.13096 33.8035 6.56245 33.8035H3.92143C3.48995 33.8035 3.14018 34.1533 3.14018 34.5848V36.1392C3.14018 36.1663 3.14159 36.1931 3.14425 36.2194H5.78526Z" fill="#BB5D4C"/>
<path d="M16.6361 39.414H2.15448C1.93878 39.414 1.76385 39.2391 1.76385 39.0234V36.9225C1.76385 36.491 2.11362 36.1412 2.5451 36.1412H15.8549C16.2864 36.1412 16.6361 36.491 16.6361 36.9225V39.414Z" fill="#883F2E"/>
<path d="M4.37495 39.0234V36.9225C4.37495 36.491 4.72471 36.1412 5.1562 36.1412H2.5451C2.11362 36.1412 1.76385 36.491 1.76385 36.9225V39.0234C1.76385 39.2391 1.93878 39.414 2.15448 39.414H4.76557C4.54987 39.414 4.37495 39.2391 4.37495 39.0234Z" fill="#6D3326"/>
<path d="M13.5637 28.6829C13.5637 29.7403 12.7065 30.5976 11.649 30.5976H6.75099C5.69357 30.5976 4.8363 29.7403 4.8363 28.6829C4.8363 27.6255 5.69357 26.7682 6.75099 26.7682H11.649C12.7065 26.7682 13.5637 27.6255 13.5637 28.6829Z" fill="#CA6E59"/>
<path d="M7.44443 28.6829C7.44443 27.6255 8.30169 26.7682 9.35912 26.7682H6.75099C5.69357 26.7682 4.8363 27.6255 4.8363 28.6829C4.8363 29.7403 5.69357 30.5976 6.75099 30.5976H9.35912C8.30169 30.5976 7.44443 29.7403 7.44443 28.6829Z" fill="#BB5D4C"/>
<path d="M13.5637 13.7216C13.5637 14.779 12.7065 15.6363 11.649 15.6363H6.75099C5.69357 15.6363 4.8363 14.779 4.8363 13.7216C4.8363 12.6642 5.69357 11.8069 6.75099 11.8069H11.649C12.7065 11.8069 13.5637 12.6642 13.5637 13.7216Z" fill="#CA6E59"/>
<path d="M7.44443 13.7216C7.44443 12.6642 8.30169 11.8069 9.35912 11.8069H6.75099C5.69357 11.8069 4.8363 12.6642 4.8363 13.7216C4.8363 14.779 5.69357 15.6363 6.75099 15.6363H9.35912C8.30169 15.6363 7.44443 14.7791 7.44443 13.7216Z" fill="#BB5D4C"/>
<path d="M21.9173 15.191C24.9449 15.191 27.3992 12.7367 27.3992 9.70907C27.3992 6.68147 24.9449 4.22711 21.9173 4.22711C18.8897 4.22711 16.4353 6.68147 16.4353 9.70907C16.4353 12.7367 18.8897 15.191 21.9173 15.191Z" fill="#4FC123"/>
<path d="M19.0625 9.70907C19.0625 7.13438 20.8379 4.97531 23.2309 4.38664C22.8098 4.28305 22.3701 4.22711 21.9173 4.22711C18.8897 4.22711 16.4353 6.68149 16.4353 9.70907C16.4353 12.7366 18.8897 15.191 21.9173 15.191C22.3702 15.191 22.8099 15.135 23.2309 15.0315C20.8379 14.4427 19.0625 12.2838 19.0625 9.70907Z" fill="#47A920"/>
<path d="M36.2769 18.6571H35.3334V8.51562C35.3334 8.18609 35.0614 7.92008 34.7295 7.92992C34.4088 7.93953 34.1616 8.2193 34.1616 8.54016V18.657H30.2344C29.9107 18.657 29.6484 18.9194 29.6484 19.243C29.6484 19.5666 29.9107 19.8289 30.2344 19.8289H36.2769C37.0341 19.8289 37.6502 20.445 37.6502 21.2022C37.6502 21.9594 37.0341 22.5755 36.2769 22.5755H24.306V19.8289H27.5C27.8237 19.8289 28.0859 19.5666 28.0859 19.243C28.0859 18.9194 27.8237 18.657 27.5 18.657H24.1653C23.7416 18.657 23.3769 18.9141 23.2186 19.2804H19.0737C18.9317 18.9162 18.578 18.657 18.1642 18.657H16.4519C16.0381 18.657 15.6844 18.9163 15.5425 19.2804H13.0309V18.7774C13.0309 18.2816 12.7647 17.8478 12.3685 17.6081V16.1162C13.3977 15.8064 14.1497 14.8503 14.1497 13.7215C14.1497 12.3427 13.028 11.2209 11.6491 11.2209H9.67296V1.17188H34.1615V5.78125C34.1615 6.11078 34.4335 6.3768 34.7654 6.36695C35.0861 6.35734 35.3334 6.07758 35.3334 5.75672V0.976562C35.3334 0.437188 34.8962 0 34.3568 0H9.47765C8.93828 0 8.50109 0.437188 8.50109 0.976562V11.2209H6.75101C5.37218 11.2209 4.25039 12.3427 4.25039 13.7216C4.25039 14.8503 5.00234 15.8063 6.03148 16.1162V17.6081C5.63531 17.8478 5.36906 18.2816 5.36906 18.7774V23.6269C5.36906 24.1227 5.63531 24.5565 6.03148 24.7962V26.2881C5.00234 26.598 4.25039 27.554 4.25039 28.6828C4.25039 30.0616 5.3721 31.1834 6.75101 31.1834H8.50109V33.2176H3.92148C3.16765 33.2176 2.55429 33.8309 2.55429 34.5848V35.5553H2.54515C1.79132 35.5553 1.17796 36.1687 1.17796 36.9225V39.0234C1.17796 39.562 1.61601 40 2.15453 40H34.3568C34.8962 40 35.3334 39.5628 35.3334 39.0234V23.7474H36.2768C37.6802 23.7474 38.8219 22.6057 38.8219 21.2023C38.8219 19.7988 37.6803 18.6571 36.2769 18.6571ZM19.1408 20.4523H23.1341V21.9521H19.1408V20.4523ZM16.6473 19.829H17.9689V22.5755H16.6473V19.829ZM13.0309 20.4523H15.4754V21.9521H13.0309V20.4523ZM5.42226 13.7216C5.42226 12.9889 6.01835 12.3928 6.75101 12.3928H11.6491C12.3817 12.3928 12.9778 12.9889 12.9778 13.7216C12.9778 14.4542 12.3817 15.0503 11.6491 15.0503H6.75101C6.01835 15.0504 5.42226 14.4543 5.42226 13.7216ZM6.73632 23.8223C6.62859 23.8223 6.54101 23.7346 6.54101 23.627V18.7775C6.54101 18.6698 6.62859 18.5822 6.73632 18.5822H11.6637C11.7715 18.5822 11.8591 18.6698 11.8591 18.7775V23.627C11.8591 23.7346 11.7715 23.8223 11.6637 23.8223H6.73632ZM11.1966 24.9941V26.1823H7.20335V24.9941H11.1966ZM7.20335 17.4103V16.2222H11.1966V17.4103H7.20335ZM6.75101 30.0116C6.01835 30.0116 5.42226 29.4155 5.42226 28.6829C5.42226 27.9502 6.01835 27.3541 6.75101 27.3541H11.6491C12.3817 27.3541 12.9778 27.9502 12.9778 28.6829C12.9778 29.4155 12.3817 30.0116 11.6491 30.0116H6.75101ZM16.0502 38.8281H2.34984V36.9225C2.34984 36.8148 2.43742 36.7272 2.54515 36.7272H6.17187C6.49554 36.7272 6.75781 36.4648 6.75781 36.1413C6.75781 35.8177 6.49554 35.5553 6.17187 35.5553H3.72617V34.5848C3.72617 34.4771 3.81374 34.3895 3.92148 34.3895H14.4785C14.5862 34.3895 14.6738 34.4771 14.6738 34.5848V35.5553H8.90624C8.58257 35.5553 8.32031 35.8177 8.32031 36.1413C8.32031 36.4648 8.58257 36.7272 8.90624 36.7272H15.8549C15.9627 36.7272 16.0502 36.8148 16.0502 36.9225V38.8281ZM34.1616 38.8281H17.2221V36.9225C17.2221 36.1687 16.6087 35.5553 15.8549 35.5553H15.8457V34.5848C15.8457 33.8309 15.2323 33.2176 14.4785 33.2176H9.67296V31.1834H11.6491C13.0279 31.1834 14.1497 30.0617 14.1497 28.6828C14.1497 27.554 13.3977 26.598 12.3685 26.2881V24.7962C12.7647 24.5565 13.0309 24.1227 13.0309 23.6269V23.1239H15.5425C15.6844 23.4881 16.0381 23.7473 16.4519 23.7473H18.1642C18.578 23.7473 18.9317 23.488 19.0737 23.1239H23.2186C23.3769 23.4902 23.7416 23.7473 24.1653 23.7473H34.1615V38.8281H34.1616Z" fill="black"/>
<path d="M15.8494 9.70907C15.8494 13.0549 18.5714 15.777 21.9173 15.777C25.2631 15.777 27.9851 13.0549 27.9851 9.70907C27.9851 6.36321 25.2631 3.64117 21.9173 3.64117C18.5714 3.64117 15.8494 6.36321 15.8494 9.70907ZM26.8133 9.70907C26.8133 12.4088 24.6169 14.6051 21.9173 14.6051C19.2176 14.6051 17.0212 12.4088 17.0212 9.70907C17.0212 7.00938 19.2176 4.81305 21.9173 4.81305C24.6169 4.81305 26.8133 7.00938 26.8133 9.70907Z" fill="black"/>
<path d="M20.2458 9.06603C20.0169 8.8372 19.646 8.8372 19.4172 9.06603C19.1883 9.29485 19.1883 9.66587 19.4172 9.89462L21.2194 11.6969C21.3339 11.8113 21.4839 11.8685 21.6338 11.8685C21.7837 11.8685 21.9337 11.8113 22.0482 11.6969L24.8418 8.90329C25.0706 8.67446 25.0706 8.30345 24.8418 8.0747C24.6129 7.84587 24.2419 7.84587 24.0131 8.0747L21.6339 10.454L20.2458 9.06603Z" fill="black"/>
<path d="M19.0376 26.1382C19.0376 26.4618 19.2998 26.7241 19.6235 26.7241H30.3993C30.723 26.7241 30.9852 26.4618 30.9852 26.1382C30.9852 25.8146 30.723 25.5522 30.3993 25.5522H19.6235C19.2998 25.5522 19.0376 25.8146 19.0376 26.1382Z" fill="black"/>
<path d="M30.3992 28.402H24.8437C24.5201 28.402 24.2578 28.6644 24.2578 28.988C24.2578 29.3116 24.5201 29.5739 24.8437 29.5739H30.3992C30.7229 29.5739 30.9851 29.3116 30.9851 28.988C30.9851 28.6644 30.7229 28.402 30.3992 28.402Z" fill="black"/>
<path d="M19.6235 29.5739H22.8125C23.1362 29.5739 23.3984 29.3116 23.3984 28.988C23.3984 28.6644 23.1362 28.402 22.8125 28.402H19.6235C19.2998 28.402 19.0376 28.6644 19.0376 28.988C19.0376 29.3116 19.2998 29.5739 19.6235 29.5739Z" fill="black"/>
<path d="M30.3992 31.2518H19.6234C19.2997 31.2518 19.0375 31.5141 19.0375 31.8377C19.0375 32.1613 19.2997 32.4236 19.6234 32.4236H30.3992C30.7229 32.4236 30.9851 32.1613 30.9851 31.8377C30.9851 31.5141 30.7229 31.2518 30.3992 31.2518Z" fill="black"/>
<path d="M30.3992 34.1016H27.5781C27.2544 34.1016 26.9922 34.3639 26.9922 34.6875C26.9922 35.0111 27.2544 35.2734 27.5781 35.2734H30.3992C30.7229 35.2734 30.9851 35.0111 30.9851 34.6875C30.9851 34.3639 30.7229 34.1016 30.3992 34.1016Z" fill="black"/>
<path d="M25.7812 34.1016H19.6235C19.2998 34.1016 19.0376 34.3639 19.0376 34.6875C19.0376 35.0111 19.2998 35.2734 19.6235 35.2734H25.7812C26.1049 35.2734 26.3672 35.0111 26.3672 34.6875C26.3672 34.3639 26.1049 34.1016 25.7812 34.1016Z" fill="black"/>
</svg>
